<?xml version="1.0" encoding="UTF-8" standalone="no"?>
<!-- Created with Inkscape (http://www.inkscape.org/) -->

<svg
   xmlns:dc="http://purl.org/dc/elements/1.1/"
   xmlns:cc="http://creativecommons.org/ns#"
   xmlns:rdf="http://www.w3.org/1999/02/22-rdf-syntax-ns#"
   xmlns:svg="http://www.w3.org/2000/svg"
   xmlns="http://www.w3.org/2000/svg"
   xmlns:sodipodi="http://sodipodi.sourceforge.net/DTD/sodipodi-0.dtd"
   xmlns:inkscape="http://www.inkscape.org/namespaces/inkscape"
   id="svg4525"
   version="1.1"
   inkscape:version="0.48.2 r9819"
   width="1108.3441"
   height="588.56531"
   sodipodi:docname="superintendent.svg">
  <title
     id="title5548">Halo ODST Superintendent</title>
  <metadata
     id="metadata4531">
    <rdf:RDF>
      <cc:Work
         rdf:about="">
        <dc:format>image/svg+xml</dc:format>
        <dc:type
           rdf:resource="http://purl.org/dc/dcmitype/StillImage" />
        <dc:title>Halo ODST Superintendent</dc:title>
        <dc:date>7/2/2015</dc:date>
        <dc:creator>
          <cc:Agent>
            <dc:title>Akop Karapetyan</dc:title>
          </cc:Agent>
        </dc:creator>
        <dc:subject>
          <rdf:Bag>
            <rdf:li>halo</rdf:li>
            <rdf:li>odst</rdf:li>
            <rdf:li>superintendent</rdf:li>
          </rdf:Bag>
        </dc:subject>
        <cc:license
           rdf:resource="http://creativecommons.org/licenses/by-nc-sa/3.0/" />
      </cc:Work>
      <cc:License
         rdf:about="http://creativecommons.org/licenses/by-nc-sa/3.0/">
        <cc:permits
           rdf:resource="http://creativecommons.org/ns#Reproduction" />
        <cc:permits
           rdf:resource="http://creativecommons.org/ns#Distribution" />
        <cc:requires
           rdf:resource="http://creativecommons.org/ns#Notice" />
        <cc:requires
           rdf:resource="http://creativecommons.org/ns#Attribution" />
        <cc:prohibits
           rdf:resource="http://creativecommons.org/ns#CommercialUse" />
        <cc:permits
           rdf:resource="http://creativecommons.org/ns#DerivativeWorks" />
        <cc:requires
           rdf:resource="http://creativecommons.org/ns#ShareAlike" />
      </cc:License>
    </rdf:RDF>
  </metadata>
  <defs
     id="defs4529" />
  <sodipodi:namedview
     pagecolor="#ffffff"
     bordercolor="#666666"
     borderopacity="1"
     objecttolerance="10"
     gridtolerance="10"
     guidetolerance="10"
     inkscape:pageopacity="0"
     inkscape:pageshadow="2"
     inkscape:window-width="1541"
     inkscape:window-height="1219"
     id="namedview4527"
     showgrid="false"
     showguides="true"
     inkscape:guide-bbox="true"
     fit-margin-top="0"
     fit-margin-left="0"
     fit-margin-right="0"
     fit-margin-bottom="0"
     inkscape:zoom="0.51082251"
     inkscape:cx="212.39114"
     inkscape:cy="691.45118"
     inkscape:window-x="253"
     inkscape:window-y="80"
     inkscape:window-maximized="0"
     inkscape:current-layer="svg4525" />
  <g
     id="g5367"
     transform="translate(313.48744,-1033.2816)">
    <path
       id="path5249"
       d="m -53.691737,1183.1148 c 0,60.2864 -49.575673,109.1582 -110.730373,109.1582 -61.15468,0 -110.73035,-48.8718 -110.73035,-109.1582 0,-60.2865 49.57567,-109.1583 110.73035,-109.1583 61.1547,0 110.730373,48.8718 110.730373,109.1583 z"
       style="fill:#ffffff;fill-opacity:1;stroke:none"
       inkscape:connector-curvature="0" />
    <path
       id="path5251"
       d="m -164.4375,1080.8438 c -57.30465,-2e-4 -103.75,45.7901 -103.75,102.2812 0,56.4911 46.44535,102.2812 103.75,102.2812 57.30467,0 103.78125,-45.7901 103.78125,-102.2812 0,-56.4911 -46.47658,-102.2812 -103.78125,-102.2812 z m -45.1875,74.0624 c 15.67693,0 28.40625,12.6983 28.40625,28.375 0,15.677 -12.72932,28.4063 -28.40625,28.4063 -15.67693,0 -28.375,-12.7294 -28.375,-28.4063 0,-15.6767 12.69807,-28.375 28.375,-28.375 z m 61.65625,27.625 56.71875,0 c 0.0067,0.2542 0.03125,0.4944 0.03125,0.75 0,15.6769 -12.72932,28.4063 -28.40625,28.4063 -15.67693,0 -28.375,-12.7294 -28.375,-28.4063 0,-0.2557 0.0242,-0.4958 0.0312,-0.75 z"
       style="fill:#5e7b4b;fill-opacity:1;stroke:none"
       inkscape:connector-curvature="0" />
  </g>
  <g
     id="g5377"
     transform="translate(318.20881,-1033.0961)">
    <path
       id="path5289"
       d="m 207.67687,1182.9292 c 0,60.2864 -49.57567,109.1582 -110.73037,109.1582 -61.15468,0 -110.73035,-48.8718 -110.73035,-109.1582 0,-60.2864 49.57567,-109.1582 110.73035,-109.1582 61.1547,0 110.73037,48.8718 110.73037,109.1582 z"
       style="fill:#ffffff;fill-opacity:1;stroke:none"
       inkscape:connector-curvature="0" />
    <path
       id="path5291"
       d="m 96.9375,1080.6562 c -57.30465,2e-4 -103.75,45.7902 -103.75,102.2813 0,56.4911 46.44535,102.2813 103.75,102.2813 57.30467,0 103.78125,-45.7902 103.78125,-102.2813 0,-56.4911 -46.47658,-102.2813 -103.78125,-102.2813 z M 51.75,1154.7188 c 15.67693,0 28.375,12.6981 28.375,28.375 0,0.032 1e-4,0.063 0,0.094 l -56.75,0 c -10e-5,-0.032 0,-0.063 0,-0.094 0,-15.677 12.69807,-28.375 28.375,-28.375 z m 90,0 c 15.67693,0 28.375,12.6981 28.375,28.375 0,0.032 1e-4,0.063 0,0.094 l -56.75,0 c -1e-4,-0.032 0,-0.063 0,-0.094 0,-15.6769 12.69807,-28.375 28.375,-28.375 z"
       style="fill:#5e7b4b;fill-opacity:1;stroke:none"
       inkscape:connector-curvature="0" />
  </g>
  <g
     id="g5357"
     transform="translate(515.12299,-312.15092)">
    <path
       id="path5316"
       d="m 542.94273,461.9841 c 0,60.28638 -49.57568,109.15816 -110.73038,109.15816 -61.15468,0 -110.73035,-48.87178 -110.73035,-109.15816 0,-60.28648 49.57567,-109.1583 110.73035,-109.1583 61.1547,0 110.73038,48.87182 110.73038,109.1583 z"
       style="fill:#ffffff;fill-opacity:1;stroke:none"
       inkscape:connector-curvature="0" />
    <path
       id="path5318"
       d="m 432.21875,359.6875 c -57.30465,0 -103.78125,45.7901 -103.78125,102.28125 0,56.49105 46.4766,102.3125 103.78125,102.3125 57.30467,0 103.75,-45.82145 103.75,-102.3125 0,-56.49115 -46.44533,-102.28125 -103.75,-102.28125 z m -73.46875,94.46875 56.75,0 0,16.15625 -56.75,0 0,-16.15625 z m 89.78125,0 56.78125,0 0,16.15625 -56.78125,0 0,-16.15625 z"
       style="fill:#5e7b4b;fill-opacity:1;stroke:none"
       inkscape:connector-curvature="0" />
  </g>
  <g
     id="g5409"
     transform="translate(-53.640032,20.646337)">
    <path
       id="path5392"
       d="m 845.61572,129.18684 c 0,60.28638 -49.57567,109.15816 -110.73037,109.15816 -61.15468,0 -110.73035,-48.87178 -110.73035,-109.15816 0,-60.286484 49.57567,-109.158304 110.73035,-109.158304 61.1547,0 110.73037,48.87182 110.73037,109.158304 z"
       style="fill:#ffffff;fill-opacity:1;stroke:none"
       inkscape:connector-curvature="0" />
    <path
       id="path5394"
       d="m 734.875,26.90625 c -57.30465,0 -103.75,45.790096 -103.75,102.28125 0,56.49105 46.44535,102.28125 103.75,102.28125 57.30467,0 103.78125,-45.7902 103.78125,-102.28125 0,-56.491154 -46.47658,-102.28125 -103.78125,-102.28125 z m -73.5,100.46875 56.625,0 c 0.0458,0.65924 0.0625,1.32912 0.0625,2 0,15.67694 -12.69807,28.375 -28.375,28.375 -15.67693,0 -28.375,-12.69806 -28.375,-28.375 0,-0.67088 0.0167,-1.34076 0.0625,-2 z m 90,0 56.625,0 c 0.0458,0.65924 0.0625,1.32912 0.0625,2 0,15.67693 -12.69807,28.375 -28.375,28.375 -15.67693,0 -28.375,-12.69807 -28.375,-28.375 0,-0.67088 0.0167,-1.34076 0.0625,-2 z"
       style="fill:#5e7b4b;fill-opacity:1;stroke:none"
       inkscape:connector-curvature="0" />
  </g>
  <g
     id="g5222"
     transform="translate(1225.7016,891.15464)">
    <path
       id="path5190"
       d="m -566.77087,-473.75058 c 0,60.28638 -49.57567,109.15816 -110.73037,109.15816 -61.15468,0 -110.73035,-48.87178 -110.73035,-109.15816 0,-60.28648 49.57567,-109.1583 110.73035,-109.1583 61.1547,0 110.73037,48.87182 110.73037,109.1583 z"
       style="fill:#ffffff;fill-opacity:1;stroke:none"
       inkscape:connector-curvature="0" />
    <path
       id="path5182"
       d="m -677.50265,-576.02701 c -57.30465,0 -103.75,45.7901 -103.75,102.28125 0,56.49105 46.44535,102.28125 103.75,102.28125 57.30467,0 103.75,-45.7902 103.75,-102.28125 0,-56.49115 -46.44533,-102.28125 -103.75,-102.28125 z m -45.1875,74.0625 c 15.67693,0 28.375,12.72933 28.375,28.40625 0,15.67694 -12.69807,28.375 -28.375,28.375 -15.67693,0 -28.375,-12.69806 -28.375,-28.375 0,-15.67692 12.69807,-28.40625 28.375,-28.40625 z m 90,0 c 15.67693,0 28.375,12.72933 28.375,28.40625 0,15.67693 -12.69807,28.375 -28.375,28.375 -15.67693,0 -28.375,-12.69807 -28.375,-28.375 0,-15.67692 12.69807,-28.40625 28.375,-28.40625 z"
       style="fill:#5e7b4b;fill-opacity:1;stroke:none"
       inkscape:connector-curvature="0" />
  </g>
  <g
     id="g5448"
     transform="translate(152.0761,-377.36625)">
    <path
       id="path5413"
       d="m 239.75473,794.77034 c 0,60.28638 -49.57567,109.15816 -110.73037,109.15816 -61.15469,0 -110.73036,-48.87178 -110.73036,-109.15816 0,-60.28648 49.57567,-109.1583 110.73036,-109.1583 61.1547,0 110.73037,48.87182 110.73037,109.1583 z"
       style="fill:#ffffff;fill-opacity:1;stroke:none"
       inkscape:connector-curvature="0" />
    <path
       id="path5415"
       d="m 129.03125,692.46875 c -57.30466,0 -103.78125,45.82135 -103.78125,102.3125 0,56.49105 46.47659,102.28125 103.78125,102.28125 57.30467,0 103.75,-45.7902 103.75,-102.28125 0,-56.49115 -46.44533,-102.3125 -103.75,-102.3125 z m -71.6875,92.25 53.375,19.3125 c -3.78565,11.22609 -14.371948,19.3125 -26.875,19.3125 -15.67693,0 -28.40625,-12.72931 -28.40625,-28.40625 0,-3.60763 0.678929,-7.0442 1.90625,-10.21875 z m 143.03125,0.1875 c 1.18314,3.12429 1.84375,6.49241 1.84375,10.03125 0,15.67693 -12.69807,28.40625 -28.375,28.40625 -12.39807,0 -22.94526,-7.9521 -26.8125,-19.03125 L 200.375,784.90625 z"
       style="fill:#5e7b4b;fill-opacity:1;stroke:none"
       inkscape:connector-curvature="0" />
  </g>
  <g
     id="g5454"
     transform="translate(79.643868,-376.67675)">
    <path
       inkscape:connector-curvature="0"
       style="fill:#ffffff;fill-opacity:1;stroke:none"
       d="m 846.38673,794.08084 c 0,60.28638 -49.57567,109.15816 -110.73037,109.15816 -61.15469,0 -110.73036,-48.87178 -110.73036,-109.15816 0,-60.28648 49.57567,-109.1583 110.73036,-109.1583 61.1547,0 110.73037,48.87182 110.73037,109.1583 z"
       id="path5438" />
    <path
       id="path5440"
       d="m 735.65625,691.78125 c -57.30466,0 -103.75,45.82135 -103.75,102.3125 0,56.49105 46.44534,102.28125 103.75,102.28125 57.30467,0 103.75,-45.7902 103.75,-102.28125 0,-56.49115 -46.44533,-102.3125 -103.75,-102.3125 z m -19.625,92.9375 c 1.22732,3.17455 1.90625,6.61112 1.90625,10.21875 0,15.67694 -12.72932,28.40625 -28.40625,28.40625 -12.50305,0 -23.08935,-8.08641 -26.875,-19.3125 l 53.375,-19.3125 z m 37.6875,0.0937 53.34375,19.40625 c -3.86724,11.0792 -14.41443,19.0313 -26.8125,19.0313 -15.67693,0 -28.375,-12.72932 -28.375,-28.40625 0,-3.53884 0.66061,-6.90696 1.84375,-10.03125 z"
       style="fill:#5e7b4b;fill-opacity:1;stroke:none"
       inkscape:connector-curvature="0" />
  </g>
</svg>
