<?xml version="1.0" encoding="UTF-8" standalone="no"?>
<!-- Created with Inkscape (http://www.inkscape.org/) -->

<svg
   xmlns:dc="http://purl.org/dc/elements/1.1/"
   xmlns:cc="http://creativecommons.org/ns#"
   xmlns:rdf="http://www.w3.org/1999/02/22-rdf-syntax-ns#"
   xmlns:svg="http://www.w3.org/2000/svg"
   xmlns="http://www.w3.org/2000/svg"
   xmlns:xlink="http://www.w3.org/1999/xlink"
   xmlns:sodipodi="http://sodipodi.sourceforge.net/DTD/sodipodi-0.dtd"
   xmlns:inkscape="http://www.inkscape.org/namespaces/inkscape"
   id="svg4206"
   version="1.1"
   inkscape:version="0.91 r13725"
   width="318.15317"
   height="165.65919"
   viewBox="0 0 318.15317 165.6592"
   sodipodi:docname="CocoaMSX-Pod.svg">
  <metadata
     id="metadata4212">
    <rdf:RDF>
      <cc:Work
         rdf:about="">
        <dc:format>image/svg+xml</dc:format>
        <dc:type
           rdf:resource="http://purl.org/dc/dcmitype/StillImage" />
        <dc:title></dc:title>
      </cc:Work>
    </rdf:RDF>
  </metadata>
  <defs
     id="defs4210">
    <linearGradient
       inkscape:collect="always"
       id="linearGradient8419">
      <stop
         style="stop-color:#5955e0;stop-opacity:1;"
         offset="0"
         id="stop8421" />
      <stop
         style="stop-color:#2d28d8;stop-opacity:1"
         offset="1"
         id="stop8423" />
    </linearGradient>
    <filter
       style="color-interpolation-filters:sRGB"
       inkscape:label="Drop Shadow"
       id="filter4666">
      <feFlood
         flood-opacity="0.498039"
         flood-color="rgb(0,0,0)"
         result="flood"
         id="feFlood4668" />
      <feComposite
         in="flood"
         in2="SourceGraphic"
         operator="in"
         result="composite1"
         id="feComposite4670" />
      <feGaussianBlur
         in="composite1"
         stdDeviation="1.5"
         result="blur"
         id="feGaussianBlur4672" />
      <feOffset
         dx="4.52416e-15"
         dy="1"
         result="offset"
         id="feOffset4674" />
      <feComposite
         in="SourceGraphic"
         in2="offset"
         operator="over"
         result="composite2"
         id="feComposite4676" />
    </filter>
    <filter
       style="color-interpolation-filters:sRGB"
       inkscape:label="Drop Shadow"
       id="filter8407">
      <feFlood
         flood-opacity="0.498039"
         flood-color="rgb(0,0,0)"
         result="flood"
         id="feFlood8409" />
      <feComposite
         in="flood"
         in2="SourceGraphic"
         operator="in"
         result="composite1"
         id="feComposite8411" />
      <feGaussianBlur
         in="composite1"
         stdDeviation="1"
         result="blur"
         id="feGaussianBlur8413" />
      <feOffset
         dx="4.52416e-15"
         dy="1"
         result="offset"
         id="feOffset8415" />
      <feComposite
         in="SourceGraphic"
         in2="offset"
         operator="over"
         result="composite2"
         id="feComposite8417" />
    </filter>
    <linearGradient
       inkscape:collect="always"
       xlink:href="#linearGradient8419"
       id="linearGradient8425"
       x1="76.805252"
       y1="14.13513"
       x2="76.805252"
       y2="150.46445"
       gradientUnits="userSpaceOnUse"
       gradientTransform="translate(-6.4330791e-8,1.0596209)" />
    <filter
       style="color-interpolation-filters:sRGB"
       inkscape:label="Drop Shadow"
       id="filter4666-7">
      <feFlood
         flood-opacity="0.498039"
         flood-color="rgb(0,0,0)"
         result="flood"
         id="feFlood4668-4" />
      <feComposite
         in="flood"
         in2="SourceGraphic"
         operator="in"
         result="composite1"
         id="feComposite4670-9" />
      <feGaussianBlur
         in="composite1"
         stdDeviation="1.5"
         result="blur"
         id="feGaussianBlur4672-6" />
      <feOffset
         dx="4.52416e-15"
         dy="1"
         result="offset"
         id="feOffset4674-3" />
      <feComposite
         in="SourceGraphic"
         in2="offset"
         operator="over"
         result="composite2"
         id="feComposite4676-3" />
    </filter>
    <linearGradient
       inkscape:collect="always"
       xlink:href="#linearGradient8419"
       id="linearGradient8617"
       gradientUnits="userSpaceOnUse"
       x1="76.805252"
       y1="14.13513"
       x2="76.805252"
       y2="150.46445"
       gradientTransform="translate(153.5536,9.3566927e-7)" />
    <filter
       style="color-interpolation-filters:sRGB"
       inkscape:label="Drop Shadow"
       id="filter8639">
      <feFlood
         flood-opacity="0.498039"
         flood-color="rgb(0,0,0)"
         result="flood"
         id="feFlood8641" />
      <feComposite
         in="flood"
         in2="SourceGraphic"
         operator="in"
         result="composite1"
         id="feComposite8643" />
      <feGaussianBlur
         in="composite1"
         stdDeviation="1"
         result="blur"
         id="feGaussianBlur8645" />
      <feOffset
         dx="4.52416e-15"
         dy="1"
         result="offset"
         id="feOffset8647" />
      <feComposite
         in="SourceGraphic"
         in2="offset"
         operator="over"
         result="composite2"
         id="feComposite8649" />
    </filter>
  </defs>
  <sodipodi:namedview
     pagecolor="#ffffff"
     bordercolor="#666666"
     borderopacity="1"
     objecttolerance="10"
     gridtolerance="10"
     guidetolerance="10"
     inkscape:pageopacity="0"
     inkscape:pageshadow="2"
     inkscape:window-width="1508"
     inkscape:window-height="1098"
     id="namedview4208"
     showgrid="false"
     inkscape:zoom="2.0831909"
     inkscape:cx="197.50778"
     inkscape:cy="75.491367"
     inkscape:window-x="698"
     inkscape:window-y="0"
     inkscape:window-maximized="0"
     inkscape:current-layer="svg4206"
     fit-margin-top="0"
     fit-margin-left="0"
     fit-margin-right="0"
     fit-margin-bottom="0"
     showguides="false" />
  <path
     style="opacity:1;fill:url(#linearGradient8425);fill-opacity:1;stroke:none;stroke-width:8;stroke-linecap:butt;stroke-linejoin:miter;stroke-miterlimit:4;stroke-dasharray:none;stroke-opacity:1;filter:url(#filter4666)"
     d="M 150.88294,83.359402 A 68.583153,68.583153 0 0 1 82.299784,151.94256 68.583153,68.583153 0 0 1 13.716631,83.359402 68.583153,68.583153 0 0 1 82.299784,14.776252 68.583153,68.583153 0 0 1 150.88294,83.359402 Z"
     id="path4603"
     inkscape:export-xdpi="80.760002"
     inkscape:export-ydpi="80.760002"
     inkscape:connector-curvature="0"
     inkscape:export-filename="/Users/akop/Desktop/g5218.png" />
  <path
     style="opacity:1;fill:#ffffff;fill-opacity:1;stroke:none;stroke-width:0;stroke-linecap:butt;stroke-linejoin:miter;stroke-miterlimit:4;stroke-dasharray:none;stroke-opacity:1"
     d="M 144.07687,83.359423 A 61.777073,61.77707 0 0 1 82.299795,145.13647 61.777073,61.77707 0 0 1 20.522723,83.359423 61.777073,61.77707 0 0 1 82.299795,21.582365 61.777073,61.77707 0 0 1 144.07687,83.359423 Z"
     id="path7038"
     inkscape:connector-curvature="0" />
  <g
     id="g8399"
     style="filter:url(#filter8407)"
     transform="matrix(1.4223312,0,0,1.4228729,-34.3656,-326.14458)">
    <path
       sodipodi:nodetypes="ccccccccc"
       inkscape:connector-curvature="0"
       style="fill:#ffffff;fill-opacity:1;fill-rule:evenodd;stroke:none;stroke-width:0;stroke-linecap:butt;stroke-linejoin:miter;stroke-miterlimit:4;stroke-dasharray:none;stroke-opacity:1"
       d="m 81.672232,293.06028 c -3.850439,0.40387 -14.119652,14.37106 -15.988461,18.57077 -1.490414,4.80486 2.167863,8.27624 8.013232,10.34579 2.645964,0.45729 5.254686,0.85019 8.326423,0.95887 3.071761,-0.10869 5.681759,-0.50161 8.327732,-0.95887 5.845371,-2.06955 9.503635,-5.54093 8.013233,-10.34579 -1.929096,-4.33519 -12.965988,-19.02625 -16.340965,-18.56683 -0.110353,-0.0161 -0.226986,-0.017 -0.351194,-0.004 z"
       id="path6916"
       inkscape:export-filename="/Users/akop/Desktop/g5218.png"
       inkscape:export-xdpi="80.760002"
       inkscape:export-ydpi="80.760002" />
    <path
       inkscape:export-ydpi="80.760002"
       inkscape:export-xdpi="80.760002"
       inkscape:export-filename="/Users/akop/Desktop/g5218.png"
       id="path4364"
       d="m 81.65538,292.34504 c -4.034858,0.42321 -14.795924,15.05937 -16.754241,19.46024 -1.561799,5.03498 2.271695,8.67263 8.397032,10.8413 2.772695,0.4792 5.506364,0.89091 8.725223,1.00479 3.218886,-0.11389 5.953892,-0.52562 8.726596,-1.00479 6.12534,-2.16867 9.95882,-5.80632 8.397033,-10.8413 -2.021491,-4.54284 -13.587004,-19.93753 -17.123629,-19.45612 -0.115637,-0.0168 -0.237857,-0.0178 -0.368014,-0.004 z m -8.927081,15.24616 0.0014,0 1.808486,0 0.940632,3.35068 0.974962,-3.35068 1.70275,0 1.598389,5.65675 3.894355,-0.008 c 0.40888,-0.004 0.434029,-0.84853 -0.03021,-0.84831 l -2.268503,-0.0315 c -0.97405,0.009 -2.001297,-1.04314 -1.951297,-2.44609 0.0104,-1.28682 1.133211,-2.29957 2.569231,-2.29921 l 5.785232,-0.006 1.472055,2.00409 1.437726,-2.02194 2.393463,0.0164 -2.624159,3.68835 2.838375,3.99857 -2.38385,-0.007 -1.65057,-2.29373 -1.570924,2.29373 -2.430539,-10e-4 2.766969,-3.95464 -1.20703,-1.75563 -5.028607,0.008 c -0.549,0.005 -0.530603,0.86725 0.0027,0.85105 l 2.120199,0.033 c 0.89558,0.006 2.155719,0.93604 2.124319,2.38844 0.0137,1.68853 -1.507206,2.45973 -2.239667,2.41863 l -5.546297,0.008 -0.92278,-3.455 -0.922781,3.44676 -1.750813,0 -0.962603,-3.42892 -0.847255,3.43441 -2.044674,-0.0124 1.951297,-7.67731 z"
       style="fill:#333333;fill-opacity:1;fill-rule:evenodd;stroke:#333333;stroke-width:0;stroke-linecap:butt;stroke-linejoin:miter;stroke-miterlimit:4;stroke-dasharray:none;stroke-opacity:1"
       inkscape:connector-curvature="0" />
    <path
       inkscape:export-ydpi="80.760002"
       inkscape:export-xdpi="80.760002"
       inkscape:export-filename="/Users/akop/Desktop/g5218.png"
       inkscape:transform-center-x="-23.830844"
       inkscape:connector-curvature="0"
       id="path4337"
       d="m 109.53417,279.95455 c 4.91968,0.0659 7.04169,4.51827 7.20013,10.5804 -0.3743,2.59917 -0.7967,5.14444 -1.62393,8.03427 -1.02942,2.82413 -2.18382,5.13155 -3.40883,7.45433 -3.69154,4.81125 -8.02544,7.16607 -12.044263,4.32777 -3.449412,-3.10438 -13.874888,-17.67988 -12.33195,-20.80965 0.592646,-3.27784 17.593423,-9.10306 22.208843,-9.58712 z"
       style="fill:#ff897d;fill-opacity:1;fill-rule:evenodd;stroke:#333333;stroke-width:1.70321703;stroke-linecap:butt;stroke-linejoin:miter;stroke-miterlimit:4;stroke-dasharray:none;stroke-opacity:1"
       sodipodi:nodetypes="ccccccc"
       inkscape:transform-center-y="9.5034389" />
    <path
       inkscape:export-ydpi="80.760002"
       inkscape:export-xdpi="80.760002"
       inkscape:export-filename="/Users/akop/Desktop/g5218.png"
       inkscape:transform-center-y="-22.086388"
       sodipodi:nodetypes="ccccccc"
       style="fill:#b766b5;fill-opacity:1;fill-rule:evenodd;stroke:#333333;stroke-width:1.70321703;stroke-linecap:butt;stroke-linejoin:miter;stroke-miterlimit:4;stroke-dasharray:none;stroke-opacity:1"
       d="m 83.045095,259.22626 c 1.582935,-4.65836 6.473299,-5.30056 12.287917,-3.57793 2.356385,1.15915 4.646642,2.34738 7.139518,4.02711 2.3679,1.8517 4.20576,3.66259 6.03639,5.54537 3.43518,4.99749 4.3356,9.8468 0.39421,12.7917 -4.01848,2.32114 -21.102791,7.7319 -23.602701,5.29737 -2.934398,-1.57652 -3.221187,-19.54468 -2.255334,-24.08362 z"
       id="path4339"
       inkscape:connector-curvature="0"
       inkscape:transform-center-x="-17.933411" />
    <path
       inkscape:export-ydpi="80.760002"
       inkscape:export-xdpi="80.760002"
       inkscape:export-filename="/Users/akop/Desktop/g5218.png"
       inkscape:transform-center-x="17.912967"
       inkscape:connector-curvature="0"
       id="path4341"
       d="m 55.14499,278.01251 c -3.941374,-2.94492 -3.040962,-7.79421 0.394226,-12.7917 1.830629,-1.88277 3.668477,-3.69367 6.036391,-5.54538 2.492861,-1.67973 4.783116,-2.86796 7.139509,-4.0271 5.814615,-1.72263 10.704995,-1.08043 12.287913,3.57793 0.965853,4.53893 0.832648,22.45847 -2.255325,24.08361 -2.406209,2.3035 -19.584224,-2.97621 -23.602714,-5.29736 z"
       style="fill:#b95e51;fill-opacity:1;fill-rule:evenodd;stroke:#333333;stroke-width:1.70321703;stroke-linecap:butt;stroke-linejoin:miter;stroke-miterlimit:4;stroke-dasharray:none;stroke-opacity:1"
       sodipodi:nodetypes="ccccccc"
       inkscape:transform-center-y="-22.114369" />
    <path
       inkscape:export-ydpi="80.760002"
       inkscape:export-xdpi="80.760002"
       inkscape:export-filename="/Users/akop/Desktop/g5218.png"
       inkscape:transform-center-y="9.5034368"
       sodipodi:nodetypes="ccccccc"
       style="fill:#3eb849;fill-opacity:1;fill-rule:evenodd;stroke:#333333;stroke-width:1.70321703;stroke-linecap:butt;stroke-linejoin:miter;stroke-miterlimit:4;stroke-dasharray:none;stroke-opacity:1"
       d="m 64.390848,310.35132 c -4.01883,2.83829 -8.352714,0.48348 -12.044265,-4.32777 -1.224997,-2.32278 -2.379397,-4.6302 -3.408826,-7.45434 -0.827239,-2.88982 -1.249629,-5.43509 -1.623922,-8.03426 0.158441,-6.06213 2.280446,-10.51453 7.200122,-10.5804 4.615413,0.48405 21.617398,6.14818 22.208832,9.5871 1.44728,3.00017 -8.882518,17.70529 -12.331941,20.80967 z"
       id="path4343"
       inkscape:connector-curvature="0"
       inkscape:transform-center-x="23.840784" />
  </g>
  <path
     style="opacity:1;fill:url(#linearGradient8617);fill-opacity:1;stroke:none;stroke-width:8;stroke-linecap:butt;stroke-linejoin:miter;stroke-miterlimit:4;stroke-dasharray:none;stroke-opacity:1;filter:url(#filter4666-7)"
     d="m 304.43654,82.299781 a 68.583153,68.583153 0 0 1 -68.58316,68.583159 68.583153,68.583153 0 0 1 -68.58315,-68.583159 68.583153,68.583153 0 0 1 68.58315,-68.58315 68.583153,68.583153 0 0 1 68.58316,68.58315 z"
     id="path4603-3"
     inkscape:export-xdpi="559.90002"
     inkscape:export-ydpi="559.90002"
     inkscape:connector-curvature="0"
     inkscape:export-filename="/Users/akop/Desktop/faff/icon_512x512@2x.png" />
  <path
     style="opacity:1;fill:#ffffff;fill-opacity:1;stroke:none;stroke-width:0;stroke-linecap:butt;stroke-linejoin:miter;stroke-miterlimit:4;stroke-dasharray:none;stroke-opacity:1"
     d="m 297.63047,82.299801 a 61.777073,61.77707 0 0 1 -61.77708,61.777049 61.777073,61.77707 0 0 1 -61.77707,-61.777049 61.777073,61.77707 0 0 1 61.77707,-61.77706 61.777073,61.77707 0 0 1 61.77708,61.77706 z"
     id="path7038-7"
     inkscape:connector-curvature="0"
     inkscape:export-filename="/Users/akop/Desktop/faff/icon_512x512@2x.png"
     inkscape:export-xdpi="559.90002"
     inkscape:export-ydpi="559.90002" />
  <g
     id="g8630"
     style="filter:url(#filter8639)"
     transform="translate(-6.4330791e-8,1.0596209)"
     inkscape:export-filename="/Users/akop/Desktop/faff/icon_512x512@2x.png"
     inkscape:export-xdpi="559.90002"
     inkscape:export-ydpi="559.90002">
    <g
       id="g8626">
      <path
         sodipodi:nodetypes="ccccccccc"
         inkscape:connector-curvature="0"
         style="fill:#ffffff;fill-opacity:1;fill-rule:evenodd;stroke:none;stroke-width:0;stroke-linecap:butt;stroke-linejoin:miter;stroke-miterlimit:4;stroke-dasharray:none;stroke-opacity:1"
         d="m 235.40317,90.85532 c -4.92719,0.51701 -18.06811,18.39682 -20.45952,23.77299 -1.9072,6.15085 2.77409,10.59465 10.25407,13.24397 3.38589,0.58538 6.72412,1.08836 10.65485,1.22747 3.93076,-0.1393 7.27062,-0.64213 10.65652,-1.22747 7.47999,-2.64932 12.16126,-7.09312 10.25408,-13.24397 -2.46856,-5.54959 -16.59184,-24.35607 -20.9106,-23.76794 -0.1412,-0.0203 -0.29046,-0.0221 -0.4494,-0.006 z"
         id="path6916-3"
         inkscape:export-filename="/Users/akop/Desktop/g5218.png"
         inkscape:export-xdpi="80.760002"
         inkscape:export-ydpi="80.760002" />
      <path
         inkscape:export-ydpi="80.760002"
         inkscape:export-xdpi="80.760002"
         inkscape:export-filename="/Users/akop/Desktop/g5218.png"
         id="path4364-1"
         d="m 235.34927,88.56697 c -5.517,0.57889 -20.23097,20.59901 -22.90865,26.61878 -2.1355,6.8871 3.10617,11.8629 11.48155,14.82933 3.7912,0.65545 7.52904,1.21864 11.9303,1.3744 4.40129,-0.15578 8.14096,-0.71898 11.93217,-1.3744 8.37539,-2.96643 13.61704,-7.94223 11.48156,-14.82933 -2.76405,-6.21395 -18.57798,-27.27164 -23.41373,-26.61316 -0.15812,-0.023 -0.32523,-0.0246 -0.5032,-0.006 z m -12.20631,20.85453 0.002,0 2.47281,0 1.28616,4.58325 1.3331,-4.58325 2.32823,0 2.18553,7.73761 5.32488,-0.01 c 0.55908,-0.006 0.59346,-1.16066 -0.0413,-1.16038 l -3.1018,-0.0431 c -1.33185,0.0114 -2.73644,-1.42689 -2.66807,-3.34589 0.0142,-1.76019 1.54947,-3.1455 3.51299,-3.14499 l 7.91035,-0.009 2.01279,2.74129 1.96585,-2.76572 3.27267,0.0229 -3.58811,5.04513 3.88101,5.46948 -3.25952,-0.009 -2.25688,-3.13748 -2.14798,3.13748 -3.32336,-0.001 3.78338,-5.40938 -1.65042,-2.40148 -6.87579,0.01 c -0.75066,0.007 -0.72551,1.1863 0.004,1.16411 l 2.89902,0.0451 c 1.22456,0.009 2.94759,1.28042 2.90466,3.26706 0.0188,2.30968 -2.06086,3.36455 -3.06238,3.30832 l -7.58364,0.01 -1.26175,-4.72593 -1.26175,4.71469 -2.39395,0 -1.31619,-4.69029 -1.15849,4.69779 -2.79575,-0.0169 2.66808,-10.50142 z"
         style="fill:#333333;fill-opacity:1;fill-rule:evenodd;stroke:#333333;stroke-width:0;stroke-linecap:butt;stroke-linejoin:miter;stroke-miterlimit:4;stroke-dasharray:none;stroke-opacity:1"
         inkscape:connector-curvature="0" />
    </g>
    <path
       inkscape:transform-center-y="9.5034389"
       sodipodi:nodetypes="ccccccc"
       style="fill:#ff897d;fill-opacity:1;fill-rule:evenodd;stroke:none;stroke-width:1.70321703;stroke-linecap:butt;stroke-linejoin:miter;stroke-miterlimit:4;stroke-dasharray:none;stroke-opacity:1"
       d="m 275.41973,69.16241 c 7.28153,0.0978 10.42228,6.68999 10.6568,15.66586 -0.55399,3.84844 -1.17919,7.61709 -2.40356,11.8959 -1.52363,4.18154 -3.23222,7.59803 -5.04535,11.03724 -5.46379,7.12377 -11.87832,10.61042 -17.82652,6.40789 -5.10542,-4.59646 -20.536,-26.17766 -18.25232,-30.81174 0.87717,-4.85331 26.03974,-13.47844 32.87095,-14.19515 z"
       id="path4337-8"
       inkscape:connector-curvature="0"
       inkscape:transform-center-x="-23.830844"
       inkscape:export-filename="/Users/akop/Desktop/g5218.png"
       inkscape:export-xdpi="80.760002"
       inkscape:export-ydpi="80.760002" />
    <path
       inkscape:transform-center-x="-17.933411"
       inkscape:connector-curvature="0"
       id="path4339-8"
       d="m 236.4985,39.99729 c 2.34287,-6.89738 9.58102,-7.84827 18.18714,-5.29765 3.48765,1.71629 6.87741,3.47563 10.56708,5.96272 3.50471,2.74174 6.22489,5.42303 8.93436,8.21072 5.08437,7.39954 6.41706,14.57965 0.58346,18.94002 -5.94767,3.43678 -31.23388,11.44822 -34.93396,7.84354 -4.34315,-2.33428 -4.76762,-28.93877 -3.33808,-35.65935 z"
       style="fill:#b766b5;fill-opacity:1;fill-rule:evenodd;stroke:none;stroke-width:1.70321703;stroke-linecap:butt;stroke-linejoin:miter;stroke-miterlimit:4;stroke-dasharray:none;stroke-opacity:1"
       sodipodi:nodetypes="ccccccc"
       inkscape:transform-center-y="-22.086388"
       inkscape:export-filename="/Users/akop/Desktop/g5218.png"
       inkscape:export-xdpi="80.760002"
       inkscape:export-ydpi="80.760002" />
    <path
       inkscape:transform-center-y="-22.114369"
       sodipodi:nodetypes="ccccccc"
       style="fill:#b95e51;fill-opacity:1;fill-rule:evenodd;stroke:none;stroke-width:1.70321703;stroke-linecap:butt;stroke-linejoin:miter;stroke-miterlimit:4;stroke-dasharray:none;stroke-opacity:1"
       d="m 196.93522,67.81445 c -5.83357,-4.36038 -4.50088,-11.54049 0.58348,-18.94 2.70949,-2.78771 5.42965,-5.46903 8.93437,-8.21076 3.68964,-2.48708 7.07941,-4.24642 10.56707,-5.96271 8.60611,-2.5506 15.84428,-1.59973 18.18713,5.29764 1.42955,6.72057 1.23239,33.25308 -3.33806,35.65936 -3.5614,3.41066 -28.9863,-4.40672 -34.93399,-7.84353 z"
       id="path4341-9"
       inkscape:connector-curvature="0"
       inkscape:transform-center-x="17.912967"
       inkscape:export-filename="/Users/akop/Desktop/g5218.png"
       inkscape:export-xdpi="80.760002"
       inkscape:export-ydpi="80.760002" />
    <path
       inkscape:transform-center-x="23.840784"
       inkscape:connector-curvature="0"
       id="path4343-6"
       d="m 210.90614,114.1693 c -5.9482,4.20251 -12.36271,0.71588 -17.82652,-6.40789 -1.81309,-3.43921 -3.5217,-6.8557 -5.04534,-11.03726 -1.22439,-4.27879 -1.84956,-8.04744 -2.40354,-11.89588 0.2345,-8.97587 3.37525,-15.56832 10.65678,-15.66586 6.83119,0.7167 31.99555,9.1033 32.87092,14.19512 2.1421,4.44219 -13.14686,26.21531 -18.2523,30.81177 z"
       style="fill:#3eb849;fill-opacity:1;fill-rule:evenodd;stroke:none;stroke-width:1.70321703;stroke-linecap:butt;stroke-linejoin:miter;stroke-miterlimit:4;stroke-dasharray:none;stroke-opacity:1"
       sodipodi:nodetypes="ccccccc"
       inkscape:transform-center-y="9.5034368"
       inkscape:export-filename="/Users/akop/Desktop/g5218.png"
       inkscape:export-xdpi="80.760002"
       inkscape:export-ydpi="80.760002" />
  </g>
</svg>
