<?xml version="1.0" encoding="UTF-8" standalone="no"?>
<!-- Created with Inkscape (http://www.inkscape.org/) -->

<svg
   xmlns:dc="http://purl.org/dc/elements/1.1/"
   xmlns:cc="http://creativecommons.org/ns#"
   xmlns:rdf="http://www.w3.org/1999/02/22-rdf-syntax-ns#"
   xmlns:svg="http://www.w3.org/2000/svg"
   xmlns="http://www.w3.org/2000/svg"
   version="1.1"
   width="1757.7455"
   height="1226.2244"
   id="svg3039">
  <title
     id="title3475">BlueberryMSX Logo</title>
  <metadata
     id="metadata3045">
    <rdf:RDF>
      <cc:Work
         rdf:about="">
        <dc:format>image/svg+xml</dc:format>
        <dc:type
           rdf:resource="http://purl.org/dc/dcmitype/StillImage" />
        <dc:title>BlueberryMSX Logo</dc:title>
        <dc:creator>
          <cc:Agent>
            <dc:title>Akop Karapetyan</dc:title>
          </cc:Agent>
        </dc:creator>
        <dc:subject>
          <rdf:Bag>
            <rdf:li>blueberrymsx</rdf:li>
            <rdf:li>msx</rdf:li>
          </rdf:Bag>
        </dc:subject>
        <cc:license
           rdf:resource="http://creativecommons.org/licenses/by-nc-sa/3.0/" />
        <dc:date>2/27/2015</dc:date>
      </cc:Work>
      <cc:License
         rdf:about="http://creativecommons.org/licenses/by-nc-sa/3.0/">
        <cc:permits
           rdf:resource="http://creativecommons.org/ns#Reproduction" />
        <cc:permits
           rdf:resource="http://creativecommons.org/ns#Distribution" />
        <cc:requires
           rdf:resource="http://creativecommons.org/ns#Notice" />
        <cc:requires
           rdf:resource="http://creativecommons.org/ns#Attribution" />
        <cc:prohibits
           rdf:resource="http://creativecommons.org/ns#CommercialUse" />
        <cc:permits
           rdf:resource="http://creativecommons.org/ns#DerivativeWorks" />
        <cc:requires
           rdf:resource="http://creativecommons.org/ns#ShareAlike" />
      </cc:License>
    </rdf:RDF>
  </metadata>
  <defs
     id="defs3043" />
  <g
     transform="translate(-15.900158,-0.13063702)"
     id="g4129">
    <path
       d="m 1331.7919,322.61272 c 68.2172,2.45522 72.8324,74.91329 72.8324,74.91329 1.5079,-0.57996 -25.098,56.64799 -91.5607,93.64162 -27.8231,2.12335 -35.3757,-22.89017 -35.3757,-22.89017 0,0 10.8579,-133.55349 54.104,-145.66474 z"
       id="path3865"
       style="fill:#424b58;fill-opacity:1;stroke:#000000;stroke-width:30;stroke-linecap:butt;stroke-linejoin:miter;stroke-miterlimit:4;stroke-opacity:1;stroke-dasharray:none" />
    <path
       d="m 410.53067,446.75287 c -25.08049,-12.27238 -55.91457,-57.38601 -55.91457,-57.38601 0,0 7.87759,9.08903 19.12867,-1.47143 C 345.26707,347.90624 322.2445,280.4806 322.2445,280.4806 c 0,0 14.09318,2.83572 27.95728,-2.94287 -34.69329,-45.50737 -39.72877,-100.05766 -39.72877,-100.05766 l 25.01442,0 -4.41431,-36.78591 c 0,0 13.29183,13.48042 27.95728,5.88575 4.3654,-50.266313 27.95729,-63.271749 27.95729,-63.271749 l 26.48584,11.771489 20.60011,-17.657233 c 0,0 17.85617,9.498572 25.01442,5.885744 1.27251,-12.441444 8.30838,-17.478718 8.30838,-17.478718 0,0 13.97006,2.726981 25.87636,3.106074 0.98145,-8.985069 7.34186,-14.089559 7.34186,-14.089559 0,0 60.97246,-3.203486 70.21328,32.177765 11.32174,-15.081176 9.77983,-20.674048 9.77983,-20.674048 0,0 60.78423,41.958545 58.76818,84.466025 22.43482,4.01037 25.19293,-15.66556 25.19293,-15.66556 0,0 15.11007,16.00638 17.04774,35.24052 145.59889,391.98074 136.0034,427.67647 -271.08595,276.36221 z"
       id="path3999"
       style="fill:#92bf23;fill-opacity:1;stroke:#000000;stroke-width:30;stroke-miterlimit:4;stroke-dasharray:none" />
    <path
       d="M 628.30321,480.5959 C 553.4805,421.97871 485.61023,352.26356 445.84513,170.12289 497.21018,294.46934 573.75557,376.98698 656.26049,446.75287"
       id="path4001"
       style="fill:#000000;stroke:none" />
    <path
       d="m 1209.0173,322.61273 a 262.19653,278.84393 0 1 1 -524.39303,0 262.19653,278.84393 0 1 1 524.39303,0 z"
       transform="matrix(1.4207361,0,0,1.2945565,-347.37906,-56.530546)"
       id="path3883"
       style="fill:#000000;fill-opacity:1;stroke:none" />
    <path
       d="m 1553.4794,516.44591 c 3.0949,14.70125 14.9975,8.11456 14.9975,8.11456 l 42.4625,-2.15487 c 0,0 7.2579,10.79982 20.6307,8.11456 122.77,26.64256 152.3791,125.28844 106.8794,123.27422 23.1707,3.1881 14.7143,10.30006 14.7143,10.30006 0,0 -11.2408,14.39572 -31.5836,19.55964 6.7093,9.32577 23.9739,4.91923 23.9739,4.91923 0,0 -20.4409,21.34861 -46.0454,21.56662 47.1326,8.94663 -6.0483,26.36338 -39.7288,30.90016 3.7762,17.02233 18.5192,10.98348 18.5192,10.98348 0,0 -45.0707,15.89375 -93.5624,56.70258 -47.4512,3.35218 -161.858,-69.1575 -161.858,-69.1575 l 43.7337,-195.43322 c 0,0 16.142,-22.622 86.867,-27.68952 z"
       id="path3915"
       style="fill:#92bf23;fill-opacity:1;stroke:#000000;stroke-width:30;stroke-linecap:butt;stroke-linejoin:miter;stroke-miterlimit:4;stroke-opacity:1;stroke-dasharray:none" />
    <path
       d="m 1527.3506,658.63967 c 52.0981,-54.39668 117.6572,-41.48876 180.9866,-39.72878 -84.8379,3.06985 -139.7659,33.74878 -173.6294,83.87186 z"
       id="path3997"
       style="fill:#000000;stroke:none" />
    <path
       d="m 1583.5838,817.8728 a 353.75723,372.48553 0 1 1 -707.51449,0 353.75723,372.48553 0 1 1 707.51449,0 z"
       transform="matrix(1.1670622,0,0,1.1022255,-257.48068,-85.688325)"
       id="path3877"
       style="fill:#000000;fill-opacity:1;stroke:none" />
    <path
       d="m 194.22956,646.86818 c -63.50259,3.63284 -153.02935,-63.27175 -153.02935,-63.27175 0,0 21.265383,6.20753 23.542977,-4.41431 -24.208255,-3.26467 -33.843029,-23.54298 -33.843029,-23.54298 l 11.771488,-7.35718 -5.885745,-13.24292 c 0,0 47.217054,-28.67782 101.529089,-16.1858 17.52614,-15.46526 0,-22.07155 0,-22.07155 l 66.21462,17.65724 1e-5,-17.65723 c 0,0 35.61486,-2.47629 57.386,22.07154 14.41396,-7.82377 7.35719,-33.84303 7.35719,-33.84303 l 26.48584,13.24292 41.20021,158.9151 c 0,0 -92.46962,2.2529 -142.7293,-10.30005 z"
       id="path3889"
       style="fill:#92bf23;fill-opacity:1;stroke:#000000;stroke-width:30;stroke-linecap:butt;stroke-linejoin:miter;stroke-miterlimit:4;stroke-opacity:1;stroke-dasharray:none" />
    <path
       d="m 243.8797,581.93565 c -46.35024,3.52442 -92.70048,-10.62104 -139.05071,-23.17512 30.94233,22.75172 156.26018,42.667 139.78642,33.10731 -1.79983,-1.04444 -0.73571,-9.93219 -0.73571,-9.93219 z"
       id="path3982"
       style="fill:#000000;stroke:#000000;stroke-width:1px;stroke-linecap:butt;stroke-linejoin:miter;stroke-opacity:1" />
    <path
       d="m 1250.6359,299.72253 a 326.7052,324.62427 0 1 1 -653.41044,0 326.7052,324.62427 0 1 1 653.41044,0 z"
       transform="matrix(1.1037977,0,0,1.0684195,-495.43943,437.29658)"
       id="path3871"
       style="fill:#000000;fill-opacity:1" />
    <path
       d="m 1209.0173,322.61273 a 262.19653,278.84393 0 1 1 -524.39303,0 262.19653,278.84393 0 1 1 524.39303,0 z"
       transform="matrix(1.281746,0,0,1.1679105,-215.78035,-15.672938)"
       id="path3863"
       style="fill:#45698d;fill-opacity:1;stroke:none" />
    <path
       d="m 1583.5838,817.8728 a 353.75723,372.48553 0 1 1 -707.51449,0 353.75723,372.48553 0 1 1 707.51449,0 z"
       transform="matrix(1.0588235,0,0,1,-124.36586,-2.0809238)"
       id="path3857"
       style="fill:#45698d;fill-opacity:1;stroke:none" />
    <path
       d="m 1250.6359,299.72253 a 326.7052,324.62427 0 1 1 -653.41044,0 326.7052,324.62427 0 1 1 653.41044,0 z"
       transform="matrix(1,0,0,0.96794872,-399.53757,467.40996)"
       id="path3049"
       style="fill:#45698d;fill-opacity:1" />
    <path
       d="m 426.7839,456.88509 c 30.71654,-47.55123 34.99808,-78.56246 68.51174,-75.95003 11.31558,0.88207 129.94239,29.85032 118.06844,83.21939 26.89597,-50.82506 123.57909,19.38495 123.57909,19.38495 0,0 -2.80786,46.9459 -60.57798,72.69359 31.88529,20.90144 16.96183,77.53982 16.96183,77.53982 0,0 -87.95634,34.64772 -159.92587,-14.53872 -59.85393,59.85393 -113.88661,43.61615 -113.88661,43.61615 0,0 -44.81993,-46.90322 -24.2312,-99.34789 -56.95108,-20.94413 -75.11668,-75.1167 -75.11668,-75.1167 0,0 20.78322,-59.95066 106.61724,-31.50056 z"
       id="path3873"
       style="fill:#000000;fill-opacity:1;stroke:none" />
    <path
       d="m 441.15607,466.19653 c 26.37873,-40.83602 30.05563,-67.46782 58.83647,-65.22432 9.71758,0.7575 111.59184,25.63484 101.39474,71.46709 23.0977,-43.64751 106.12717,16.6474 106.12717,16.6474 0,0 -2.41133,40.31617 -52.02312,62.42775 27.38243,17.94973 14.56647,66.5896 14.56647,66.5896 0,0 -75.53509,29.75475 -137.34104,-12.48555 -51.40132,51.40132 -97.80347,37.45665 -97.80347,37.45665 0,0 -38.49043,-40.27952 -20.80925,-85.31792 -48.90842,-17.98639 -64.50866,-64.50867 -64.50866,-64.50867 0,0 17.8482,-51.48439 91.56069,-27.05203 z"
       id="path3055"
       style="fill:#424b58;fill-opacity:1;stroke:none" />
    <path
       d="m 638.84392,536.948 a 133.17918,70.751442 0 1 1 -266.35837,0 133.17918,70.751442 0 1 1 266.35837,0 z"
       transform="matrix(0.84742647,0,0,0.97983686,97.960305,0.42193259)"
       id="path3051"
       style="fill:#000000;fill-opacity:1" />
    <path
       d="m 1176.2016,690.06475 c -69.5113,-68.17594 33.1987,-158.87923 33.1987,-158.87923 0,0 137.0149,-41.46593 161.2505,87.73928 81.1477,-72.35798 177.85,23.71332 177.85,23.71332 0,0 12.4623,85.39332 -59.2833,137.53723 91.876,71.11455 45.0552,139.90855 45.0552,139.90855 0,0 -51.9876,32.89478 -168.3645,4.74268 -23.8951,80.92912 -99.596,80.62522 -99.596,80.62522 0,0 -93.7835,-29.64995 -73.5112,-116.19521 -112.5224,-3.54866 -125.6806,-109.08124 -125.6806,-109.08124 0,0 12.5994,-90.70329 109.0812,-90.1106 z"
       id="path3879"
       style="fill:#000000;fill-opacity:1;stroke:none" />
    <path
       d="m 1192.3699,699.26012 c -60.9986,-59.82672 29.133,-139.42197 29.133,-139.42197 0,0 120.2353,-36.38778 141.5029,76.99422 71.2098,-63.49661 156.0694,20.80926 156.0694,20.80926 0,0 10.9362,74.93557 -52.0231,120.69364 80.6244,62.40546 39.5375,122.77456 39.5375,122.77456 0,0 -45.6209,28.86629 -147.7457,4.16186 -20.9687,71.0181 -87.3988,70.75144 -87.3988,70.75144 0,0 -82.2983,-26.01889 -64.5087,-101.96533 -98.7422,-3.11407 -110.289,-95.72253 -110.289,-95.72253 0,0 11.0564,-79.59525 95.7225,-79.07515 z"
       id="path3861"
       style="fill:#424b58;fill-opacity:1;stroke:none" />
    <path
       d="m 1402.5433,786.65894 a 131.09827,137.34103 0 1 1 -262.1965,0 131.09827,137.34103 0 1 1 262.1965,0 z"
       transform="translate(29.132948,-16.647395)"
       id="path3859"
       style="fill:#000000;fill-opacity:1;stroke:none" />
    <path
       d="m 984.27744,314.28903 a 172.71677,178.95953 0 1 1 -345.43354,0 172.71677,178.95953 0 1 1 345.43354,0 z"
       transform="matrix(0.2719337,0.16629407,-0.24548172,0.40142594,670.1031,49.005693)"
       id="path3887"
       style="fill:#000000;fill-opacity:1;stroke:none" />
    <path
       d="m 984.27744,314.28903 a 172.71677,178.95953 0 1 1 -345.43354,0 172.71677,178.95953 0 1 1 345.43354,0 z"
       transform="matrix(0.2158509,0.13199807,-0.1948543,0.31863704,699.70605,102.85862)"
       id="path3867"
       style="fill:#925a1e;fill-opacity:1;stroke:none" />
    <path
       d="m 638.84392,536.948 a 133.17918,70.751442 0 1 1 -266.35837,0 133.17918,70.751442 0 1 1 266.35837,0 z"
       transform="matrix(0.69274685,0,0,0.80098855,176.17633,96.454173)"
       id="path3875"
       style="fill:#a6c2d7;fill-opacity:1" />
    <path
       d="m 1402.5433,786.65894 a 131.09827,137.34103 0 1 1 -262.1965,0 131.09827,137.34103 0 1 1 262.1965,0 z"
       transform="matrix(0.86531299,0,0,0.86531299,200.38008,89.305341)"
       id="path3881"
       style="fill:#93acbf;fill-opacity:1;stroke:none" />
  </g>
</svg>
