<?xml version="1.0" encoding="UTF-8" standalone="no"?>
<!-- Created with Inkscape (http://www.inkscape.org/) -->

<svg
   xmlns:dc="http://purl.org/dc/elements/1.1/"
   xmlns:cc="http://creativecommons.org/ns#"
   xmlns:rdf="http://www.w3.org/1999/02/22-rdf-syntax-ns#"
   xmlns:svg="http://www.w3.org/2000/svg"
   xmlns="http://www.w3.org/2000/svg"
   xmlns:xlink="http://www.w3.org/1999/xlink"
   version="1.1"
   width="949.03339"
   height="1322.3907"
   id="svg3158">
  <title
     id="title3232">Generic Cassette Tape</title>
  <metadata
     id="metadata3164">
    <rdf:RDF>
      <cc:Work
         rdf:about="">
        <dc:format>image/svg+xml</dc:format>
        <dc:type
           rdf:resource="http://purl.org/dc/dcmitype/StillImage" />
        <dc:title>Generic Cassette Tape</dc:title>
        <dc:date>12/12/2012</dc:date>
        <dc:creator>
          <cc:Agent>
            <dc:title>Akop Karapetyan</dc:title>
          </cc:Agent>
        </dc:creator>
        <dc:source>http://www.cocoamsx.com/</dc:source>
        <cc:license
           rdf:resource="http://creativecommons.org/licenses/by-sa/3.0/" />
        <dc:subject>
          <rdf:Bag>
            <rdf:li>msx</rdf:li>
            <rdf:li>cassette</rdf:li>
            <rdf:li>cocoamsx</rdf:li>
          </rdf:Bag>
        </dc:subject>
      </cc:Work>
      <cc:License
         rdf:about="http://creativecommons.org/licenses/by-sa/3.0/">
        <cc:permits
           rdf:resource="http://creativecommons.org/ns#Reproduction" />
        <cc:permits
           rdf:resource="http://creativecommons.org/ns#Distribution" />
        <cc:requires
           rdf:resource="http://creativecommons.org/ns#Notice" />
        <cc:requires
           rdf:resource="http://creativecommons.org/ns#Attribution" />
        <cc:permits
           rdf:resource="http://creativecommons.org/ns#DerivativeWorks" />
        <cc:requires
           rdf:resource="http://creativecommons.org/ns#ShareAlike" />
      </cc:License>
    </rdf:RDF>
  </metadata>
  <defs
     id="defs3162">
    <linearGradient
       id="linearGradient6398">
      <stop
         id="stop6400"
         style="stop-color:#d3d3d3;stop-opacity:1"
         offset="0" />
      <stop
         id="stop6402"
         style="stop-color:#e5e5e5;stop-opacity:1"
         offset="1" />
    </linearGradient>
    <linearGradient
       id="linearGradient4865">
      <stop
         id="stop4867"
         style="stop-color:#323232;stop-opacity:1"
         offset="0" />
      <stop
         id="stop4869"
         style="stop-color:#0f0f0f;stop-opacity:1"
         offset="1" />
    </linearGradient>
    <linearGradient
       id="linearGradient4787">
      <stop
         id="stop4789"
         style="stop-color:#d3d3d3;stop-opacity:1"
         offset="0" />
      <stop
         id="stop4791"
         style="stop-color:#898989;stop-opacity:1"
         offset="1" />
    </linearGradient>
    <linearGradient
       id="linearGradient4418">
      <stop
         id="stop4420"
         style="stop-color:#666666;stop-opacity:1"
         offset="0" />
      <stop
         id="stop4422"
         style="stop-color:#191919;stop-opacity:1"
         offset="1" />
    </linearGradient>
    <linearGradient
       id="linearGradient3250">
      <stop
         id="stop3252"
         style="stop-color:#343434;stop-opacity:1"
         offset="0" />
      <stop
         id="stop3254"
         style="stop-color:#000000;stop-opacity:1"
         offset="1" />
    </linearGradient>
    <radialGradient
       cx="623.67145"
       cy="2346.6023"
       r="159.9375"
       fx="623.67145"
       fy="2346.6023"
       id="radialGradient4520"
       xlink:href="#linearGradient3250"
       gradientUnits="userSpaceOnUse"
       gradientTransform="matrix(1.5498563,0,0,0.346583,3578.1882,1021.0405)" />
    <linearGradient
       x1="561.16034"
       y1="2458.1611"
       x2="518.45825"
       y2="2457.875"
       id="linearGradient4523"
       xlink:href="#linearGradient4787"
       gradientUnits="userSpaceOnUse"
       gradientTransform="matrix(-1.5498563,0,0,1.5498563,5497.1525,-1933.2023)" />
    <linearGradient
       x1="561.16034"
       y1="2458.1611"
       x2="518.45825"
       y2="2457.875"
       id="linearGradient4526"
       xlink:href="#linearGradient4787"
       gradientUnits="userSpaceOnUse"
       gradientTransform="matrix(1.5498563,0,0,1.5498563,3578.1882,-1933.2023)" />
    <radialGradient
       cx="621.914"
       cy="2516.2188"
       r="168.96875"
       fx="621.914"
       fy="2516.2188"
       id="radialGradient4530"
       xlink:href="#linearGradient4418"
       gradientUnits="userSpaceOnUse"
       gradientTransform="matrix(1.5498563,0,0,0.3922655,3578.1882,908.88203)" />
    <radialGradient
       cx="629.35333"
       cy="2371.9175"
       r="176.54012"
       fx="629.35333"
       fy="2371.9175"
       id="radialGradient4539"
       xlink:href="#linearGradient4418"
       gradientUnits="userSpaceOnUse"
       gradientTransform="matrix(1.5498563,0,0,0.44209837,3578.1882,786.53389)" />
    <radialGradient
       cx="481.27414"
       cy="2623.5115"
       r="201.1875"
       fx="481.27414"
       fy="2623.5115"
       id="radialGradient4546"
       xlink:href="#linearGradient4418"
       gradientUnits="userSpaceOnUse"
       gradientTransform="matrix(1.7229497,0,8.4232072e-5,0.33778163,3710.3285,1198.8518)" />
    <radialGradient
       cx="289.80881"
       cy="2185.8489"
       r="302.29688"
       fx="289.80881"
       fy="2185.8489"
       id="radialGradient4550"
       xlink:href="#linearGradient4865"
       gradientUnits="userSpaceOnUse"
       gradientTransform="matrix(6.4887959e-8,0.90384219,-1.9089596,7.7619647e-8,8694.0619,1448.4823)" />
    <radialGradient
       cx="623.67145"
       cy="2346.6023"
       r="159.9375"
       fx="623.67145"
       fy="2346.6023"
       id="radialGradient26588"
       xlink:href="#linearGradient3250"
       gradientUnits="userSpaceOnUse"
       gradientTransform="matrix(1.5498563,0,0,0.346583,-478.9654,-537.36043)" />
    <linearGradient
       x1="561.16034"
       y1="2458.1611"
       x2="518.45825"
       y2="2457.875"
       id="linearGradient26591"
       xlink:href="#linearGradient4787"
       gradientUnits="userSpaceOnUse"
       gradientTransform="matrix(-1.5498563,0,0,1.5498563,1439.9989,-3491.6032)" />
    <linearGradient
       x1="561.16034"
       y1="2458.1611"
       x2="518.45825"
       y2="2457.875"
       id="linearGradient26594"
       xlink:href="#linearGradient4787"
       gradientUnits="userSpaceOnUse"
       gradientTransform="matrix(1.5498563,0,0,1.5498563,-478.9654,-3491.6032)" />
    <radialGradient
       cx="621.914"
       cy="2516.2188"
       r="168.96875"
       fx="621.914"
       fy="2516.2188"
       id="radialGradient26598"
       xlink:href="#linearGradient4418"
       gradientUnits="userSpaceOnUse"
       gradientTransform="matrix(1.5498563,0,0,0.3922655,-478.9654,-649.51888)" />
    <radialGradient
       cx="495.18384"
       cy="2434.8691"
       r="38.339569"
       fx="495.18384"
       fy="2434.8691"
       id="radialGradient26601"
       xlink:href="#linearGradient6398"
       gradientUnits="userSpaceOnUse"
       gradientTransform="matrix(3.0882266,-2.302578e-7,1.3195412e-7,1.7697739,-855.27294,-4027.6827)" />
    <radialGradient
       cx="495.18384"
       cy="2434.8691"
       r="38.339569"
       fx="495.18384"
       fy="2434.8691"
       id="radialGradient26604"
       xlink:href="#linearGradient6398"
       gradientUnits="userSpaceOnUse"
       gradientTransform="matrix(3.0882266,-2.302578e-7,1.3195412e-7,1.7697739,-1239.6373,-4027.6827)" />
    <radialGradient
       cx="629.35333"
       cy="2371.9175"
       r="176.54012"
       fx="629.35333"
       fy="2371.9175"
       id="radialGradient26607"
       xlink:href="#linearGradient4418"
       gradientUnits="userSpaceOnUse"
       gradientTransform="matrix(1.5498563,0,0,0.44209837,-478.9654,-771.86702)" />
    <radialGradient
       cx="346.76907"
       cy="2274.2214"
       r="268.07812"
       fx="346.76907"
       fy="2274.2214"
       id="radialGradient26611"
       xlink:href="#linearGradient4418"
       gradientUnits="userSpaceOnUse"
       gradientTransform="matrix(0.50195469,-2.0353014e-8,2.2151284e-8,0.5463044,-47.5049,-1056.6316)" />
    <radialGradient
       cx="481.27414"
       cy="2623.5115"
       r="201.1875"
       fx="481.27414"
       fy="2623.5115"
       id="radialGradient26614"
       xlink:href="#linearGradient4418"
       gradientUnits="userSpaceOnUse"
       gradientTransform="matrix(1.7229497,0,8.4232072e-5,0.33778163,-346.8251,-359.54914)" />
    <radialGradient
       cx="289.80881"
       cy="2185.8489"
       r="302.29688"
       fx="289.80881"
       fy="2185.8489"
       id="radialGradient26618"
       xlink:href="#linearGradient4865"
       gradientUnits="userSpaceOnUse"
       gradientTransform="matrix(6.4887959e-8,0.90384219,-1.9089596,7.7619647e-8,4636.9083,-109.91859)" />
  </defs>
  <g
     transform="translate(-4069.1536,-872.40091)"
     id="g4560">
    <path
       d="m 4146.6949,1604.6353 c -3.1354,0 -5.6608,2.4035 -5.9089,5.473 l -30.6096,0 c -18.5866,0 -33.5641,14.9288 -33.5641,33.5157 l 0,340.3386 -2.0826,0 c -2.9727,0 -5.3761,2.355 -5.3761,5.3277 l 0,146.2677 c 0,2.9726 2.4034,5.3761 5.3761,5.3761 l 2.0826,0 0,20.0996 c 0,18.5867 14.9775,33.5157 33.5641,33.5157 l 117.5469,0 29.3988,-138.3247 560.0793,0 30.2707,138.3247 116.2392,0 c 18.5866,0 33.5156,-14.929 33.5156,-33.5157 l 0,-20.0996 3.5841,0 c 2.9727,0 5.376,-2.4035 5.376,-5.3761 l 0,-146.2677 c 0,-2.9727 -2.4033,-5.3277 -5.376,-5.3277 l -3.5841,0 0,-340.3386 c 0,-18.5872 -14.929,-33.5157 -33.5156,-33.5157 l -27.7521,0 c -0.2471,-3.0704 -2.7728,-5.473 -5.9088,-5.473 l -85.9202,0 c -3.1354,0 -5.6608,2.4035 -5.9088,5.473 l -599.6976,0 c -0.2471,-3.0704 -2.7728,-5.473 -5.9088,-5.473 l -85.9201,0 z m 195.8146,191.8916 389.7889,0 c 41.9528,0 75.7008,33.7963 75.7008,75.7492 0,41.9529 -33.748,75.7009 -75.7008,75.7009 l -389.7889,0 c -41.9528,0 -75.7008,-33.748 -75.7008,-75.7009 0,-41.9529 33.748,-75.7492 75.7008,-75.7492 z"
       id="path4434"
       style="fill:url(#radialGradient4550);fill-opacity:1;stroke:none" />
    <path
       d="m 4257.1221,2056.5636 -30.1737,137.4531 621.2986,0 -31.0456,-137.4531 -560.0793,0 z m 155.0341,68.1454 c 10.9103,0 19.7607,8.8503 19.7607,19.7606 0,10.9104 -8.8504,19.7607 -19.7607,19.7607 -10.9103,0 -19.7607,-8.8503 -19.7607,-19.7607 0,-10.9103 8.8504,-19.7606 19.7607,-19.7606 z m 254.1764,0 c 10.9104,0 19.7607,8.8503 19.7607,19.7606 0,10.9104 -8.8503,19.7607 -19.7607,19.7607 -10.9103,0 -19.7606,-8.8503 -19.7606,-19.7607 0,-10.9103 8.8503,-19.7606 19.7606,-19.7606 z m -347.1678,11.7207 c 12.9885,0 23.49,10.5499 23.49,23.5385 0,12.9886 -10.5015,23.5384 -23.49,23.5384 -12.9885,0 -23.5384,-10.5498 -23.5384,-23.5384 0,-12.9886 10.5499,-23.5385 23.5384,-23.5385 z m 440.1592,0 c 12.9885,0 23.49,10.5499 23.49,23.5385 0,12.9886 -10.5015,23.5384 -23.49,23.5384 -12.9885,0 -23.5384,-10.5498 -23.5384,-23.5384 0,-12.9886 10.5499,-23.5385 23.5384,-23.5385 z"
       id="path4436"
       style="fill:#000000;fill-opacity:1;stroke:#333333;stroke-width:1.54985631;stroke-opacity:1" />
    <path
       d="m 4848.247,2190.2178 -31.0456,-133.6542 -560.0793,0 -30.1737,133.6542"
       id="path4438"
       style="fill:none;stroke:url(#radialGradient4546);stroke-width:6.11315727;stroke-linecap:round;stroke-linejoin:round;stroke-miterlimit:4;stroke-dasharray:none" />
    <path
       d="m 4163.937,1661.0598 -36.3732,36.0826 0,329.3928 c 0,4.0567 3.2745,7.3618 7.3618,7.3618 l 799.9196,0 c 4.0874,0 7.4103,-3.3051 7.4103,-7.3618 l 0,-336.1251 -29.641,-29.3503 -748.6775,0 z m 178.3788,127.3787 391.3387,0 c 46.0352,0 83.111,37.0275 83.111,83.0627 0,46.0352 -37.0758,83.111 -83.111,83.111 l -391.3387,0 c -46.0352,0 -83.1111,-37.0758 -83.1111,-83.111 0,-46.0352 37.0759,-83.0627 83.1111,-83.0627 z"
       id="path4442"
       style="fill:#f2f2f2;fill-opacity:1;stroke:none" />
    <path
       d="m 4342.9454,1793.9115 c -43.2386,0 -78.0256,34.8353 -78.0256,78.074 0,43.2387 34.787,78.0255 78.0256,78.0255 l 391.145,0 c 43.2387,0 78.0256,-34.7868 78.0256,-78.0255 0,-43.2387 -34.7869,-78.074 -78.0256,-78.074 l -391.145,0 z m 0.4359,13.5127 390.2732,0 c 35.7456,0 64.5128,28.8157 64.5128,64.5613 0,35.7456 -28.7672,64.5128 -64.5128,64.5128 l -390.2732,0 c -35.7456,0 -64.5128,-28.7672 -64.5128,-64.5128 0,-35.7456 28.7672,-64.5613 64.5128,-64.5613 z"
       id="path4444"
       style="fill:url(#radialGradient4539);fill-opacity:1;stroke:none" />
    <path
       d="m 4342.9454,1805.6806 c -36.7283,0 -66.3048,29.5766 -66.3048,66.3049 0,36.7284 29.5765,66.2564 66.3048,66.2564 l 391.145,0 c 36.7283,0 66.3048,-29.528 66.3048,-66.2564 0,-36.7283 -29.5765,-66.3049 -66.3048,-66.3049 l -391.145,0 z m 4.02,11.721 383.1051,0 c 30.2179,0 54.584,24.3175 54.584,54.5354 0,30.218 -24.3661,54.5841 -54.584,54.5841 l -383.1051,0 c -30.218,0 -54.584,-24.3661 -54.584,-54.5841 0,-30.2179 24.366,-54.5354 54.584,-54.5354 z"
       id="path4450"
       style="fill:url(#radialGradient4530);fill-opacity:1;stroke:none" />
    <path
       d="m 4413.2217,1816.7234 0,110.9601 149.5611,0 c 5.6153,-16.8952 8.6696,-34.9804 8.6696,-53.7607 0,-20.081 -3.4974,-39.3107 -9.8804,-57.1994 l -148.3503,0 z"
       id="path4452"
       style="fill:#28170b;fill-opacity:1;stroke:none" />
    <path
       d="m 4413.2217,1825.5867 0,92.4102 23.2963,0 c 5.546,-12.8249 8.6211,-26.9829 8.6211,-41.8461 0,-18.3164 -4.6735,-35.5542 -12.8832,-50.5641 l -19.0342,0 z"
       id="path4454"
       style="fill:url(#linearGradient4526);fill-opacity:1;stroke:none" />
    <path
       d="m 4642.8426,1826.071 c -8.0506,14.8986 -12.641,31.9548 -12.641,50.0798 0,16.4452 3.7506,31.9941 10.4615,45.8661 l 21.4558,0 0,-95.9459 -19.2763,0 z"
       id="path4456"
       style="fill:url(#linearGradient4523);fill-opacity:1;stroke:none" />
    <path
       d="m 4346.0451,1816.5296 c -30.7092,0 -55.4073,24.6986 -55.4073,55.4074 0,30.7096 24.6981,55.4559 55.4073,55.4559 l 384.9456,0 c 30.7093,0 55.4074,-24.7466 55.4074,-55.4559 0,-30.709 -24.6981,-55.4074 -55.4074,-55.4074 l -384.9456,0 z m 0.6297,3.0998 c 28.8997,0 52.356,23.4081 52.356,52.3076 0,28.8999 -23.4563,52.3562 -52.356,52.3562 -28.8998,0 -52.3077,-23.4562 -52.3077,-52.3562 0,-28.8995 23.4079,-52.3076 52.3077,-52.3076 z m 384.3643,0 c 28.8998,0 52.3561,23.4081 52.3561,52.3076 0,28.8999 -23.4563,52.3562 -52.3561,52.3562 -28.8998,0 -52.3076,-23.4562 -52.3076,-52.3562 0,-28.8995 23.4078,-52.3076 52.3076,-52.3076 z m -265.4613,12.2051 145.8802,0 c 22.2335,0 40.151,17.869 40.151,40.1025 0,22.2336 -17.9175,40.151 -40.151,40.151 l -145.8802,0 c -22.2335,0 -40.151,-17.9174 -40.151,-40.151 0,-22.2335 17.9175,-40.1025 40.151,-40.1025 z"
       id="path4458"
       style="fill:url(#radialGradient4520);fill-opacity:1;stroke:none" />
    <path
       d="m 4163.937,1661.0598 -36.3732,36.0826 0,14.1907 814.6917,0 0,-20.923 -29.641,-29.3503 -748.6775,0 z"
       id="path4464"
       style="fill:#256291;fill-opacity:1;stroke:none" />
    <path
       d="m 4127.5638,1971.6606 0,45.2365 389.9342,0 45.2848,-45.2365 -435.219,0 z"
       id="path4472"
       style="fill:#256291;fill-opacity:1;stroke:none" />
    <rect
       width="51.5625"
       height="51.5625"
       x="4164.0625"
       y="1858.0625"
       id="rect4552"
       style="fill:#b3b3b3;fill-opacity:1;stroke-width:0;stroke-miterlimit:4;stroke-dasharray:none" />
    <rect
       width="148.4375"
       height="35.9375"
       x="4165.625"
       y="1722.125"
       id="rect4558"
       style="fill:#b3b3b3;fill-opacity:1;stroke-width:0;stroke-miterlimit:4;stroke-dasharray:none" />
  </g>
  <g
     id="g26677">
    <path
       d="m 89.5413,46.23439 c -3.1354,0 -5.6608,2.40352 -5.9089,5.47301 l -30.6096,0 c -18.5866,0 -33.5641,14.92884 -33.5641,33.51564 l 0,340.33868 -2.0826,0 c -2.9727,0 -5.3761,2.35501 -5.3761,5.32763 l 0,146.26774 c 0,2.9726 2.4034,5.3761 5.3761,5.3761 l 2.0826,0 0,20.0996 c 0,18.5867 14.9775,33.5157 33.5641,33.5157 l 117.5469,0 29.3988,-138.32472 560.0793,0 30.2707,138.32472 116.2392,0 c 18.5866,0 33.5156,-14.929 33.5156,-33.5157 l 0,-20.0996 3.5841,0 c 2.9727,0 5.376,-2.4035 5.376,-5.3761 l 0,-146.26774 c 0,-2.97262 -2.4033,-5.32763 -5.376,-5.32763 l -3.5841,0 0,-340.33868 c 0,-18.58711 -14.929,-33.51564 -33.5156,-33.51564 l -27.7521,0 c -0.2471,-3.07042 -2.7728,-5.47301 -5.9088,-5.47301 l -85.9202,0 c -3.1354,0 -5.6608,2.40352 -5.9088,5.47301 l -599.6976,0 c -0.2471,-3.07042 -2.7728,-5.47301 -5.9088,-5.47301 l -85.9201,0 z m 195.8146,191.89159 389.7889,0 c 41.9528,0 75.7008,33.79632 75.7008,75.74922 0,41.95291 -33.748,75.70087 -75.7008,75.70087 l -389.7889,0 c -41.9528,0 -75.7008,-33.74796 -75.7008,-75.70087 0,-41.9529 33.748,-75.74922 75.7008,-75.74922 z"
       id="path3284"
       style="fill:url(#radialGradient26618);fill-opacity:1;stroke:none" />
    <path
       d="m 199.9685,498.16273 -30.1737,137.45306 621.2986,0 -31.0456,-137.45306 -560.0793,0 z m 155.0341,68.14536 c 10.9103,0 19.7607,8.8503 19.7607,19.7606 0,10.9104 -8.8504,19.7607 -19.7607,19.7607 -10.9103,0 -19.7607,-8.8503 -19.7607,-19.7607 0,-10.9103 8.8504,-19.7606 19.7607,-19.7606 z m 254.1764,0 c 10.9104,0 19.7607,8.8503 19.7607,19.7606 0,10.9104 -8.8503,19.7607 -19.7607,19.7607 -10.9103,0 -19.7606,-8.8503 -19.7606,-19.7607 0,-10.9103 8.8503,-19.7606 19.7606,-19.7606 z m -347.1678,11.7207 c 12.9885,0 23.49,10.5499 23.49,23.5385 0,12.9886 -10.5015,23.5384 -23.49,23.5384 -12.9885,0 -23.5384,-10.5498 -23.5384,-23.5384 0,-12.9886 10.5499,-23.5385 23.5384,-23.5385 z m 440.1592,0 c 12.9885,0 23.49,10.5499 23.49,23.5385 0,12.9886 -10.5015,23.5384 -23.49,23.5384 -12.9885,0 -23.5384,-10.5498 -23.5384,-23.5384 0,-12.9886 10.5499,-23.5385 23.5384,-23.5385 z"
       id="path3286"
       style="fill:#000000;fill-opacity:1;stroke:#333333;stroke-width:1.54985631;stroke-opacity:1" />
    <path
       d="m 791.0934,631.81689 -31.0456,-133.65416 -560.0793,0 -30.1737,133.65416"
       id="path3288"
       style="fill:none;stroke:url(#radialGradient26614);stroke-width:6.11315727;stroke-linecap:round;stroke-linejoin:round;stroke-miterlimit:4;stroke-dasharray:none" />
    <path
       d="m 99.3732,95.78128 -37.0997,37.09984 0,338.54658 c 0,4.16943 3.3379,7.55555 7.5071,7.55555 l 815.9025,0 c 4.1692,0 7.5555,-3.38628 7.5555,-7.55555 l 0,-345.47257 -30.2222,-30.17385 -763.6432,0 z"
       id="path3290"
       style="fill:none;stroke:url(#radialGradient26611);stroke-width:2.32478452;stroke-miterlimit:4;stroke-dasharray:none" />
    <path
       d="m 106.7834,102.65893 -36.3732,36.08251 0,329.39282 c 0,4.05675 3.2745,7.36182 7.3618,7.36182 l 799.9196,0 c 4.0874,0 7.4103,-3.30507 7.4103,-7.36182 l 0,-336.12509 -29.641,-29.35024 -748.6775,0 z m 178.3788,127.37866 391.3387,0 c 46.0352,0 83.111,37.02746 83.111,83.06268 0,46.03523 -37.0758,83.11105 -83.111,83.11105 l -391.3387,0 c -46.0352,0 -83.1111,-37.07582 -83.1111,-83.11105 0,-46.03522 37.0759,-83.06268 83.1111,-83.06268 z"
       id="path3292"
       style="fill:#f2f2f2;fill-opacity:1;stroke:none" />
    <path
       d="m 285.7918,235.51059 c -43.2386,0 -78.0256,34.83535 -78.0256,78.07401 0,43.23867 34.787,78.02551 78.0256,78.02551 l 391.145,0 c 43.2387,0 78.0256,-34.78684 78.0256,-78.02551 0,-43.23866 -34.7869,-78.07401 -78.0256,-78.07401 l -391.145,0 z m 0.4359,13.51274 390.2732,0 c 35.7456,0 64.5128,28.8157 64.5128,64.56127 0,35.74558 -28.7672,64.51277 -64.5128,64.51277 l -390.2732,0 c -35.7456,0 -64.5128,-28.76719 -64.5128,-64.51277 0,-35.74557 28.7672,-64.56127 64.5128,-64.56127 z"
       id="path3294"
       style="fill:url(#radialGradient26607);fill-opacity:1;stroke:none" />
    <path
       d="m 290.4898,255.32613 c -32.819,0 -59.4208,26.60188 -59.4208,59.42087 0,32.81898 26.6018,59.42087 59.4208,59.42087 32.819,0 59.4208,-26.60189 59.4208,-59.42087 0,-32.81899 -26.6018,-59.42087 -59.4208,-59.42087 z m -14.2783,16.4418 c 0.9933,0.0232 1.9706,0.17064 2.8845,0.43257 0.8757,0.25061 1.2981,2.37965 1.2981,2.37965 l 2.9566,11.6825 14.3504,0 2.9566,-11.6825 c 0,0 0.3502,-2.12904 1.2259,-2.37965 7.3111,-2.09246 17.9165,4.01567 19.7589,11.39377 0.2208,0.88403 -1.4423,2.30773 -1.4423,2.30773 l -8.5814,8.36504 7.1392,12.47557 11.6101,-3.31747 c 0,0 2.0851,-0.70534 2.7403,-0.0713 5.4671,5.28547 5.4671,17.50206 0,22.78754 -0.6552,0.63342 -2.7403,-0.0713 -2.7403,-0.0713 l -11.6101,-3.31747 -7.1392,12.47557 8.5814,8.36504 c 0,0 1.663,1.42355 1.4423,2.30774 -1.8424,7.37809 -12.4478,13.55845 -19.7589,11.46568 -0.8757,-0.25061 -1.2259,-2.45156 -1.2259,-2.45156 l -2.9566,-11.68251 -14.3504,0 -2.9566,11.68251 c 0,0 -0.4224,2.20126 -1.2981,2.45156 -7.3111,2.09277 -17.9164,-4.08759 -19.7588,-11.46568 -0.2209,-0.88419 1.4422,-2.30774 1.4422,-2.30774 l 8.6535,-8.36504 -7.2112,-12.47557 -11.5381,3.31747 c 0,0 -2.0851,0.70534 -2.7402,0.0713 -5.4671,-5.28548 -5.4671,-17.50207 0,-22.78754 0.6551,-0.63343 2.7402,0.0713 2.7402,0.0713 l 11.5381,3.31747 7.2112,-12.47557 -8.6535,-8.36504 c 0,0 -1.663,-1.4237 -1.4422,-2.30773 1.6121,-6.45562 9.9215,-11.95591 16.8743,-11.82634 z"
       id="path3296"
       style="fill:url(#radialGradient26604);fill-opacity:1;stroke:none" />
    <path
       d="m 674.8542,255.32613 c -32.819,0 -59.4208,26.60188 -59.4208,59.42087 0,32.81898 26.6018,59.42087 59.4208,59.42087 32.819,0 59.4208,-26.60189 59.4208,-59.42087 0,-32.81899 -26.6018,-59.42087 -59.4208,-59.42087 z m -14.2783,16.4418 c 0.9932,0.0232 1.9706,0.17064 2.8845,0.43257 0.8757,0.25061 1.298,2.37965 1.298,2.37965 l 2.9566,11.6825 14.3504,0 2.9567,-11.6825 c 0,0 0.3502,-2.12904 1.2259,-2.37965 7.3111,-2.09246 17.9164,4.01567 19.7589,11.39377 0.2208,0.88403 -1.4423,2.30773 -1.4423,2.30773 l -8.5814,8.36504 7.1391,12.47557 11.6102,-3.31747 c 0,0 2.0851,-0.70534 2.7403,-0.0713 5.467,5.28547 5.467,17.50206 0,22.78754 -0.6552,0.63342 -2.7403,-0.0713 -2.7403,-0.0713 l -11.6102,-3.31747 -7.1391,12.47557 8.5814,8.36504 c 0,0 1.663,1.42355 1.4423,2.30774 -1.8425,7.37809 -12.4478,13.55845 -19.7589,11.46568 -0.8757,-0.25061 -1.2259,-2.45156 -1.2259,-2.45156 l -2.9567,-11.68251 -14.3504,0 -2.9566,11.68251 c 0,0 -0.4223,2.20126 -1.298,2.45156 -7.3111,2.09277 -17.9164,-4.08759 -19.7589,-11.46568 -0.2208,-0.88419 1.4423,-2.30774 1.4423,-2.30774 l 8.6535,-8.36504 -7.2113,-12.47557 -11.538,3.31747 c 0,0 -2.0851,0.70534 -2.7403,0.0713 -5.4671,-5.28548 -5.4671,-17.50207 0,-22.78754 0.6552,-0.63343 2.7403,0.0713 2.7403,0.0713 l 11.538,3.31747 7.2113,-12.47557 -8.6535,-8.36504 c 0,0 -1.663,-1.4237 -1.4423,-2.30773 1.6122,-6.45562 9.9216,-11.95591 16.8744,-11.82634 z"
       id="path3298"
       style="fill:url(#radialGradient26601);fill-opacity:1;stroke:none" />
    <path
       d="m 285.7918,247.27974 c -36.7283,0 -66.3048,29.57652 -66.3048,66.30486 0,36.72834 29.5765,66.25636 66.3048,66.25636 l 391.145,0 c 36.7283,0 66.3048,-29.52802 66.3048,-66.25636 0,-36.72834 -29.5765,-66.30486 -66.3048,-66.30486 l -391.145,0 z m 4.02,11.72094 383.1051,0 c 30.2179,0 54.584,24.31756 54.584,54.53541 0,30.21802 -24.3661,54.58408 -54.584,54.58408 l -383.1051,0 c -30.218,0 -54.584,-24.36606 -54.584,-54.58408 0,-30.21785 24.366,-54.53541 54.584,-54.53541 z"
       id="path3300"
       style="fill:url(#radialGradient26598);fill-opacity:1;stroke:none" />
    <path
       d="m 356.0681,258.32246 0,110.96011 149.5611,0 c 5.6153,-16.89514 8.6696,-34.98042 8.6696,-53.76065 0,-20.08102 -3.4974,-39.31071 -9.8804,-57.19946 l -148.3503,0 z"
       id="path3302"
       style="fill:#28170b;fill-opacity:1;stroke:none" />
    <path
       d="m 356.0681,267.18578 0,92.41018 23.2963,0 c 5.546,-12.8249 8.6211,-26.98284 8.6211,-41.84612 0,-18.31635 -4.6735,-35.55417 -12.8832,-50.56406 l -19.0342,0 z"
       id="path3304"
       style="fill:url(#linearGradient26594);fill-opacity:1;stroke:none" />
    <path
       d="m 585.689,267.67011 c -8.0506,14.89862 -12.641,31.95478 -12.641,50.07973 0,16.44522 3.7506,31.99415 10.4615,45.86614 l 21.4558,0 0,-95.94587 -19.2763,0 z"
       id="path3306"
       style="fill:url(#linearGradient26591);fill-opacity:1;stroke:none" />
    <path
       d="m 288.8915,258.12873 c -30.7092,0 -55.4073,24.69851 -55.4073,55.40736 0,30.70963 24.6981,55.45588 55.4073,55.45588 l 384.9456,0 c 30.7093,0 55.4074,-24.74656 55.4074,-55.45588 0,-30.709 -24.6981,-55.40736 -55.4074,-55.40736 l -384.9456,0 z m 0.6297,3.09971 c 28.8997,0 52.356,23.4081 52.356,52.30765 0,28.89986 -23.4563,52.35616 -52.356,52.35616 -28.8998,0 -52.3077,-23.45614 -52.3077,-52.35616 0,-28.89955 23.4079,-52.30765 52.3077,-52.30765 z m 384.3643,0 c 28.8998,0 52.3561,23.4081 52.3561,52.30765 0,28.89986 -23.4563,52.35616 -52.3561,52.35616 -28.8998,0 -52.3076,-23.45614 -52.3076,-52.35616 0,-28.89955 23.4078,-52.30765 52.3076,-52.30765 z m -265.4613,12.20512 145.8802,0 c 22.2335,0 40.151,17.86907 40.151,40.10253 0,22.23362 -17.9175,40.15105 -40.151,40.15105 l -145.8802,0 c -22.2335,0 -40.151,-17.91743 -40.151,-40.15105 0,-22.23346 17.9175,-40.10253 40.151,-40.10253 z"
       id="path3308"
       style="fill:url(#radialGradient26588);fill-opacity:1;stroke:none" />
    <g
       id="text3310"
       style="font-size:61.99425125px;font-style:normal;font-weight:normal;line-height:125%;letter-spacing:0px;word-spacing:0px;fill:#000000;fill-opacity:1;stroke:none;font-family:Sans">
      <path
         d="m 137.33184,306.28638 -8.29415,22.49108 16.61858,0 -8.32443,-22.49108 m -3.45085,-6.02386 6.93198,0 17.22399,45.19405 -6.35684,0 -4.1168,-11.59365 -20.37214,0 -4.1168,11.59365 -6.44765,0 17.25426,-45.19405"
         id="path26632" />
    </g>
    <path
       d="m 106.7834,102.65893 -36.3732,36.08251 0,14.19079 814.6917,0 0,-20.92306 -29.641,-29.35024 -748.6775,0 z"
       id="path3314"
       style="fill:#256291;fill-opacity:1;stroke:none" />
    <path
       d="m 70.4102,198.45926 0,4.45584 814.6917,0 0,-4.45584 -814.6917,0 z"
       id="path3316"
       style="fill:#256291;fill-opacity:1;stroke:none" />
    <path
       d="m 70.4102,248.05467 0,4.45583 157.7948,0 c 1.6682,-1.56659 3.3881,-3.03028 5.1823,-4.45583 l -162.9771,0 z m 657.8656,0 c 1.7942,1.42555 3.5141,2.88924 5.1823,4.45583 l 151.6438,0 0,-4.45583 -156.8261,0 z"
       id="path3318"
       style="fill:#256291;fill-opacity:1;stroke:none" />
    <path
       d="m 885.1019,413.25974 -370.3188,0 -45.2849,45.23643 415.6037,0"
       id="path3320"
       style="fill:none;stroke:#256291;stroke-width:4.64956903;stroke-miterlimit:4;stroke-opacity:1;stroke-dasharray:none" />
    <path
       d="m 70.4102,413.25974 0,45.23643 389.9342,0 45.2848,-45.23643 -435.219,0 z"
       id="path3322"
       style="fill:#256291;fill-opacity:1;stroke:none" />
    <path
       d="m 546.04065,438.20351 2.05538,0.51915 c -0.43087,1.68809 -1.20781,2.97711 -2.33084,3.86707 -1.11599,0.88289 -2.48271,1.32434 -4.10016,1.32434 -1.67397,0 -3.03716,-0.33903 -4.08956,-1.01709 -1.04535,-0.68513 -1.84348,-1.67397 -2.39441,-2.96653 -0.54386,-1.29255 -0.81579,-2.68045 -0.81579,-4.16372 0,-1.61745 0.30724,-3.02655 0.92174,-4.2273 0.62155,-1.20778 1.50091,-2.12246 2.63808,-2.74403 1.14423,-0.6286 2.40147,-0.94291 3.77173,-0.94293 1.55388,2e-5 2.86056,0.39555 3.92004,1.18661 1.05946,0.79109 1.79756,1.90353 2.2143,3.33734 l -2.02359,0.47676 c -0.36024,-1.13009 -0.88291,-1.95295 -1.56802,-2.46857 -0.68514,-0.5156 -1.54684,-0.7734 -2.58511,-0.77341 -1.19368,1e-5 -2.19312,0.28607 -2.99831,0.85817 -0.79814,0.57213 -1.35966,1.34201 -1.68456,2.30965 -0.32491,0.96059 -0.48736,1.95297 -0.48736,2.97711 0,1.32082 0.1907,2.47564 0.57212,3.46448 0.38847,0.98178 0.98883,1.71634 1.8011,2.2037 0.81226,0.48736 1.69162,0.73104 2.63809,0.73103 1.15128,10e-6 2.12599,-0.33196 2.92414,-0.9959 0.79812,-0.66393 1.33845,-1.64924 1.62099,-2.95593"
       id="path26635"
       style="font-size:21.69798851px;font-style:normal;font-variant:normal;font-weight:normal;font-stretch:normal;line-height:125%;letter-spacing:0px;word-spacing:0px;fill:#000000;fill-opacity:1;stroke:none;font-family:Arial;-inkscape-font-specification:Arial" />
    <path
       d="m 550.01367,436.08457 c 0,-2.57804 0.69219,-4.59457 2.07657,-6.04959 1.38437,-1.46205 3.17134,-2.19309 5.36093,-2.1931 1.4338,10e-6 2.72636,0.34257 3.87766,1.02768 1.15128,0.68514 2.02711,1.6422 2.62749,2.87117 0.60742,1.22194 0.91113,2.60985 0.91115,4.16373 -2e-5,1.57509 -0.31786,2.98418 -0.95352,4.22729 -0.6357,1.24312 -1.53625,2.18605 -2.70166,2.82879 -1.16543,0.63569 -2.42267,0.95353 -3.77172,0.95353 -1.46208,0 -2.76876,-0.35316 -3.92005,-1.05947 -1.15129,-0.70632 -2.02359,-1.67044 -2.61689,-2.89236 -0.59331,-1.22192 -0.88996,-2.51448 -0.88996,-3.87767 m 2.11895,0.0318 c -10e-6,1.87174 0.50148,3.34794 1.50445,4.4286 1.01002,1.0736 2.27432,1.6104 3.79291,1.61039 1.54682,1e-5 2.81818,-0.54386 3.8141,-1.63158 1.00295,-1.08772 1.50443,-2.63102 1.50445,-4.6299 -2e-5,-1.26429 -0.21544,-2.36614 -0.64628,-3.30555 -0.4238,-0.94645 -1.04889,-1.67748 -1.87527,-2.19311 -0.81933,-0.52265 -1.74107,-0.78399 -2.76522,-0.784 -1.45502,10e-6 -2.70872,0.50149 -3.76113,1.50445 -1.04535,0.99591 -1.56802,2.66281 -1.56801,5.0007"
       id="path26637"
       style="font-size:21.69798851px;font-style:normal;font-variant:normal;font-weight:normal;font-stretch:normal;line-height:125%;letter-spacing:0px;word-spacing:0px;fill:#000000;fill-opacity:1;stroke:none;font-family:Arial;-inkscape-font-specification:Arial" />
    <path
       d="m 578.58763,438.20351 2.05538,0.51915 c -0.43087,1.68809 -1.20781,2.97711 -2.33084,3.86707 -1.11599,0.88289 -2.48271,1.32434 -4.10016,1.32434 -1.67397,0 -3.03716,-0.33903 -4.08956,-1.01709 -1.04535,-0.68513 -1.84348,-1.67397 -2.39441,-2.96653 -0.54386,-1.29255 -0.81579,-2.68045 -0.81579,-4.16372 0,-1.61745 0.30725,-3.02655 0.92174,-4.2273 0.62156,-1.20778 1.50092,-2.12246 2.63809,-2.74403 1.14422,-0.6286 2.40146,-0.94291 3.77172,-0.94293 1.55388,2e-5 2.86056,0.39555 3.92004,1.18661 1.05946,0.79109 1.79756,1.90353 2.2143,3.33734 l -2.02359,0.47676 c -0.36023,-1.13009 -0.88291,-1.95295 -1.56802,-2.46857 -0.68514,-0.5156 -1.54684,-0.7734 -2.58511,-0.77341 -1.19368,1e-5 -2.19312,0.28607 -2.99831,0.85817 -0.79814,0.57213 -1.35966,1.34201 -1.68456,2.30965 -0.32491,0.96059 -0.48736,1.95297 -0.48736,2.97711 0,1.32082 0.19071,2.47564 0.57212,3.46448 0.38847,0.98178 0.98884,1.71634 1.8011,2.2037 0.81226,0.48736 1.69162,0.73104 2.63809,0.73103 1.15128,10e-6 2.12599,-0.33196 2.92414,-0.9959 0.79812,-0.66393 1.33845,-1.64924 1.62099,-2.95593"
       id="path26639"
       style="font-size:21.69798851px;font-style:normal;font-variant:normal;font-weight:normal;font-stretch:normal;line-height:125%;letter-spacing:0px;word-spacing:0px;fill:#000000;fill-opacity:1;stroke:none;font-family:Arial;-inkscape-font-specification:Arial" />
    <path
       d="m 582.56066,436.08457 c 0,-2.57804 0.69218,-4.59457 2.07656,-6.04959 1.38437,-1.46205 3.17135,-2.19309 5.36093,-2.1931 1.43381,10e-6 2.72636,0.34257 3.87767,1.02768 1.15128,0.68514 2.02711,1.6422 2.62749,2.87117 0.60742,1.22194 0.91113,2.60985 0.91115,4.16373 -2e-5,1.57509 -0.31786,2.98418 -0.95353,4.22729 -0.6357,1.24312 -1.53625,2.18605 -2.70165,2.82879 -1.16543,0.63569 -2.42267,0.95353 -3.77172,0.95353 -1.46208,0 -2.76876,-0.35316 -3.92005,-1.05947 -1.1513,-0.70632 -2.02359,-1.67044 -2.6169,-2.89236 -0.5933,-1.22192 -0.88995,-2.51448 -0.88995,-3.87767 m 2.11894,0.0318 c 0,1.87174 0.50148,3.34794 1.50445,4.4286 1.01003,1.0736 2.27433,1.6104 3.79291,1.61039 1.54682,1e-5 2.81819,-0.54386 3.8141,-1.63158 1.00296,-1.08772 1.50444,-2.63102 1.50445,-4.6299 -1e-5,-1.26429 -0.21544,-2.36614 -0.64628,-3.30555 -0.4238,-0.94645 -1.04889,-1.67748 -1.87526,-2.19311 -0.81934,-0.52265 -1.74108,-0.78399 -2.76522,-0.784 -1.45502,10e-6 -2.70873,0.50149 -3.76113,1.50445 -1.04535,0.99591 -1.56802,2.66281 -1.56802,5.0007"
       id="path26641"
       style="font-size:21.69798851px;font-style:normal;font-variant:normal;font-weight:normal;font-stretch:normal;line-height:125%;letter-spacing:0px;word-spacing:0px;fill:#000000;fill-opacity:1;stroke:none;font-family:Arial;-inkscape-font-specification:Arial" />
    <path
       d="m 598.34679,443.6492 5.96482,-15.53186 2.2143,0 6.35683,15.53186 -2.34143,0 -1.8117,-4.70406 -6.49456,0 -1.70575,4.70406 -2.18251,0 m 4.48156,-6.37802 5.26558,0 -1.62099,-4.30146 c -0.49443,-1.30667 -0.86171,-2.38027 -1.10185,-3.22079 -0.19778,0.99591 -0.47677,1.98475 -0.83699,2.96652 l -1.70575,4.55573"
       id="path26643"
       style="font-size:21.69798851px;font-style:normal;font-variant:normal;font-weight:normal;font-stretch:normal;line-height:125%;letter-spacing:0px;word-spacing:0px;fill:#000000;fill-opacity:1;stroke:none;font-family:Arial;-inkscape-font-specification:Arial" />
    <path
       d="m 614.40839,443.6492 0,-15.53186 4.69346,0 2.8182,10.59472 2.78641,-10.59472 4.70405,0 0,15.53186 -2.91354,0 0,-12.22631 -3.08307,12.22631 -3.01949,0 -3.07247,-12.22631 0,12.22631 -2.91355,0"
       id="path26645"
       style="font-size:21.69798851px;font-style:normal;font-variant:normal;font-weight:bold;font-stretch:normal;line-height:125%;letter-spacing:0px;word-spacing:0px;fill:#000000;fill-opacity:1;stroke:none;font-family:Arial;-inkscape-font-specification:Arial Bold" />
    <path
       d="m 631.75194,438.59552 3.05128,-0.29665 c 0.18364,1.02416 0.55446,1.77638 1.11245,2.25667 0.56504,0.4803 1.32433,0.72045 2.27786,0.72044 1.01003,10e-6 1.76931,-0.21189 2.27787,-0.63568 0.5156,-0.43085 0.7734,-0.93233 0.77341,-1.50445 -10e-6,-0.36728 -0.10949,-0.67806 -0.32843,-0.93234 -0.21191,-0.26133 -0.58625,-0.48735 -1.12304,-0.67806 -0.3673,-0.12713 -1.20428,-0.35315 -2.51095,-0.67806 -1.68104,-0.41672 -2.86058,-0.9288 -3.53864,-1.53623 -0.95353,-0.85464 -1.43029,-1.89645 -1.43029,-3.12545 0,-0.79106 0.22249,-1.52916 0.66747,-2.21429 0.45204,-0.69218 1.09832,-1.21838 1.93883,-1.57862 0.84758,-0.3602 1.8682,-0.54031 3.06188,-0.54033 1.94942,2e-5 3.41502,0.42734 4.39681,1.28196 0.98883,0.85466 1.50797,1.99535 1.55742,3.4221 l -3.13604,0.13773 c -0.1342,-0.79812 -0.42379,-1.37024 -0.86876,-1.71635 -0.43793,-0.35314 -1.09833,-0.52972 -1.98122,-0.52973 -0.91115,1e-5 -1.62452,0.18718 -2.14013,0.56152 -0.33197,0.24016 -0.49796,0.56153 -0.49795,0.96412 -10e-6,0.36729 0.15538,0.6816 0.46617,0.94293 0.39553,0.33198 1.35612,0.67807 2.88176,1.03828 1.52563,0.36023 2.6522,0.73458 3.37972,1.12304 0.73455,0.38142 1.30667,0.90762 1.71634,1.57861 0.41671,0.66395 0.62508,1.4868 0.62509,2.46857 -10e-6,0.88996 -0.24722,1.72342 -0.74163,2.50036 -0.49443,0.77695 -1.19368,1.35612 -2.09775,1.73753 -0.9041,0.37435 -2.03067,0.56152 -3.37972,0.56152 -1.96356,0 -3.47154,-0.45204 -4.52395,-1.35612 -1.05241,-0.91115 -1.68103,-2.23548 -1.88586,-3.97302"
       id="path26647"
       style="font-size:21.69798851px;font-style:normal;font-variant:normal;font-weight:bold;font-stretch:normal;line-height:125%;letter-spacing:0px;word-spacing:0px;fill:#000000;fill-opacity:1;stroke:none;font-family:Arial;-inkscape-font-specification:Arial Bold" />
    <path
       d="m 645.46152,443.6492 5.30795,-8.10496 -4.81,-7.4269 3.66577,0 3.11485,4.99011 3.05128,-4.99011 3.63399,0 -4.83119,7.54344 5.30795,7.98842 -3.78231,0 -3.44329,-5.37152 -3.45388,5.37152 -3.76112,0"
       id="path26649"
       style="font-size:21.69798851px;font-style:normal;font-variant:normal;font-weight:bold;font-stretch:normal;line-height:125%;letter-spacing:0px;word-spacing:0px;fill:#000000;fill-opacity:1;stroke:none;font-family:Arial;-inkscape-font-specification:Arial Bold" />
    <path
       d="m 773.54861,315.35203 7.6377,12.97539 0,-12.97539 1.60565,0 0,15.015 -2.1481,0 -7.6377,-12.97539 0,12.97539 -1.60565,0 0,-15.015 2.1481,0"
       id="path26665"
       style="font-size:21.69798851px;font-style:normal;font-variant:normal;font-weight:normal;font-stretch:normal;line-height:125%;letter-spacing:0px;word-spacing:0px;fill:#000000;fill-opacity:1;stroke:none;font-family:Tamil Sangam MN;-inkscape-font-specification:Tamil Sangam MN" />
    <path
       d="m 787.26072,328.28403 0,2.083 -2.03961,0 0,-2.083 2.03961,0"
       id="path26667"
       style="font-size:21.69798851px;font-style:normal;font-variant:normal;font-weight:normal;font-stretch:normal;line-height:125%;letter-spacing:0px;word-spacing:0px;fill:#000000;fill-opacity:1;stroke:none;font-family:Tamil Sangam MN;-inkscape-font-specification:Tamil Sangam MN" />
    <path
       d="m 800.09203,319.62653 c -10e-6,0.73774 -0.18082,1.43931 -0.54245,2.10471 -0.34717,0.66541 -0.86793,1.19339 -1.56225,1.58395 0.39055,0.10126 0.70879,0.25315 0.95471,0.45566 0.2459,0.20252 0.44118,0.44119 0.58585,0.71603 0.14464,0.26038 0.23866,0.54969 0.28207,0.86792 0.0578,0.31824 0.0868,0.63648 0.0868,0.95471 l 0,2.27829 c -10e-6,0.3327 0.0434,0.65094 0.13019,0.95471 0.0868,0.30377 0.2025,0.57861 0.34717,0.82452 l -1.73584,0 c -0.14467,-0.23144 -0.23869,-0.51351 -0.28208,-0.84622 -0.0289,-0.3327 -0.0434,-0.61477 -0.0434,-0.84622 l 0,-2.38678 c -1e-5,-0.2893 -0.0506,-0.57137 -0.15189,-0.84622 -0.10126,-0.2893 -0.26038,-0.54244 -0.47735,-0.75943 -0.21699,-0.23144 -0.49907,-0.41225 -0.84622,-0.54245 -0.34718,-0.14464 -0.77391,-0.21697 -1.28019,-0.21698 l -4.53488,0 0,6.4443 -1.60565,0 0,-15.015 6.14053,0 c 0.73773,10e-6 1.38867,0.1302 1.95282,0.39056 0.56414,0.24593 1.03426,0.5714 1.41037,0.97641 0.39056,0.40504 0.67986,0.86793 0.86792,1.38867 0.2025,0.5063 0.30376,1.01259 0.30377,1.51886 m -9.06976,2.88583 4.53488,0 c 0.39056,10e-6 0.75943,-0.0723 1.1066,-0.21698 0.36163,-0.15911 0.67263,-0.36885 0.93302,-0.62924 0.27483,-0.26037 0.49181,-0.56414 0.65093,-0.91131 0.15911,-0.36163 0.23867,-0.74496 0.23868,-1.15 -1e-5,-0.40502 -0.0723,-0.77388 -0.21698,-1.10659 -0.14466,-0.34716 -0.34717,-0.6437 -0.60754,-0.88962 -0.26039,-0.2459 -0.57139,-0.44118 -0.93301,-0.58585 -0.36165,-0.14464 -0.75221,-0.21696 -1.1717,-0.21698 l -4.53488,0 0,5.70657"
       id="path26669"
       style="font-size:21.69798851px;font-style:normal;font-variant:normal;font-weight:normal;font-stretch:normal;line-height:125%;letter-spacing:0px;word-spacing:0px;fill:#000000;fill-opacity:1;stroke:none;font-family:Tamil Sangam MN;-inkscape-font-specification:Tamil Sangam MN" />
    <path
       d="m 804.1699,328.28403 0,2.083 -2.03961,0 0,-2.083 2.03961,0"
       id="path26671"
       style="font-size:21.69798851px;font-style:normal;font-variant:normal;font-weight:normal;font-stretch:normal;line-height:125%;letter-spacing:0px;word-spacing:0px;fill:#000000;fill-opacity:1;stroke:none;font-family:Tamil Sangam MN;-inkscape-font-specification:Tamil Sangam MN" />
    <path
       d="m 814.4939,328.33288 0,2.03419 58.6644,0 0,-2.03419 -58.6644,0 z"
       id="path3335"
       style="fill:#256291;fill-opacity:1;stroke:none" />
    <path
       d="m 144.6943,170.78216 c -3.5467,0.80003 -7.61337,2.09336 -12.2,3.88 -5.14669,1.97336 -9.52002,4.06669 -13.12,6.28 -5.60001,3.44002 -8.74667,6.84001 -9.44,10.2 -0.34667,1.84001 0.35999,3.20001 2.12,4.08 1.33333,0.66667 3.03999,1 5.12,1 9.49331,0 14.90664,-3.35999 16.24,-10.08 l 0.04,-0.36 c -3.92002,1.38668 -6.36002,2.08001 -7.32,2.08 -1.17335,1e-5 -1.64002,-0.58665 -1.4,-1.76 0.15998,-0.82665 0.66665,-1.35999 1.52,-1.6 0.37331,-0.10665 1.11998,-0.15998 2.24,-0.16 0.18664,2e-5 0.46664,0.0134 0.84,0.04 0.26664,0.0267 0.53331,0.0267 0.8,0 0.55997,-0.0266 2.39997,-0.51998 5.52,-1.48 1.4933,-0.45332 2.54663,-0.66665 3.16,-0.64 l 0.64,0.04 c -0.56003,1.70668 -1.5867,3.61335 -3.08,5.72 -0.6667,0.93334 -2.12003,2.78668 -4.36,5.56 -1.89336,2.34667 -3.22669,4.2 -4,5.56 -0.56002,1.04 -1.24002,1.56 -2.04,1.56 -0.96002,0 -1.54669,-0.37333 -1.76,-1.12 0.26665,-0.66667 0.81331,-1.44 1.64,-2.32 -0.21335,-0.26666 -0.34669,-0.4 -0.4,-0.4 -0.18669,0.0267 -0.38669,0.04 -0.6,0.04 -0.85335,0 -2.84002,0.16 -5.96,0.48 -1.54668,0.16 -2.74668,0.24 -3.6,0.24 -2.34667,0 -4.24001,-0.38666 -5.68,-1.16 -1.92,-1.04 -2.68,-2.58666 -2.28,-4.64 0.56,-2.79999 3.29333,-6.13332 8.2,-10 3.51999,-2.77331 7.89332,-5.54664 13.12,-8.32 6.2133,-3.30664 10.82663,-4.95997 13.84,-4.96 1.59996,3e-5 2.33329,0.7467 2.2,2.24"
       id="path26621"
       style="font-size:40px;font-style:italic;font-variant:normal;font-weight:normal;font-stretch:normal;line-height:125%;letter-spacing:0px;word-spacing:0px;fill:#000000;fill-opacity:1;stroke:none;font-family:Handwriting -Dakota;-inkscape-font-specification:Handwriting -Dakota Italic" />
    <path
       d="m 156.58868,197.94216 c -0.82669,1.28 -1.64002,1.92 -2.44,1.92 -0.90669,0 -1.77335,-0.66667 -2.6,-2 -0.66668,-1.01333 -1.14668,-2.10666 -1.44,-3.28 -2.45335,1.06667 -4.10668,1.76 -4.96,2.08 -2.13334,0.77334 -3.80001,1.16 -5,1.16 -2.10667,0 -2.94667,-1.06666 -2.52,-3.2 0.69333,-3.43999 3.17333,-6.50666 7.44,-9.2 1.41332,-0.87999 3.25332,-1.82665 5.52,-2.84 2.71998,-1.19998 4.59998,-1.79998 5.64,-1.8 0.71998,2e-5 1.31998,0.38668 1.8,1.16 0.50664,0.77335 0.67997,1.53335 0.52,2.28 -0.29336,1.46668 -1.26669,3.40001 -2.92,5.8 -1.62669,2.37334 -2.48002,3.74667 -2.56,4.12 -0.24002,1.28 -0.21335,2.16 0.08,2.64 0.23998,0.4 1.38665,0.78667 3.44,1.16 m 1.28,-13.52 c 0.18664,-0.95998 -0.54669,-1.43998 -2.2,-1.44 -2.42669,2e-5 -4.54668,0.54668 -6.36,1.64 -1.70668,1.01335 -3.52001,2.37335 -5.44,4.08 -2.48001,2.16001 -3.84001,3.86667 -4.08,5.12 -0.16001,0.74667 0.04,1.32 0.6,1.72 0.50666,0.34667 1.15999,0.52 1.96,0.52 2.31999,0 4.46665,-0.81333 6.44,-2.44 0.47998,-0.39999 1.91998,-1.93333 4.32,-4.6 1.46665,-1.65332 2.73331,-2.47999 3.8,-2.48 0.50664,-0.74665 0.82664,-1.45332 0.96,-2.12 m -1.56,14.32 0.04,-0.12 0.08,0 0.04,-0.12 -0.08,0 0.04,-0.24 0.16,0 -0.04,0.08 -0.08,0 0,0.08 0.08,0 -0.08,0.32 -0.16,0"
       id="path26623"
       style="font-size:40px;font-style:italic;font-variant:normal;font-weight:normal;font-stretch:normal;line-height:125%;letter-spacing:0px;word-spacing:0px;fill:#000000;fill-opacity:1;stroke:none;font-family:Handwriting -Dakota;-inkscape-font-specification:Handwriting -Dakota Italic" />
    <path
       d="m 190.81118,185.14216 c -0.26671,1.36001 -1.04004,2.80001 -2.32,4.32 -0.6667,0.77334 -1.6667,1.94667 -3,3.52 -1.6267,1.97334 -2.49336,3.24 -2.6,3.8 -0.0267,0.18667 -0.0534,0.64 -0.08,1.36 -3e-5,0.29333 -0.0267,0.57333 -0.08,0.84 -0.1067,0.58667 -0.56003,1.02667 -1.36,1.32 -1.09336,-0.29333 -1.48003,-1.22667 -1.16,-2.8 0.26664,-1.36 1.0933,-2.89333 2.48,-4.6 2.98663,-3.70666 4.58663,-6.07999 4.8,-7.12 -1.7067,0.48001 -4.05336,1.54668 -7.04,3.2 -1.44003,0.82668 -3.60002,2.05334 -6.48,3.68 -3.38669,1.86667 -5.46668,2.8 -6.24,2.8 l -0.6,-0.12 c 0.18665,-0.58666 1.61332,-1.95999 4.28,-4.12 1.17331,-0.95999 1.86665,-1.97332 2.08,-3.04 0.08,-0.39999 0.08,-0.81332 0,-1.24 -2e-5,-0.0533 -0.10669,-0.45332 -0.32,-1.2 -1.81335,0.82668 -4.00002,2.28001 -6.56,4.36 l -6.24,5.04 c -2.02667,1.65334 -3.57334,2.48 -4.64,2.48 l 0.16,-0.72 c 0.13333,-0.72 1.87999,-2.61333 5.24,-5.68 1.86666,-1.67999 2.99999,-2.82666 3.4,-3.44 0.90665,-1.27999 1.74665,-1.95999 2.52,-2.04 0.55998,-0.0533 2.26665,-0.67999 5.12,-1.88 1.27998,-0.53332 2.15998,-0.79998 2.64,-0.8 1.11998,2e-5 1.75998,0.98668 1.92,2.96 0.0266,0.37335 0.0533,1.18668 0.08,2.44 1.17331,-0.61332 3.31997,-1.69332 6.44,-3.24 2.9333,-1.43998 5.07996,-2.15998 6.44,-2.16 1.03996,2e-5 1.41329,0.69335 1.12,2.08"
       id="path26625"
       style="font-size:40px;font-style:italic;font-variant:normal;font-weight:normal;font-stretch:normal;line-height:125%;letter-spacing:0px;word-spacing:0px;fill:#000000;fill-opacity:1;stroke:none;font-family:Handwriting -Dakota;-inkscape-font-specification:Handwriting -Dakota Italic" />
    <path
       d="m 208.21618,194.98216 c -0.96002,0.88 -2.98669,1.54667 -6.08,2 -2.16001,0.32 -4.33335,0.48 -6.52,0.48 -4.50667,0 -6.50667,-1.29333 -6,-3.88 0.63999,-3.17332 3.53333,-5.89332 8.68,-8.16 1.78665,-0.79999 3.61332,-1.45332 5.48,-1.96 1.62665,0.40002 2.69331,0.69335 3.2,0.88 1.11998,0.40001 1.51998,1.40001 1.2,3 -0.26669,1.41334 -1.38669,2.53334 -3.36,3.36 -1.68002,0.69334 -3.30668,1.04001 -4.88,1.04 -2.45335,10e-6 -4.13334,-0.37333 -5.04,-1.12 -1.46667,0.64001 -2.29334,1.46667 -2.48,2.48 -0.37334,1.78667 1.06666,2.68 4.32,2.68 1.19999,0 2.61332,-0.08 4.24,-0.24 3.83998,-0.37333 6.25331,-0.56 7.24,-0.56 m -2.56,-7.68 c -0.64002,-0.85332 -1.53335,-1.27999 -2.68,-1.28 -0.82668,10e-6 -1.61335,0.17335 -2.36,0.52 -0.0267,0.0267 -0.77335,0.40001 -2.24,1.12 0.53332,1.28001 1.49332,1.92001 2.88,1.92 1.57332,1e-5 3.03998,-0.75999 4.4,-2.28"
       id="path26627"
       style="font-size:40px;font-style:italic;font-variant:normal;font-weight:normal;font-stretch:normal;line-height:125%;letter-spacing:0px;word-spacing:0px;fill:#000000;fill-opacity:1;stroke:none;font-family:Handwriting -Dakota;-inkscape-font-specification:Handwriting -Dakota Italic" />
    <path
       d="m 236.34743,178.46216 c -0.5067,1.25335 -1.68003,2.13335 -3.52,2.64 -1.09336,0.26668 -3.04003,0.73335 -5.84,1.4 -2.42669,0.58668 -4.26668,1.41335 -5.52,2.48 3.19998,0.82668 5.18664,1.40001 5.96,1.72 2.69331,1.09335 3.90664,2.36001 3.64,3.8 -0.42669,2.08001 -2.57336,4.02667 -6.44,5.84 -3.38668,1.57333 -6.22668,2.36 -8.52,2.36 -1.89334,0 -3.48001,-0.73333 -4.76,-2.2 -1.38667,-1.6 -1.84,-3.30666 -1.36,-5.12 l 0.16,-0.6 c 0.69333,0.26668 1.54666,1.38667 2.56,3.36 0.98666,1.84 1.98666,2.76 3,2.76 1.73332,0 4.07998,-0.58666 7.04,-1.76 3.46665,-1.35999 5.34664,-2.77333 5.64,-4.24 0.18664,-1.03999 -0.58669,-1.83999 -2.32,-2.4 -0.08,1e-5 -1.97335,-0.50666 -5.68,-1.52 -2.05335,-0.55999 -3.33335,-1.21332 -3.84,-1.96 0.98665,-0.87998 2.75999,-1.81332 5.32,-2.8 1.65331,-0.63998 4.07998,-1.41331 7.28,-2.32 3.43997,-0.98665 5.47997,-1.58665 6.12,-1.8 0.2933,0.18669 0.6533,0.30669 1.08,0.36"
       id="path26629"
       style="font-size:40px;font-style:italic;font-variant:normal;font-weight:normal;font-stretch:normal;line-height:125%;letter-spacing:0px;word-spacing:0px;fill:#000000;fill-opacity:1;stroke:none;font-family:Handwriting -Dakota;-inkscape-font-specification:Handwriting -Dakota Italic" />
  </g>
  <text
     x="13.741688"
     y="30.390625"
     id="text26564"
     xml:space="preserve"
     style="font-size:40px;font-style:normal;font-weight:normal;line-height:125%;letter-spacing:0px;word-spacing:0px;fill:#000000;fill-opacity:1;stroke:none;font-family:Sans"><tspan
       x="13.741688"
       y="30.390625"
       id="tspan26566">high detail</tspan></text>
  <text
     x="13.741689"
     y="714.39062"
     id="text26568"
     xml:space="preserve"
     style="font-size:40px;font-style:normal;font-weight:normal;line-height:125%;letter-spacing:0px;word-spacing:0px;fill:#000000;fill-opacity:1;stroke:none;font-family:Sans"><tspan
       x="13.741689"
       y="714.39062"
       id="tspan26570">low detail</tspan></text>
</svg>
