<?xml version="1.0" encoding="UTF-8" standalone="no"?>
<!-- Created with Inkscape (http://www.inkscape.org/) -->

<svg
   xmlns:dc="http://purl.org/dc/elements/1.1/"
   xmlns:cc="http://creativecommons.org/ns#"
   xmlns:rdf="http://www.w3.org/1999/02/22-rdf-syntax-ns#"
   xmlns:svg="http://www.w3.org/2000/svg"
   xmlns="http://www.w3.org/2000/svg"
   xmlns:xlink="http://www.w3.org/1999/xlink"
   version="1.1"
   width="593.34338"
   height="1304.2069"
   id="svg3158">
  <title
     id="title3213">Generic DD Diskette</title>
  <metadata
     id="metadata3164">
    <rdf:RDF>
      <cc:Work
         rdf:about="">
        <dc:format>image/svg+xml</dc:format>
        <dc:type
           rdf:resource="http://purl.org/dc/dcmitype/StillImage" />
        <dc:title>Generic DD Diskette</dc:title>
        <dc:date>12/12/2012</dc:date>
        <dc:creator>
          <cc:Agent>
            <dc:title>Akop Karapetyan</dc:title>
          </cc:Agent>
        </dc:creator>
        <dc:source>http://www.cocoamsx.com/</dc:source>
        <cc:license
           rdf:resource="http://creativecommons.org/licenses/by-sa/3.0/" />
        <dc:subject>
          <rdf:Bag>
            <rdf:li>msx</rdf:li>
            <rdf:li>diskette</rdf:li>
            <rdf:li>disk</rdf:li>
            <rdf:li>floppy</rdf:li>
            <rdf:li>cocoamsx</rdf:li>
          </rdf:Bag>
        </dc:subject>
      </cc:Work>
      <cc:License
         rdf:about="http://creativecommons.org/licenses/by-sa/3.0/">
        <cc:permits
           rdf:resource="http://creativecommons.org/ns#Reproduction" />
        <cc:permits
           rdf:resource="http://creativecommons.org/ns#Distribution" />
        <cc:requires
           rdf:resource="http://creativecommons.org/ns#Notice" />
        <cc:requires
           rdf:resource="http://creativecommons.org/ns#Attribution" />
        <cc:permits
           rdf:resource="http://creativecommons.org/ns#DerivativeWorks" />
        <cc:requires
           rdf:resource="http://creativecommons.org/ns#ShareAlike" />
      </cc:License>
    </rdf:RDF>
  </metadata>
  <defs
     id="defs3162">
    <linearGradient
       id="linearGradient4787">
      <stop
         id="stop4789"
         style="stop-color:#d3d3d3;stop-opacity:1"
         offset="0" />
      <stop
         id="stop4791"
         style="stop-color:#898989;stop-opacity:1"
         offset="1" />
    </linearGradient>
    <linearGradient
       id="linearGradient4418">
      <stop
         id="stop4420"
         style="stop-color:#666666;stop-opacity:1"
         offset="0" />
      <stop
         id="stop4422"
         style="stop-color:#191919;stop-opacity:1"
         offset="1" />
    </linearGradient>
    <marker
       refX="0"
       refY="0"
       orient="auto"
       id="TriangleOutL"
       style="overflow:visible">
      <path
         d="m 5.77,0 -8.65,5 0,-10 8.65,5 z"
         transform="scale(0.8,0.8)"
         id="path4101"
         style="fill-rule:evenodd;stroke:#000000;stroke-width:1pt;marker-start:none" />
    </marker>
    <radialGradient
       cx="433.34537"
       cy="626.56989"
       r="12.0625"
       fx="433.34537"
       fy="626.56989"
       id="radialGradient3528"
       xlink:href="#linearGradient4418"
       gradientUnits="userSpaceOnUse"
       gradientTransform="matrix(0.11615089,-5.4201086,2.6067844,0.20960023,-1222.7811,2854.3356)" />
    <radialGradient
       cx="495.9278"
       cy="767.30701"
       r="257.59375"
       fx="495.9278"
       fy="767.30701"
       id="radialGradient3530"
       xlink:href="#linearGradient4418"
       gradientUnits="userSpaceOnUse"
       gradientTransform="matrix(0.9996868,0,0,0.52286789,0.1489048,315.69744)" />
    <radialGradient
       cx="539.50256"
       cy="1101.2026"
       r="311.76944"
       fx="539.50256"
       fy="1101.2026"
       id="radialGradient3532"
       xlink:href="#linearGradient4418"
       gradientUnits="userSpaceOnUse"
       gradientTransform="matrix(0.00173227,0.33090791,-0.95743282,0.00501208,1840.9002,890.34079)" />
    <radialGradient
       cx="3608.3354"
       cy="704.98236"
       r="200.78125"
       fx="3608.3354"
       fy="704.98236"
       id="radialGradient3534"
       xlink:href="#linearGradient4787"
       gradientUnits="userSpaceOnUse"
       gradientTransform="matrix(-0.01333446,0.63135399,-0.71774227,-0.0151584,4147.8243,-1265.6895)" />
    <radialGradient
       cx="802.59033"
       cy="524.41058"
       r="125.50511"
       fx="802.59033"
       fy="524.41058"
       id="radialGradient3536"
       xlink:href="#linearGradient4418"
       gradientUnits="userSpaceOnUse"
       gradientTransform="matrix(0.59956876,0.0050768,-0.00675579,0.30861343,4082.9663,615.06851)" />
    <radialGradient
       cx="433.34537"
       cy="626.56989"
       r="12.0625"
       fx="433.34537"
       fy="626.56989"
       id="radialGradient3363"
       xlink:href="#linearGradient4418"
       gradientUnits="userSpaceOnUse"
       gradientTransform="matrix(0.11615089,-5.4201086,2.6067844,0.20960023,-1222.7811,2854.3356)" />
    <radialGradient
       cx="495.9278"
       cy="767.30701"
       r="257.59375"
       fx="495.9278"
       fy="767.30701"
       id="radialGradient3365"
       xlink:href="#linearGradient4418"
       gradientUnits="userSpaceOnUse"
       gradientTransform="matrix(0.9996868,0,0,0.52286789,0.1489048,315.69744)" />
    <radialGradient
       cx="539.50256"
       cy="1101.2026"
       r="311.76944"
       fx="539.50256"
       fy="1101.2026"
       id="radialGradient3367"
       xlink:href="#linearGradient4418"
       gradientUnits="userSpaceOnUse"
       gradientTransform="matrix(0.00173227,0.33090791,-0.95743282,0.00501208,1840.9002,890.34079)" />
    <radialGradient
       cx="3608.3354"
       cy="704.98236"
       r="200.78125"
       fx="3608.3354"
       fy="704.98236"
       id="radialGradient3369"
       xlink:href="#linearGradient4787"
       gradientUnits="userSpaceOnUse"
       gradientTransform="matrix(-0.01333446,0.63135399,-0.71774227,-0.0151584,4147.8243,-1265.6895)" />
    <radialGradient
       cx="802.59033"
       cy="524.41058"
       r="125.50511"
       fx="802.59033"
       fy="524.41058"
       id="radialGradient3371"
       xlink:href="#linearGradient4418"
       gradientUnits="userSpaceOnUse"
       gradientTransform="matrix(0.59956876,0.0050768,-0.00675579,0.30861343,4082.9663,615.06851)" />
    <filter
       x="-0.25"
       y="-0.25"
       width="1.5"
       height="1.5"
       color-interpolation-filters="sRGB"
       id="filter3373">
      <feGaussianBlur
         result="blur"
         stdDeviation="8"
         in="SourceAlpha"
         id="feGaussianBlur3375" />
      <feColorMatrix
         values="1 0 0 0 0 0 1 0 0 0 0 0 1 0 0 0 0 0 0.7 0 "
         type="matrix"
         result="bluralpha"
         id="feColorMatrix3377" />
      <feOffset
         result="offsetBlur"
         dy="6"
         dx="6"
         in="bluralpha"
         id="feOffset3379" />
      <feMerge
         result="fbSourceGraphic"
         id="feMerge3381">
        <feMergeNode
           in="offsetBlur"
           id="feMergeNode3383" />
        <feMergeNode
           in="SourceGraphic"
           id="feMergeNode3385" />
      </feMerge>
      <feColorMatrix
         id="feColorMatrix3387"
         values="0 0 0 -1 0 0 0 0 -1 0 0 0 0 -1 0 0 0 0 1 0"
         in="fbSourceGraphic"
         result="fbSourceGraphicAlpha" />
      <feGaussianBlur
         result="blur"
         stdDeviation="8"
         in="fbSourceGraphicAlpha"
         id="feGaussianBlur3389" />
      <feColorMatrix
         values="1 0 0 0 0 0 1 0 0 0 0 0 1 0 0 0 0 0 0.7 0 "
         type="matrix"
         result="bluralpha"
         id="feColorMatrix3391" />
      <feOffset
         result="offsetBlur"
         dy="8"
         dx="8"
         in="bluralpha"
         id="feOffset3393" />
      <feMerge
         id="feMerge3395">
        <feMergeNode
           in="offsetBlur"
           id="feMergeNode3397" />
        <feMergeNode
           in="fbSourceGraphic"
           id="feMergeNode3399" />
      </feMerge>
    </filter>
    <radialGradient
       cx="3608.3354"
       cy="704.98236"
       r="200.78125"
       fx="3608.3354"
       fy="704.98236"
       id="radialGradient23991"
       xlink:href="#linearGradient4787"
       gradientUnits="userSpaceOnUse"
       gradientTransform="matrix(-0.01333446,0.63135399,-0.71774227,-0.0151584,4147.8243,-1265.6895)" />
    <radialGradient
       cx="802.59033"
       cy="524.41058"
       r="125.50511"
       fx="802.59033"
       fy="524.41058"
       id="radialGradient23993"
       xlink:href="#linearGradient4418"
       gradientUnits="userSpaceOnUse"
       gradientTransform="matrix(0.59956876,0.0050768,-0.00675579,0.30861343,4082.9663,615.06851)" />
    <radialGradient
       cx="802.59033"
       cy="524.41058"
       r="125.50511"
       fx="802.59033"
       fy="524.41058"
       id="radialGradient24004"
       xlink:href="#linearGradient4418"
       gradientUnits="userSpaceOnUse"
       gradientTransform="matrix(0.59956876,0.0050768,-0.00675579,0.30861343,-243.17663,-97.641993)" />
    <radialGradient
       cx="3608.3354"
       cy="704.98236"
       r="200.78125"
       fx="3608.3354"
       fy="704.98236"
       id="radialGradient24007"
       xlink:href="#linearGradient4787"
       gradientUnits="userSpaceOnUse"
       gradientTransform="matrix(-0.01333446,0.63135399,-0.71774227,-0.0151584,736.1056,-2169.4239)" />
    <radialGradient
       cx="802.59033"
       cy="524.41058"
       r="125.50511"
       fx="802.59033"
       fy="524.41058"
       id="radialGradient24075"
       xlink:href="#linearGradient4418"
       gradientUnits="userSpaceOnUse"
       gradientTransform="matrix(0.59956876,0.0050768,-0.00675579,0.30861343,-243.17663,-97.641993)" />
    <radialGradient
       cx="802.59033"
       cy="524.41058"
       r="125.50511"
       fx="802.59033"
       fy="524.41058"
       id="radialGradient24077"
       xlink:href="#linearGradient4418"
       gradientUnits="userSpaceOnUse"
       gradientTransform="matrix(0.59956876,0.0050768,-0.00675579,0.30861343,-243.17663,-97.641993)" />
    <radialGradient
       cx="802.59033"
       cy="524.41058"
       r="125.50511"
       fx="802.59033"
       fy="524.41058"
       id="radialGradient24079"
       xlink:href="#linearGradient4418"
       gradientUnits="userSpaceOnUse"
       gradientTransform="matrix(0.59956876,0.0050768,-0.00675579,0.30861343,-243.17663,-97.641993)" />
    <radialGradient
       cx="802.59033"
       cy="524.41058"
       r="125.50511"
       fx="802.59033"
       fy="524.41058"
       id="radialGradient24081"
       xlink:href="#linearGradient4418"
       gradientUnits="userSpaceOnUse"
       gradientTransform="matrix(0.59956876,0.0050768,-0.00675579,0.30861343,-243.17663,-97.641993)" />
    <radialGradient
       cx="802.59033"
       cy="524.41058"
       r="125.50511"
       fx="802.59033"
       fy="524.41058"
       id="radialGradient24083"
       xlink:href="#linearGradient4418"
       gradientUnits="userSpaceOnUse"
       gradientTransform="matrix(0.59956876,0.0050768,-0.00675579,0.30861343,-243.17663,-97.641993)" />
    <radialGradient
       cx="802.59033"
       cy="524.41058"
       r="125.50511"
       fx="802.59033"
       fy="524.41058"
       id="radialGradient24085"
       xlink:href="#linearGradient4418"
       gradientUnits="userSpaceOnUse"
       gradientTransform="matrix(0.59956876,0.0050768,-0.00675579,0.30861343,-243.17663,-97.641993)" />
    <radialGradient
       cx="802.59033"
       cy="524.41058"
       r="125.50511"
       fx="802.59033"
       fy="524.41058"
       id="radialGradient24087"
       xlink:href="#linearGradient4418"
       gradientUnits="userSpaceOnUse"
       gradientTransform="matrix(0.59956876,0.0050768,-0.00675579,0.30861343,-243.17663,-97.641993)" />
    <radialGradient
       cx="802.59033"
       cy="524.41058"
       r="125.50511"
       fx="802.59033"
       fy="524.41058"
       id="radialGradient24089"
       xlink:href="#linearGradient4418"
       gradientUnits="userSpaceOnUse"
       gradientTransform="matrix(0.59956876,0.0050768,-0.00675579,0.30861343,-243.17663,-97.641993)" />
    <radialGradient
       cx="802.59033"
       cy="524.41058"
       r="125.50511"
       fx="802.59033"
       fy="524.41058"
       id="radialGradient24091"
       xlink:href="#linearGradient4418"
       gradientUnits="userSpaceOnUse"
       gradientTransform="matrix(0.59956876,0.0050768,-0.00675579,0.30861343,-243.17663,-97.641993)" />
    <radialGradient
       cx="802.59033"
       cy="524.41058"
       r="125.50511"
       fx="802.59033"
       fy="524.41058"
       id="radialGradient24094"
       xlink:href="#linearGradient4418"
       gradientUnits="userSpaceOnUse"
       gradientTransform="matrix(0.47283689,0.00643751,-0.00532781,0.39132939,-191.77597,-123.81244)" />
    <radialGradient
       cx="802.59033"
       cy="524.41058"
       r="125.50511"
       fx="802.59033"
       fy="524.41058"
       id="radialGradient24097"
       xlink:href="#linearGradient4418"
       gradientUnits="userSpaceOnUse"
       gradientTransform="matrix(0.47283689,0.00643751,-0.00532781,0.39132939,-191.77597,-123.81244)" />
    <radialGradient
       cx="802.59033"
       cy="524.41058"
       r="125.50511"
       fx="802.59033"
       fy="524.41058"
       id="radialGradient24100"
       xlink:href="#linearGradient4418"
       gradientUnits="userSpaceOnUse"
       gradientTransform="matrix(0.47283689,0.00643751,-0.00532781,0.39132939,-191.77597,-123.81244)" />
    <radialGradient
       cx="802.59033"
       cy="524.41058"
       r="125.50511"
       fx="802.59033"
       fy="524.41058"
       id="radialGradient24103"
       xlink:href="#linearGradient4418"
       gradientUnits="userSpaceOnUse"
       gradientTransform="matrix(0.47283689,0.00643751,-0.00532781,0.39132939,-191.77597,-123.81244)" />
    <radialGradient
       cx="802.59033"
       cy="524.41058"
       r="125.50511"
       fx="802.59033"
       fy="524.41058"
       id="radialGradient24106"
       xlink:href="#linearGradient4418"
       gradientUnits="userSpaceOnUse"
       gradientTransform="matrix(0.47283689,0.00643751,-0.00532781,0.39132939,-191.77597,-123.81244)" />
    <radialGradient
       cx="802.59033"
       cy="524.41058"
       r="125.50511"
       fx="802.59033"
       fy="524.41058"
       id="radialGradient24109"
       xlink:href="#linearGradient4418"
       gradientUnits="userSpaceOnUse"
       gradientTransform="matrix(0.47283689,0.00643751,-0.00532781,0.39132939,-191.77597,-123.81244)" />
    <radialGradient
       cx="802.59033"
       cy="524.41058"
       r="125.50511"
       fx="802.59033"
       fy="524.41058"
       id="radialGradient24112"
       xlink:href="#linearGradient4418"
       gradientUnits="userSpaceOnUse"
       gradientTransform="matrix(0.47283689,0.00643751,-0.00532781,0.39132939,-191.77597,-123.81244)" />
    <radialGradient
       cx="802.59033"
       cy="524.41058"
       r="125.50511"
       fx="802.59033"
       fy="524.41058"
       id="radialGradient24115"
       xlink:href="#linearGradient4418"
       gradientUnits="userSpaceOnUse"
       gradientTransform="matrix(0.47283689,0.00643751,-0.00532781,0.39132939,-191.77597,-123.81244)" />
  </defs>
  <text
     x="-532.39331"
     y="696.43811"
     id="text4127"
     xml:space="preserve"
     style="font-size:40px;font-style:italic;font-variant:normal;font-weight:bold;font-stretch:normal;line-height:125%;letter-spacing:0px;word-spacing:0px;fill:#000000;fill-opacity:1;stroke:none;font-family:Zapfino;-inkscape-font-specification:Zapfino Bold Italic"><tspan
       x="-532.39331"
       y="696.43811"
       id="tspan4129" /></text>
  <text
     x="-506.32434"
     y="669.05884"
     id="text4131"
     xml:space="preserve"
     style="font-size:40px;font-style:normal;font-weight:normal;line-height:125%;letter-spacing:0px;word-spacing:0px;fill:#000000;fill-opacity:1;stroke:none;font-family:Sans"><tspan
       x="-506.32434"
       y="669.05884"
       id="tspan4133" /></text>
  <text
     x="2463.8948"
     y="977.99109"
     id="text3563"
     xml:space="preserve"
     style="font-size:40px;font-style:normal;font-weight:normal;line-height:125%;letter-spacing:0px;word-spacing:0px;fill:#000000;fill-opacity:1;stroke:none;font-family:Sans"><tspan
       x="2463.8948"
       y="977.99109"
       id="tspan3565" /></text>
  <g
     id="g24184">
    <g
       transform="matrix(0.76176295,0,0,0.76176295,-297.4431,-353.042)"
       id="g4968">
      <path
         d="m 417.65625,530.0625 c -9.23959,0 -16.6875,7.44791 -16.6875,16.6875 l 0,751.1875 c 0,9.2396 7.44791,16.6875 16.6875,16.6875 l 52.21875,0 0,-3.0938 622.5312,0 0,3.0938 60.2813,0 c 9.2396,0 16.6875,-7.4479 16.6875,-16.6875 l 0,-720.5 -47.375,-47.375 -37.0312,0 0,6.21875 -64.2188,0 -10.8438,10.84375 -0.031,0 -22.46875,0 0,-15.5 -467.40625,0 -7.9375,7.9375 0,0.125 -0.125,0 -0.0312,0.0312 -0.0312,-0.0312 -36.125,0 0,-9.625 -58.09375,0 z m 0.15625,701.1875 39.5,0 0,31.5938 -39.5,0 0,-31.5938 z"
         id="path4970"
         style="fill:#000000;fill-opacity:1;stroke:none" />
      <path
         d="m 438.0625,580.7076 -11.5625,35.50697 4.34375,0 0,24.28543 14.40625,0 0,-24.28543 4.375,0 -11.5625,-35.50697 z"
         id="path4972"
         style="font-size:medium;font-style:normal;font-variant:normal;font-weight:normal;font-stretch:normal;text-indent:0;text-align:start;text-decoration:none;line-height:normal;letter-spacing:normal;word-spacing:normal;text-transform:none;direction:ltr;block-progression:tb;writing-mode:lr-tb;text-anchor:start;baseline-shift:baseline;color:#000000;fill:none;stroke:url(#radialGradient3528);stroke-width:1.5;stroke-miterlimit:4;stroke-dasharray:none;marker:none;visibility:visible;display:inline;overflow:visible;enable-background:accumulate;font-family:Sans;-inkscape-font-specification:Sans" />
      <path
         d="m 475.4375,539.0625 0,131.90625 0,105.28125 c 0,11.13183 8.95911,20.09375 20.08746,20.09375 l 474.85123,0 c 11.12834,0 20.08746,-8.96192 20.08746,-20.09375 l 0,-105.28125 0,-123.90625"
         id="path4974"
         style="opacity:0.55172412;fill:none;stroke:url(#radialGradient3530);stroke-width:1.5;stroke-miterlimit:4;stroke-dasharray:none" />
      <path
         d="m 1092.75,1312.8018 0,-249.1201 0,-24.3006 0,-167.53281 c 0,-11.04077 -8.8402,-19.91079 -19.8438,-19.91079 l -582.8437,0 c -11.00359,0 -19.84375,8.87002 -19.84375,19.91079 l 0,167.53281 0,24.3006 c 0,0.3451 -0.0171,0.694 0,1.0347 l 0,248.0854"
         id="path4976"
         style="fill:none;stroke:url(#radialGradient3532);stroke-width:2;stroke-miterlimit:4;stroke-dasharray:none" />
    </g>
    <path
       d="m 149.8546,48.85937 0,67.20175 0,44.8488 0,80.3184 c 0,6.0624 4.8641,10.9265 10.9265,10.9265 l 284.0424,0 c 6.0624,0 10.9265,-4.8641 10.9265,-10.9265 l 0,-80.3184 0,-44.8488 0,-67.20175 -305.8954,0 z m 180.1331,28.35187 80.8421,0 0,159.35128 -80.8421,0 0,-159.35128 z"
       id="path5010"
       style="fill:url(#radialGradient24007);fill-opacity:1;stroke:none" />
    <path
       d="m 184.85792,78.151067 c -1.37117,-1.028853 -3.68694,-1.910731 -6.45976,-1.910731 -3.74787,0 -6.76445,1.763756 -8.59268,5.046292 -1.73682,3.135556 -2.77282,7.348974 -2.77282,12.885191 0,5.73219 1.06647,10.337551 2.8947,13.277141 1.88917,3.03757 4.87529,4.16441 8.28798,4.16441 2.43764,0 5.24093,-1.07785 6.70351,-2.35167 l 0.42659,-8.18185 -0.91412,0 c -0.85316,5.09528 -2.40716,8.81876 -6.3988,8.81876 -6.27692,0 -7.58716,-9.945609 -7.58716,-15.87377 0,-8.034864 1.98059,-16.118737 7.6481,-16.069745 3.10799,0 5.2714,2.057718 5.85033,7.8389 l 0.91413,0 0,-7.642928"
       id="path24010"
       style="font-size:38.63736343px;font-style:normal;font-variant:normal;font-weight:normal;font-stretch:normal;line-height:125%;letter-spacing:0px;word-spacing:0px;fill:url(#radialGradient24115);fill-opacity:1;stroke:none;font-family:Utopia;-inkscape-font-specification:Utopia" />
    <path
       d="m 195.17504,86.283927 c -4.87528,0 -7.28245,4.654355 -7.28245,12.591232 0,7.936881 2.40717,12.591231 7.28245,12.591231 4.93622,0 7.31292,-4.65435 7.31292,-12.591231 0,-7.936877 -2.3767,-12.591232 -7.31292,-12.591232 m -4.11352,12.591232 c 0,-6.761045 1.34071,-10.876474 4.11352,-10.876474 2.83376,0 4.14399,4.115429 4.14399,10.876474 0,6.761041 -1.31023,10.876471 -4.14399,10.876471 -2.77281,0 -4.11352,-4.11543 -4.11352,-10.876471"
       id="path24012"
       style="font-size:38.63736343px;font-style:normal;font-variant:normal;font-weight:normal;font-stretch:normal;line-height:125%;letter-spacing:0px;word-spacing:0px;fill:url(#radialGradient24112);fill-opacity:1;stroke:none;font-family:Utopia;-inkscape-font-specification:Utopia" />
    <path
       d="m 213.09695,108.91875 c -3.626,0 -4.47918,-6.07515 -4.47918,-10.680502 0,-7.299968 1.79777,-10.239563 3.90024,-10.239563 1.40163,0 2.28528,1.616777 2.8947,4.262402 0.18282,0.783889 0.36564,1.273822 0.94457,1.273822 0.60942,0 1.79777,-0.636913 1.79777,-2.49865 0,-2.253681 -2.01106,-4.752332 -5.30187,-4.752332 -5.54563,0 -7.40434,6.320119 -7.40434,12.836198 0,8.181845 2.49859,12.346265 7.06917,12.346265 2.13293,0 4.99716,-1.81275 5.85033,-7.05501 l -0.88364,-0.6859 c -0.94459,3.42951 -2.16341,5.19327 -4.38775,5.19327"
       id="path24014"
       style="font-size:38.63736343px;font-style:normal;font-variant:normal;font-weight:normal;font-stretch:normal;line-height:125%;letter-spacing:0px;word-spacing:0px;fill:url(#radialGradient24109);fill-opacity:1;stroke:none;font-family:Utopia;-inkscape-font-specification:Utopia" />
    <path
       d="m 227.84754,86.283927 c -4.87529,0 -7.28246,4.654355 -7.28246,12.591232 0,7.936881 2.40717,12.591231 7.28246,12.591231 4.93621,0 7.31291,-4.65435 7.31291,-12.591231 0,-7.936877 -2.3767,-12.591232 -7.31291,-12.591232 m -4.11353,12.591232 c 0,-6.761045 1.34071,-10.876474 4.11353,-10.876474 2.83375,0 4.14399,4.115429 4.14399,10.876474 0,6.761041 -1.31024,10.876471 -4.14399,10.876471 -2.77282,0 -4.11353,-4.11543 -4.11353,-10.876471"
       id="path24016"
       style="font-size:38.63736343px;font-style:normal;font-variant:normal;font-weight:normal;font-stretch:normal;line-height:125%;letter-spacing:0px;word-spacing:0px;fill:url(#radialGradient24106);fill-opacity:1;stroke:none;font-family:Utopia;-inkscape-font-specification:Utopia" />
    <path
       d="m 247.07966,103.87246 c 0,3.96844 -1.88917,4.9973 -3.07752,4.9973 -1.88917,0 -2.80328,-2.1557 -2.80328,-5.0463 0,-2.30267 0.67035,-3.47851 2.37669,-4.507363 1.21883,-0.734895 2.83376,-1.665767 3.50411,-2.35167 l 0,6.908033 m 2.74235,-11.072448 c 0,-2.841599 -0.39612,-6.516085 -4.99717,-6.516085 -3.44316,0 -6.15504,2.890596 -6.15504,5.585215 0,1.567779 1.12741,2.302677 1.70635,2.302677 0.63988,0 0.82271,-0.538924 0.97505,-1.371807 0.67036,-3.625488 1.91965,-4.801327 3.13847,-4.801327 1.18835,0 2.58999,0.979867 2.58999,4.899313 l 0,2.057711 c -0.76176,1.273819 -3.7174,2.498651 -6.12457,3.723478 -2.19388,1.077847 -2.83376,3.527503 -2.83376,5.830183 0,3.67448 1.52353,6.95702 4.38775,6.95702 1.88918,-0.098 3.56506,-1.91073 4.54011,-2.93959 0.42659,1.81275 0.91412,2.93959 1.98059,2.93959 1.1274,0 2.43764,-0.53892 3.59552,-1.46979 l -0.18283,-1.17584 c -0.42658,0.14698 -1.09693,0.24497 -1.55399,0.049 -0.54847,-0.19597 -1.06647,-1.12685 -1.06647,-4.21341 l 0,-11.856335"
       id="path24018"
       style="font-size:38.63736343px;font-style:normal;font-variant:normal;font-weight:normal;font-stretch:normal;line-height:125%;letter-spacing:0px;word-spacing:0px;fill:url(#radialGradient24103);fill-opacity:1;stroke:none;font-family:Utopia;-inkscape-font-specification:Utopia" />
    <path
       d="m 260.8352,110.87847 0,-1.4208 c -1.98058,-0.24496 -2.71188,-0.39194 -2.8947,-2.44965 -0.15235,-1.61677 -0.21329,-3.47852 -0.21329,-6.07515 l 0,-19.45027 0.061,0 7.8614,28.80796 0.8227,0 7.9528,-28.80796 0.0914,0 0,24.83951 c 0,2.74362 -0.061,2.84161 -2.74235,3.13556 l 0,1.4208 8.50128,0 0,-1.4208 c -2.65094,-0.29395 -2.74235,-0.39194 -2.74235,-3.13556 l 0,-24.790517 c 0,-2.743612 0.0914,-2.841601 2.74235,-3.13556 l 0,-1.4208 -6.12458,0 c -1.03599,4.360384 -2.28529,8.671787 -3.50411,12.983178 l -3.65646,13.130159 -0.061,0 -3.59552,-13.081167 c -1.18834,-4.360383 -2.46811,-8.671786 -3.56505,-13.03217 l -6.18551,0 0,1.4208 c 2.6814,0.293959 2.74234,0.391948 2.74234,3.13556 l 0,19.401277 c 0,2.59663 -0.061,4.45838 -0.21329,6.07515 -0.18283,2.05771 -0.91411,2.25368 -2.49859,2.44965 l 0,1.4208 7.22152,0"
       id="path24020"
       style="font-size:38.63736343px;font-style:normal;font-variant:normal;font-weight:normal;font-stretch:normal;line-height:125%;letter-spacing:0px;word-spacing:0px;fill:url(#radialGradient24100);fill-opacity:1;stroke:none;font-family:Utopia;-inkscape-font-specification:Utopia" />
    <path
       d="m 283.15057,108.67378 c 1.3407,2.00872 3.86976,2.93959 6.00269,2.93959 5.39328,0 7.52622,-4.94831 7.52622,-9.9456 0,-5.781185 -2.43764,-8.524808 -6.00269,-10.631511 l -0.97506,-0.587917 c -2.04153,-1.224828 -3.74787,-3.331535 -3.74787,-6.27112 0,-3.576495 1.3407,-6.222127 3.90022,-6.222127 2.62046,0 4.08305,2.400669 4.57058,7.348968 l 0.94458,0 0,-6.90803 c -1.03599,-1.322813 -3.10799,-2.155697 -5.17998,-2.155697 -3.7174,0 -7.00822,2.988586 -7.00822,9.455672 0,5.144273 2.55953,7.838902 5.75893,9.651646 l 0.54846,0.342951 c 1.3407,0.832883 4.2354,3.086572 4.2354,7.446955 0,4.21341 -1.67587,6.76105 -4.38775,6.76105 -2.86422,0 -4.7534,-3.5765 -5.51516,-9.06373 l -0.97505,0 0.3047,7.8389"
       id="path24022"
       style="font-size:38.63736343px;font-style:normal;font-variant:normal;font-weight:normal;font-stretch:normal;line-height:125%;letter-spacing:0px;word-spacing:0px;fill:url(#radialGradient24097);fill-opacity:1;stroke:none;font-family:Utopia;-inkscape-font-specification:Utopia" />
    <path
       d="m 304.51087,110.87847 0,-1.4208 -1.95011,-0.34295 c -0.45706,-0.098 -0.63988,-0.53892 -0.33517,-1.32281 1.31022,-3.87045 2.80329,-7.838906 4.41821,-11.856339 l 0.061,0 4.63152,11.807339 c 0.36564,0.93087 0.0914,1.32282 -0.48753,1.4208 l -1.67588,0.29396 0,1.4208 8.65363,0 0,-1.4208 c -2.19388,-0.24496 -2.55953,-0.53892 -3.44317,-2.7926 l -5.97223,-14.84492 c 1.67588,-3.96844 3.44318,-7.838903 4.7534,-10.435537 1.31024,-2.596632 1.70636,-2.841601 3.50412,-2.98858 l 0,-1.4208 -6.73399,0 0,1.4208 1.46258,0.195973 c 0.63989,0.09798 0.63989,0.636911 0.27424,1.616773 -1.12741,3.037571 -2.46811,6.320116 -3.9307,9.700639 l -0.061,0 -3.80882,-9.602653 c -0.36564,-0.979861 -0.3047,-1.567779 0.27424,-1.665766 l 1.46258,-0.244966 0,-1.4208 -7.86139,0 0,1.4208 c 1.91964,0.09799 2.28529,0.440942 3.32129,3.086567 l 4.87528,12.493247 c -1.76729,4.115418 -4.20493,10.141583 -5.45422,12.836203 -1.036,2.20468 -1.31024,2.35167 -3.26035,2.64562 l 0,1.4208 7.28246,0"
       id="path24024"
       style="font-size:38.63736343px;font-style:normal;font-variant:normal;font-weight:normal;font-stretch:normal;line-height:125%;letter-spacing:0px;word-spacing:0px;fill:url(#radialGradient24094);fill-opacity:1;stroke:none;font-family:Utopia;-inkscape-font-specification:Utopia" />
    <path
       d="m 165.402,180.53268 2.82016,-0.41734 c 0.0759,0.87683 0.31615,1.54709 0.72084,2.01079 0.40469,0.46371 0.88104,0.69556 1.42905,0.69556 0.5986,0 1.10445,-0.27401 1.51758,-0.82202 0.41311,-0.54801 0.61967,-1.3068 0.61967,-2.27637 0,-0.9021 -0.19813,-1.6103 -0.59438,-2.1246 -0.39626,-0.51428 -0.87683,-0.77143 -1.44169,-0.77143 -0.37097,0 -0.8136,0.0885 -1.32788,0.26557 l 0.31616,-2.89604 c 0.75035,0.0169 1.34473,-0.18547 1.78315,-0.60703 0.42997,-0.42153 0.64496,-1.01592 0.64497,-1.78315 -1e-5,-0.64074 -0.15598,-1.14238 -0.46792,-1.50493 -0.31195,-0.36251 -0.71242,-0.54378 -1.20141,-0.54379 -0.489,1e-5 -0.91477,0.21079 -1.2773,0.63232 -0.3541,0.41313 -0.56487,1.02859 -0.63232,1.84638 l -2.69369,-0.55644 c 0.27822,-1.69461 0.82201,-2.92553 1.63139,-3.69277 0.80937,-0.7672 1.82952,-1.15081 3.06044,-1.15082 1.38267,1e-5 2.4787,0.49323 3.28808,1.47963 0.81779,0.98644 1.2267,2.07825 1.22671,3.27543 -1e-5,0.80939 -0.1855,1.53867 -0.55645,2.18784 -0.36254,0.6492 -0.91055,1.21829 -1.64404,1.70727 0.85152,0.22765 1.54286,0.72929 2.07402,1.50493 0.53957,0.77566 0.80936,1.74522 0.80937,2.90868 -1e-5,1.69463 -0.50586,3.09839 -1.51757,4.21127 -1.00329,1.10446 -2.20049,1.65669 -3.59159,1.65669 -1.3321,0 -2.46185,-0.46792 -3.38925,-1.40376 -0.91898,-0.93583 -1.45435,-2.21312 -1.6061,-3.83187"
       id="path24027"
       style="font-size:25.89994049px;font-style:normal;font-variant:normal;font-weight:bold;font-stretch:condensed;line-height:125%;letter-spacing:0px;word-spacing:0px;fill:#000000;fill-opacity:1;stroke:none;font-family:Arial Narrow;-inkscape-font-specification:Arial Narrow Bold Condensed" />
    <path
       d="m 177.97257,185.45215 0,-3.55366 2.92133,0 0,3.55366 -2.92133,0"
       id="path24029"
       style="font-size:25.89994049px;font-style:normal;font-variant:normal;font-weight:bold;font-stretch:condensed;line-height:125%;letter-spacing:0px;word-spacing:0px;fill:#000000;fill-opacity:1;stroke:none;font-family:Arial Narrow;-inkscape-font-specification:Arial Narrow Bold Condensed" />
    <path
       d="m 183.30938,180.68443 2.90868,-0.36674 c 0.0759,0.80938 0.32459,1.44591 0.74614,1.90961 0.42155,0.46371 0.88525,0.69556 1.39111,0.69556 0.5986,0 1.11288,-0.29508 1.54287,-0.88525 0.42997,-0.5986 0.64496,-1.51336 0.64497,-2.74429 -1e-5,-1.16346 -0.215,-2.02342 -0.64497,-2.57987 -0.42156,-0.55644 -0.96114,-0.83466 -1.61875,-0.83467 -0.83467,1e-5 -1.58502,0.45107 -2.25106,1.35317 l -2.36489,-0.41733 1.49228,-9.64925 7.70169,0 0,3.32602 -5.48856,0 -0.46792,3.14897 c 0.65761,-0.39624 1.32366,-0.59437 1.99814,-0.59438 1.19719,1e-5 2.21312,0.47214 3.0478,1.4164 1.05386,1.20564 1.58079,2.79487 1.5808,4.76771 -1e-5,1.62718 -0.45106,3.12368 -1.35317,4.48949 -0.89369,1.36582 -2.1752,2.04873 -3.84452,2.04873 -1.34896,0 -2.47871,-0.43841 -3.38925,-1.31523 -0.90212,-0.88525 -1.44591,-2.14146 -1.63139,-3.76865"
       id="path24031"
       style="font-size:25.89994049px;font-style:normal;font-variant:normal;font-weight:bold;font-stretch:condensed;line-height:125%;letter-spacing:0px;word-spacing:0px;fill:#000000;fill-opacity:1;stroke:none;font-family:Arial Narrow;-inkscape-font-specification:Arial Narrow Bold Condensed" />
    <path
       d="m 195.90525,173.50125 -0.5438,-3.45248 0,-3.13633 3.17426,0 0,3.13633 -0.48057,3.45248 -2.14989,0 m 4.69183,0 -0.55644,-3.45248 0,-3.13633 3.17426,0 0,3.13633 -0.48057,3.45248 -2.13725,0"
       id="path24033"
       style="font-size:25.89994049px;font-style:normal;font-variant:normal;font-weight:bold;font-stretch:condensed;line-height:125%;letter-spacing:0px;word-spacing:0px;fill:#000000;fill-opacity:1;stroke:none;font-family:Arial Narrow;-inkscape-font-specification:Arial Narrow Bold Condensed" />
    <path
       d="m 211.71332,166.91244 5.60237,0 c 1.4164,2e-5 2.48292,0.16021 3.19956,0.48057 0.72505,0.31196 1.3911,0.84311 1.99814,1.59345 0.60701,0.75038 1.08336,1.72415 1.42905,2.92133 0.34565,1.19721 0.51849,2.68528 0.5185,4.4642 -1e-5,1.6019 -0.18128,2.99722 -0.5438,4.18598 -0.36254,1.18034 -0.82203,2.11618 -1.37846,2.80751 -0.55645,0.69134 -1.23093,1.21406 -2.02343,1.56816 -0.78409,0.34567 -1.79581,0.51851 -3.03515,0.51851 l -5.76678,0 0,-18.53971 m 3.06044,3.13633 0,12.2797 2.30165,0 c 0.98642,1e-5 1.69883,-0.0927 2.13725,-0.27822 0.44684,-0.18548 0.80937,-0.4637 1.0876,-0.83466 0.28664,-0.37939 0.52271,-0.97378 0.7082,-1.78315 0.18547,-0.80937 0.27821,-1.87589 0.27822,-3.19956 -1e-5,-1.37424 -0.097,-2.45761 -0.29087,-3.25014 -0.18549,-0.79249 -0.48057,-1.41639 -0.88525,-1.87167 -0.39626,-0.45526 -0.88104,-0.75456 -1.45434,-0.8979 -0.42999,-0.10959 -1.26044,-0.16439 -2.49135,-0.1644 l -1.39111,0"
       id="path24035"
       style="font-size:25.89994049px;font-style:normal;font-variant:normal;font-weight:bold;font-stretch:condensed;line-height:125%;letter-spacing:0px;word-spacing:0px;fill:#000000;fill-opacity:1;stroke:none;font-family:Arial Narrow;-inkscape-font-specification:Arial Narrow Bold Condensed" />
    <path
       d="m 226.28203,179.41979 2.99721,-0.3541 c 0.33724,2.36911 1.44169,3.55366 3.31337,3.55365 0.9274,1e-5 1.65668,-0.24028 2.18784,-0.72085 0.53114,-0.48899 0.79672,-1.0918 0.79673,-1.80844 -1e-5,-0.42154 -0.0927,-0.77986 -0.27823,-1.07495 -0.18549,-0.29507 -0.46792,-0.53536 -0.84731,-0.72085 -0.3794,-0.1939 -1.29838,-0.51428 -2.75693,-0.96113 -1.3068,-0.39624 -2.26372,-0.82622 -2.87074,-1.28993 -0.60703,-0.4637 -1.09181,-1.07073 -1.45434,-1.82109 -0.35411,-0.75878 -0.53116,-1.57237 -0.53115,-2.44077 -1e-5,-1.0117 0.22763,-1.92225 0.6829,-2.73163 0.4637,-0.80936 1.10024,-1.4206 1.90962,-1.83374 0.80937,-0.4131 1.80844,-0.61966 2.99721,-0.61968 1.78736,2e-5 3.18268,0.4848 4.18597,1.45435 1.00328,0.96957 1.53443,2.35647 1.59346,4.16068 l -3.07309,0.1644 c -0.13491,-0.99484 -0.42577,-1.69039 -0.87261,-2.08666 -0.44685,-0.39624 -1.08338,-0.59437 -1.90961,-0.59438 -0.82624,1e-5 -1.46278,0.17285 -1.90962,0.5185 -0.44684,0.34568 -0.67026,0.77566 -0.67026,1.28994 0,0.50587 0.20234,0.93163 0.60703,1.27729 0.40468,0.34568 1.33631,0.72508 2.79487,1.13818 1.54286,0.44685 2.65574,0.91899 3.33866,1.4164 0.69133,0.48901 1.21827,1.12555 1.58081,1.90962 0.36252,0.77566 0.54378,1.71992 0.5438,2.8328 -2e-5,1.61032 -0.49744,2.96349 -1.49228,4.05952 -0.98644,1.09602 -2.53352,1.64404 -4.64125,1.64404 -3.7265,0 -5.80051,-2.12039 -6.22206,-6.36117"
       id="path24037"
       style="font-size:25.89994049px;font-style:normal;font-variant:normal;font-weight:bold;font-stretch:condensed;line-height:125%;letter-spacing:0px;word-spacing:0px;fill:#000000;fill-opacity:1;stroke:none;font-family:Arial Narrow;-inkscape-font-specification:Arial Narrow Bold Condensed" />
    <path
       d="m 239.64934,185.76831 3.76864,-19.17203 2.18784,0 -3.80659,19.17203 -2.14989,0"
       id="path24039"
       style="font-size:25.89994049px;font-style:normal;font-variant:normal;font-weight:bold;font-stretch:condensed;line-height:125%;letter-spacing:0px;word-spacing:0px;fill:#000000;fill-opacity:1;stroke:none;font-family:Arial Narrow;-inkscape-font-specification:Arial Narrow Bold Condensed" />
    <path
       d="m 247.12339,166.91244 5.60238,0 c 1.4164,2e-5 2.48291,0.16021 3.19955,0.48057 0.72506,0.31196 1.3911,0.84311 1.99814,1.59345 0.60702,0.75038 1.08337,1.72415 1.42905,2.92133 0.34566,1.19721 0.51849,2.68528 0.51851,4.4642 -2e-5,1.6019 -0.18128,2.99722 -0.5438,4.18598 -0.36254,1.18034 -0.82203,2.11618 -1.37846,2.80751 -0.55646,0.69134 -1.23094,1.21406 -2.02344,1.56816 -0.78409,0.34567 -1.7958,0.51851 -3.03515,0.51851 l -5.76678,0 0,-18.53971 m 3.06044,3.13633 0,12.2797 2.30166,0 c 0.98641,1e-5 1.69883,-0.0927 2.13725,-0.27822 0.44683,-0.18548 0.80936,-0.4637 1.08759,-0.83466 0.28665,-0.37939 0.52271,-0.97378 0.70821,-1.78315 0.18547,-0.80937 0.27821,-1.87589 0.27822,-3.19956 -10e-6,-1.37424 -0.097,-2.45761 -0.29087,-3.25014 -0.18549,-0.79249 -0.48058,-1.41639 -0.88525,-1.87167 -0.39627,-0.45526 -0.88105,-0.75456 -1.45434,-0.8979 -0.42999,-0.10959 -1.26044,-0.16439 -2.49136,-0.1644 l -1.39111,0"
       id="path24041"
       style="font-size:25.89994049px;font-style:normal;font-variant:normal;font-weight:bold;font-stretch:condensed;line-height:125%;letter-spacing:0px;word-spacing:0px;fill:#000000;fill-opacity:1;stroke:none;font-family:Arial Narrow;-inkscape-font-specification:Arial Narrow Bold Condensed" />
    <path
       d="m 262.4509,166.91244 5.60238,0 c 1.41639,2e-5 2.48291,0.16021 3.19955,0.48057 0.72505,0.31196 1.3911,0.84311 1.99814,1.59345 0.60702,0.75038 1.08337,1.72415 1.42905,2.92133 0.34566,1.19721 0.51849,2.68528 0.51851,4.4642 -2e-5,1.6019 -0.18128,2.99722 -0.5438,4.18598 -0.36255,1.18034 -0.82203,2.11618 -1.37847,2.80751 -0.55645,0.69134 -1.23093,1.21406 -2.02343,1.56816 -0.78409,0.34567 -1.7958,0.51851 -3.03515,0.51851 l -5.76678,0 0,-18.53971 m 3.06044,3.13633 0,12.2797 2.30166,0 c 0.98641,1e-5 1.69883,-0.0927 2.13725,-0.27822 0.44683,-0.18548 0.80936,-0.4637 1.08759,-0.83466 0.28664,-0.37939 0.52271,-0.97378 0.7082,-1.78315 0.18547,-0.80937 0.27821,-1.87589 0.27822,-3.19956 -1e-5,-1.37424 -0.097,-2.45761 -0.29086,-3.25014 -0.1855,-0.79249 -0.48058,-1.41639 -0.88526,-1.87167 -0.39626,-0.45526 -0.88104,-0.75456 -1.45434,-0.8979 -0.42999,-0.10959 -1.26044,-0.16439 -2.49135,-0.1644 l -1.39111,0"
       id="path24043"
       style="font-size:25.89994049px;font-style:normal;font-variant:normal;font-weight:bold;font-stretch:condensed;line-height:125%;letter-spacing:0px;word-spacing:0px;fill:#000000;fill-opacity:1;stroke:none;font-family:Arial Narrow;-inkscape-font-specification:Arial Narrow Bold Condensed" />
    <path
       d="m 165.29264,192.83805 0,-1.54435 6.94514,0 0,1.24977 c -1.03553,1.34499 -1.94607,3.09764 -2.73164,5.25795 -0.78557,2.15436 -1.23786,4.29087 -1.35689,6.40952 l -1.35689,0 c 0.0179,-1.09504 0.19044,-2.37158 0.51776,-3.82965 0.33327,-1.45805 0.78854,-2.84767 1.36582,-4.16886 0.57727,-1.32118 1.19918,-2.44597 1.86573,-3.37438 l -5.24903,0"
       id="path24046"
       style="font-size:18.28231049px;font-style:normal;font-variant:normal;font-weight:normal;font-stretch:condensed;line-height:125%;letter-spacing:0px;word-spacing:0px;fill:#000000;fill-opacity:1;stroke:none;font-family:Arial Narrow;-inkscape-font-specification:Arial Narrow Condensed" />
    <path
       d="m 180.5041,202.66658 0,1.54436 -7.0969,0 c -0.0178,-0.62489 0.16961,-1.32416 0.5624,-2.09783 0.39873,-0.77366 1.12479,-1.68718 2.17816,-2.74056 1.23191,-1.22595 2.03831,-2.17221 2.4192,-2.83875 0.38087,-0.67249 0.57131,-1.29737 0.57132,-1.87466 -1e-5,-0.66653 -0.1964,-1.20809 -0.58918,-1.62469 -0.38684,-0.42253 -0.86591,-0.6338 -1.43723,-0.63381 -0.61298,1e-5 -1.11587,0.22616 -1.50865,0.67844 -0.39278,0.45231 -0.58918,1.101 -0.58917,1.94607 l -1.35689,-0.16961 c 0.0952,-1.25571 0.44932,-2.19899 1.0623,-2.82983 0.61893,-0.63678 1.43128,-0.95517 2.43704,-0.95518 1.09503,1e-5 1.92226,0.36899 2.48169,1.10693 0.56536,0.73797 0.84804,1.5771 0.84805,2.51739 -1e-5,0.83319 -0.2202,1.63363 -0.66059,2.40134 -0.4404,0.76177 -1.27655,1.77944 -2.50846,3.053 -0.78557,0.80343 -1.29441,1.35095 -1.5265,1.64256 -0.22615,0.29161 -0.41064,0.58322 -0.55347,0.87483 l 5.26688,0"
       id="path24048"
       style="font-size:18.28231049px;font-style:normal;font-variant:normal;font-weight:normal;font-stretch:condensed;line-height:125%;letter-spacing:0px;word-spacing:0px;fill:#000000;fill-opacity:1;stroke:none;font-family:Arial Narrow;-inkscape-font-specification:Arial Narrow Condensed" />
    <path
       d="m 181.91455,197.75678 c 0,-2.19601 0.29458,-3.85939 0.88376,-4.99014 0.59513,-1.13073 1.46996,-1.6961 2.62451,-1.69611 1.02362,1e-5 1.83001,0.45826 2.4192,1.37474 0.71414,1.10695 1.07122,2.87745 1.07122,5.31151 0,2.18412 -0.29459,3.84453 -0.88376,4.98122 -0.58918,1.13074 -1.46402,1.69611 -2.62451,1.69611 -1.02362,0 -1.86275,-0.49991 -2.51739,-1.49972 -0.64869,-0.99981 -0.97303,-2.72568 -0.97303,-5.17761 m 1.34796,0 c 0,2.12461 0.20234,3.54994 0.60703,4.27599 0.41064,0.72011 0.93435,1.08016 1.57114,1.08016 0.60107,0 1.10395,-0.366 1.50864,-1.09801 0.40468,-0.73201 0.60703,-2.15138 0.60703,-4.25814 0,-2.13055 -0.20532,-3.55587 -0.61595,-4.27599 -0.40469,-0.72009 -0.93138,-1.08014 -1.58007,-1.08015 -0.59513,1e-5 -1.09503,0.36601 -1.49972,1.09801 -0.39873,0.73201 -0.5981,2.15139 -0.5981,4.25813"
       id="path24050"
       style="font-size:18.28231049px;font-style:normal;font-variant:normal;font-weight:normal;font-stretch:condensed;line-height:125%;letter-spacing:0px;word-spacing:0px;fill:#000000;fill-opacity:1;stroke:none;font-family:Arial Narrow;-inkscape-font-specification:Arial Narrow Condensed" />
    <path
       d="m 190.77897,204.21094 0,-13.08685 1.41938,0 0,6.48986 5.32936,-6.48986 1.92821,0 -4.50809,5.30258 4.70449,7.78427 -1.87465,0 -3.82072,-6.62377 -1.7586,2.0889 0,4.53487 -1.41938,0"
       id="path24052"
       style="font-size:18.28231049px;font-style:normal;font-variant:normal;font-weight:normal;font-stretch:condensed;line-height:125%;letter-spacing:0px;word-spacing:0px;fill:#000000;fill-opacity:1;stroke:none;font-family:Arial Narrow;-inkscape-font-specification:Arial Narrow Condensed" />
    <path
       d="m 200.77711,204.21094 0,-13.08685 4.02603,0 c 0.81532,1e-5 1.46103,0.12796 1.93714,0.38386 0.4761,0.24996 0.8659,0.64274 1.16943,1.17835 0.3035,0.53562 0.45526,1.12777 0.45527,1.77645 -1e-5,0.60109 -0.13094,1.14266 -0.39278,1.6247 -0.26187,0.48206 -0.63085,0.86889 -1.10694,1.1605 0.62487,0.22615 1.11585,0.61299 1.47294,1.1605 0.36302,0.54157 0.54453,1.21109 0.54454,2.00855 -1e-5,0.79152 -0.16367,1.48782 -0.49098,2.0889 -0.32138,0.59513 -0.75284,1.02957 -1.2944,1.30333 -0.54157,0.2678 -1.28548,0.40171 -2.23173,0.40171 l -4.08852,0 m 1.41938,-7.58788 2.32099,0 c 0.60703,1e-5 1.03849,-0.0417 1.2944,-0.12497 0.36898,-0.12497 0.65166,-0.33327 0.84806,-0.62489 0.20234,-0.29755 0.30351,-0.69926 0.30351,-1.20513 0,-0.47014 -0.0923,-0.85995 -0.27673,-1.16942 -0.17854,-0.31541 -0.41957,-0.53263 -0.72308,-0.65167 -0.29757,-0.11901 -0.83616,-0.17852 -1.61577,-0.17854 l -2.15138,0 0,3.95462 m 0,6.04352 2.66914,0 c 0.58917,0 1.02361,-0.0536 1.30333,-0.16068 0.40468,-0.15473 0.71117,-0.40766 0.91947,-0.75879 0.21424,-0.35707 0.32136,-0.80342 0.32137,-1.33904 -1e-5,-0.49395 -0.10118,-0.91054 -0.30351,-1.24976 -0.20236,-0.34517 -0.47611,-0.59512 -0.82128,-0.74986 -0.33923,-0.16068 -0.87484,-0.24102 -1.60684,-0.24103 l -2.48168,0 0,4.49916"
       id="path24054"
       style="font-size:18.28231049px;font-style:normal;font-variant:normal;font-weight:normal;font-stretch:condensed;line-height:125%;letter-spacing:0px;word-spacing:0px;fill:#000000;fill-opacity:1;stroke:none;font-family:Arial Narrow;-inkscape-font-specification:Arial Narrow Condensed" />
    <path
       d="m 165.2688,214.41632 0,21.7425 52.5102,0 0,-21.7425 -52.5102,0 z m 7.4323,2.9582 3.6985,0 1.923,6.8554 1.9935,-6.8554 3.4806,0 3.2659,11.57 7.9611,-0.016 c 0.8358,-0.01 0.8881,-1.7376 -0.061,-1.7371 l -4.6376,-0.061 c -1.9912,0.019 -4.0925,-2.134 -3.9902,-5.0029 0.021,-2.6316 2.3174,-4.7057 5.2529,-4.7049 l 11.8264,-0.01 3.0094,4.0959 2.9358,-4.1344 4.8972,0.039 -5.3683,7.5413 5.8042,8.1791 -4.8716,-0.016 -3.3748,-4.6921 -3.2146,4.6921 -4.9677,0 5.6568,-8.0861 -2.4647,-3.5896 -10.2815,0.013 c -1.122,0.01 -1.0801,1.7766 0.01,1.7435 l 4.3331,0.067 c 1.8308,0.012 4.4069,1.9142 4.3427,4.8843 0.028,3.4531 -3.0825,5.0294 -4.5799,4.9453 l -11.3359,0.016 -1.8878,-7.067 -1.8845,7.051 -3.5799,0 -1.9679,-7.0125 -1.7307,7.0221 -4.1793,-0.026 3.987,-15.7011 z"
       id="path5024"
       style="fill:#00000f;fill-opacity:0.94117647;stroke:none" />
    <path
       d="m 225.28145,231.83545 0,-13.08685 7.23972,0 0,1.54436 -5.82035,0 0,4.05281 5.03478,0 0,1.54436 -5.03478,0 0,5.94532 -1.41937,0"
       id="path24057"
       style="font-size:18.28231049px;font-style:normal;font-variant:normal;font-weight:normal;font-stretch:condensed;line-height:125%;letter-spacing:0px;word-spacing:0px;fill:#000000;fill-opacity:1;stroke:none;font-family:Arial Narrow;-inkscape-font-specification:Arial Narrow Condensed" />
    <path
       d="m 233.9584,225.46164 c 0,-2.23172 0.49098,-3.94569 1.47294,-5.1419 0.98196,-1.20215 2.20494,-1.80323 3.66896,-1.80324 0.94625,1e-5 1.80918,0.26782 2.5888,0.80342 0.77961,0.53563 1.39557,1.31524 1.84787,2.33885 0.45824,1.01768 0.68737,2.23174 0.68738,3.64218 -10e-6,1.94012 -0.44041,3.52018 -1.32119,4.74019 -0.97006,1.34499 -2.24066,2.01748 -3.81179,2.01748 -1.58304,0 -2.85661,-0.69035 -3.82071,-2.07104 -0.87484,-1.24977 -1.31226,-2.75841 -1.31226,-4.52594 m 1.46401,0.0268 c 0,1.6128 0.3541,2.86554 1.06231,3.75823 0.71414,0.88674 1.58005,1.33011 2.59773,1.3301 1.04146,1e-5 1.91332,-0.44931 2.61558,-1.34796 0.70819,-0.89864 1.06229,-2.21982 1.0623,-3.96355 -1e-5,-1.12478 -0.18152,-2.13054 -0.54454,-3.01729 -0.27972,-0.67844 -0.70226,-1.22 -1.26762,-1.6247 -0.55943,-0.41063 -1.17241,-0.61594 -1.83894,-0.61596 -1.07124,2e-5 -1.955,0.44636 -2.65129,1.33904 -0.69035,0.8927 -1.03553,2.2734 -1.03553,4.14209"
       id="path24059"
       style="font-size:18.28231049px;font-style:normal;font-variant:normal;font-weight:normal;font-stretch:condensed;line-height:125%;letter-spacing:0px;word-spacing:0px;fill:#000000;fill-opacity:1;stroke:none;font-family:Arial Narrow;-inkscape-font-specification:Arial Narrow Condensed" />
    <path
       d="m 246.02758,231.83545 0,-13.08685 4.75804,0 c 0.99386,1e-5 1.72587,0.12201 2.19602,0.366 0.4761,0.24402 0.86591,0.65168 1.16943,1.22299 0.30351,0.56538 0.45526,1.223 0.45527,1.97285 -10e-6,0.98792 -0.25889,1.78836 -0.77664,2.40134 -0.51182,0.61298 -1.2587,1.00279 -2.24065,1.16942 0.39872,0.23806 0.70224,0.47908 0.91054,0.72308 0.42253,0.49991 0.79449,1.05636 1.11587,1.66933 l 1.87465,3.56184 -1.78539,0 -1.4283,-2.72271 c -0.55348,-1.06527 -0.97304,-1.7824 -1.2587,-2.15138 -0.27971,-0.36898 -0.55347,-0.61595 -0.82127,-0.74094 -0.26186,-0.13092 -0.63084,-0.19638 -1.10694,-0.19639 l -1.64255,0 0,5.81142 -1.41938,0 m 1.41938,-7.31114 3.053,0 c 0.66654,10e-6 1.1724,-0.0803 1.51758,-0.24103 0.34516,-0.16067 0.61892,-0.4136 0.82127,-0.75878 0.20234,-0.34517 0.30351,-0.74688 0.30352,-1.20514 -10e-6,-0.66058 -0.19343,-1.17834 -0.58025,-1.55328 -0.38684,-0.38087 -0.96114,-0.57131 -1.72289,-0.57132 l -3.39223,0 0,4.32955"
       id="path24061"
       style="font-size:18.28231049px;font-style:normal;font-variant:normal;font-weight:normal;font-stretch:condensed;line-height:125%;letter-spacing:0px;word-spacing:0px;fill:#000000;fill-opacity:1;stroke:none;font-family:Arial Narrow;-inkscape-font-specification:Arial Narrow Condensed" />
    <path
       d="m 256.81129,231.83545 0,-13.08685 2.13353,0 2.54417,9.26613 0.50883,1.93714 c 0.12497,-0.48205 0.31541,-1.18132 0.57133,-2.09782 l 2.57095,-9.10545 1.91035,0 0,13.08685 -1.36581,0 0,-10.95332 -3.12442,10.95332 -1.27655,0 -3.10656,-11.14078 0,11.14078 -1.36582,0"
       id="path24063"
       style="font-size:18.28231049px;font-style:normal;font-variant:normal;font-weight:normal;font-stretch:condensed;line-height:125%;letter-spacing:0px;word-spacing:0px;fill:#000000;fill-opacity:1;stroke:none;font-family:Arial Narrow;-inkscape-font-specification:Arial Narrow Condensed" />
    <path
       d="m 268.17525,231.83545 4.12423,-13.08685 1.5265,0 4.39204,13.08685 -1.6247,0 -1.24977,-3.96355 -4.4813,0 -1.17836,3.96355 -1.50864,0 m 3.09763,-5.374 3.63326,0 -1.11587,-3.62433 c -0.34518,-1.11287 -0.59811,-2.01747 -0.75879,-2.71378 -0.13688,0.83914 -0.3303,1.67232 -0.58024,2.49954 l -1.17836,3.83857"
       id="path24065"
       style="font-size:18.28231049px;font-style:normal;font-variant:normal;font-weight:normal;font-stretch:condensed;line-height:125%;letter-spacing:0px;word-spacing:0px;fill:#000000;fill-opacity:1;stroke:none;font-family:Arial Narrow;-inkscape-font-specification:Arial Narrow Condensed" />
    <path
       d="m 280.99429,231.83545 0,-11.54249 -3.53506,0 0,-1.54436 8.50735,0 0,1.54436 -3.55291,0 0,11.54249 -1.41938,0"
       id="path24067"
       style="font-size:18.28231049px;font-style:normal;font-variant:normal;font-weight:normal;font-stretch:condensed;line-height:125%;letter-spacing:0px;word-spacing:0px;fill:#000000;fill-opacity:1;stroke:none;font-family:Arial Narrow;-inkscape-font-specification:Arial Narrow Condensed" />
    <path
       d="m 290.17115,231.83545 0,-11.54249 -3.53506,0 0,-1.54436 8.50735,0 0,1.54436 -3.55291,0 0,11.54249 -1.41938,0"
       id="path24069"
       style="font-size:18.28231049px;font-style:normal;font-variant:normal;font-weight:normal;font-stretch:condensed;line-height:125%;letter-spacing:0px;word-spacing:0px;fill:#000000;fill-opacity:1;stroke:none;font-family:Arial Narrow;-inkscape-font-specification:Arial Narrow Condensed" />
    <path
       d="m 296.62531,231.83545 0,-13.08685 7.75748,0 0,1.54436 -6.33811,0 0,4.00818 5.9364,0 0,1.53543 -5.9364,0 0,4.45452 6.58806,0 0,1.54436 -8.00743,0"
       id="path24071"
       style="font-size:18.28231049px;font-style:normal;font-variant:normal;font-weight:normal;font-stretch:condensed;line-height:125%;letter-spacing:0px;word-spacing:0px;fill:#000000;fill-opacity:1;stroke:none;font-family:Arial Narrow;-inkscape-font-specification:Arial Narrow Condensed" />
    <path
       d="m 306.56096,231.83545 0,-13.08685 3.70466,0 c 0.91649,1e-5 1.61279,0.0804 2.0889,0.24103 0.62488,0.2083 1.16644,0.58918 1.6247,1.14264 0.45824,0.55348 0.81531,1.25275 1.07123,2.09782 0.25589,0.83914 0.38384,1.83598 0.38385,2.99052 -1e-5,1.48187 -0.21723,2.74056 -0.65166,3.77608 -0.43445,1.02957 -0.99387,1.76158 -1.67826,2.19602 -0.67845,0.42849 -1.56817,0.64274 -2.66915,0.64274 l -3.87427,0 m 1.41937,-1.54436 2.28529,0 c 0.92244,1e-5 1.62172,-0.14878 2.09783,-0.44634 0.47609,-0.30351 0.84209,-0.78854 1.09801,-1.45509 0.33921,-0.88673 0.50882,-1.94903 0.50883,-3.1869 -10e-6,-1.32713 -0.18152,-2.3686 -0.54454,-3.12442 -0.35709,-0.76176 -0.81831,-1.27059 -1.38367,-1.5265 -0.38089,-0.17258 -0.98494,-0.25887 -1.81216,-0.25888 l -2.24959,0 0,9.99813"
       id="path24073"
       style="font-size:18.28231049px;font-style:normal;font-variant:normal;font-weight:normal;font-stretch:condensed;line-height:125%;letter-spacing:0px;word-spacing:0px;fill:#000000;fill-opacity:1;stroke:none;font-family:Arial Narrow;-inkscape-font-specification:Arial Narrow Condensed" />
    <path
       d="m 81.0447,328.31282 c -8.1063,0 -14.6188,6.1336 -14.6188,13.7683 l 0,115.8495 0,16.8039 c 0,0.2386 -0.013,0.4799 0,0.7155 l 0,171.5518 458.6183,0 0,-172.2673 0,-16.8039 0,-115.8495 c 0,-7.6347 -6.5126,-13.7683 -14.619,-13.7683 l -429.3805,0 z"
       id="path3329"
       style="fill:#ffffff;fill-opacity:1;stroke:none;stroke-width:0;marker-start:url(#TriangleOutL)" />
    <path
       d="m 81.0313,300.20312 c -8.1063,0 -14.5938,6.6604 -14.5938,14.9687 l 0,28.4688 458.5938,0 0,-28.4688 c 0,-8.3078 -6.4873,-14.9687 -14.5938,-14.9687 l -429.4062,0 z m -14.5938,74.6563 0,3.8437 458.5938,0 0,-3.8437 -458.5938,0 z m 0,35.0312 0,3.8438 458.5938,0 0,-3.8438 -458.5938,0 z m 0,35.0312 0,3.8438 458.5938,0 0,-3.8438 -458.5938,0 z m 0,35.0626 0,3.8437 458.5938,0 0,-3.8437 -458.5938,0 z m 0,35.0312 0,3.8438 458.5938,0 0,-3.8438 -458.5938,0 z m 0,35.0312 0,3.8438 458.5938,0 0,-3.8438 -458.5938,0 z m 0,35.0626 0,3.8437 458.5938,0 0,-3.8437 -458.5938,0 z m 0,35.0312 0,26.875 458.5938,0 0,-26.875 -458.5938,0 z"
       id="path4982"
       style="fill:#256291;fill-opacity:1;stroke:none;stroke-width:0;marker-start:url(#TriangleOutL)" />
    <path
       d="m 111.46749,388.5645 c -2.83737,0.64002 -6.0907,1.67469 -9.76,3.104 -4.117357,1.57868 -7.61602,3.25335 -10.496005,5.024 -4.480008,2.75201 -6.997339,5.47201 -7.552,8.16 -0.277338,1.472 0.287995,2.56 1.696,3.264 1.066659,0.53333 2.431991,0.8 4.096,0.8 7.594648,0 11.925315,-2.688 12.992005,-8.064 l 0.032,-0.288 c -3.136026,1.10934 -5.088024,1.66401 -5.856005,1.664 -0.938684,1e-5 -1.312017,-0.46933 -1.12,-1.408 0.127983,-0.66132 0.533316,-1.08799 1.216,-1.28 0.298648,-0.0853 0.895981,-0.12799 1.792,-0.128 0.149313,10e-6 0.373313,0.0107 0.672,0.032 0.213313,0.0213 0.426646,0.0213 0.64,0 0.447975,-0.0213 1.919975,-0.41599 4.416005,-1.184 1.19463,-0.36266 2.0373,-0.53332 2.528,-0.512 l 0.512,0.032 c -0.44803,1.36534 -1.26937,2.89068 -2.464,4.576 -0.53336,0.74667 -1.69603,2.22934 -3.488,4.448 -1.514693,1.87733 -2.581358,3.36 -3.200005,4.448 -0.448019,0.832 -0.992018,1.248 -1.632,1.248 -0.768017,0 -1.23735,-0.29867 -1.408,-0.896 0.213317,-0.53334 0.65065,-1.152 1.312,-1.856 -0.170684,-0.21333 -0.277351,-0.32 -0.32,-0.32 -0.149351,0.0213 -0.30935,0.032 -0.48,0.032 -0.682683,0 -2.272015,0.128 -4.768,0.384 -1.237344,0.128 -2.197343,0.192 -2.88,0.192 -1.877341,0 -3.392006,-0.30933 -4.544,-0.928 -1.536003,-0.832 -2.144003,-2.06933 -1.824,-3.712 0.447997,-2.23999 2.634661,-4.90666 6.56,-8 2.815988,-2.21865 6.314651,-4.43732 10.496,-6.656 4.970645,-2.64531 8.661305,-3.96798 11.072005,-3.968 1.27996,2e-5 1.86663,0.59736 1.76,1.792"
       id="path24141"
       style="font-size:32px;font-style:italic;font-variant:normal;font-weight:normal;font-stretch:normal;line-height:125%;letter-spacing:0px;word-spacing:0px;fill:#000000;fill-opacity:1;stroke:none;font-family:Handwriting -Dakota;-inkscape-font-specification:Handwriting -Dakota Italic" />
    <path
       d="m 120.98299,410.2925 c -0.66135,1.024 -1.31202,1.536 -1.952,1.536 -0.72535,0 -1.41868,-0.53334 -2.08,-1.6 -0.53335,-0.81067 -0.91735,-1.68533 -1.152,-2.624 -1.96268,0.85333 -3.28535,1.408 -3.968,1.664 -1.70668,0.61867 -3.04001,0.928 -4,0.928 -1.68534,0 -2.35734,-0.85333 -2.016,-2.56 0.55466,-2.752 2.53866,-5.20533 5.952,-7.36 1.13065,-0.70399 2.60265,-1.46132 4.416,-2.272 2.17598,-0.95999 3.67998,-1.43999 4.512,-1.44 0.57598,10e-6 1.05598,0.30935 1.44,0.928 0.40531,0.61868 0.54398,1.22668 0.416,1.824 -0.23469,1.17334 -1.01335,2.72001 -2.336,4.64 -1.30135,1.89867 -1.98402,2.99734 -2.048,3.296 -0.19202,1.024 -0.17068,1.728 0.064,2.112 0.19198,0.32 1.10931,0.62933 2.752,0.928 m 1.024,-10.816 c 0.14931,-0.76799 -0.43736,-1.15199 -1.76,-1.152 -1.94135,10e-6 -3.63735,0.43734 -5.088,1.312 -1.36535,0.81068 -2.81601,1.89867 -4.352,3.264 -1.98401,1.728 -3.07201,3.09334 -3.264,4.096 -0.12801,0.59733 0.032,1.056 0.48,1.376 0.40532,0.27733 0.92799,0.416 1.568,0.416 1.85599,0 3.57332,-0.65067 5.152,-1.952 0.38398,-0.32 1.53598,-1.54666 3.456,-3.68 1.17331,-1.32266 2.18665,-1.98399 3.04,-1.984 0.40531,-0.59732 0.66131,-1.16266 0.768,-1.696 m -1.248,11.456 0.032,-0.096 0.064,0 0.032,-0.096 -0.064,0 0.032,-0.192 0.128,0 -0.032,0.064 -0.064,0 0,0.064 0.064,0 -0.064,0.256 -0.128,0"
       id="path24143"
       style="font-size:32px;font-style:italic;font-variant:normal;font-weight:normal;font-stretch:normal;line-height:125%;letter-spacing:0px;word-spacing:0px;fill:#000000;fill-opacity:1;stroke:none;font-family:Handwriting -Dakota;-inkscape-font-specification:Handwriting -Dakota Italic" />
    <path
       d="m 148.36099,400.0525 c -0.21337,1.08801 -0.83203,2.24001 -1.856,3.456 -0.53336,0.61867 -1.33336,1.55734 -2.4,2.816 -1.30136,1.57867 -1.99469,2.592 -2.08,3.04 -0.0214,0.14933 -0.0427,0.512 -0.064,1.088 -3e-5,0.23467 -0.0214,0.45866 -0.064,0.672 -0.0854,0.46933 -0.44803,0.82133 -1.088,1.056 -0.87469,-0.23467 -1.18402,-0.98134 -0.928,-2.24 0.21331,-1.088 0.87464,-2.31467 1.984,-3.68 2.3893,-2.96533 3.6693,-4.86399 3.84,-5.696 -1.36536,0.38401 -3.24269,1.23734 -5.632,2.56 -1.15202,0.66134 -2.88002,1.64267 -5.184,2.944 -2.70935,1.49333 -4.37335,2.24 -4.992,2.24 l -0.48,-0.096 c 0.14932,-0.46933 1.29065,-1.568 3.424,-3.296 0.93865,-0.768 1.49331,-1.57866 1.664,-2.432 0.064,-0.31999 0.064,-0.65066 0,-0.992 -2e-5,-0.0427 -0.0854,-0.36266 -0.256,-0.96 -1.45068,0.66134 -3.20002,1.82401 -5.248,3.488 l -4.992,4.032 c -1.62134,1.32267 -2.85867,1.984 -3.712,1.984 l 0.128,-0.576 c 0.10666,-0.576 1.50399,-2.09066 4.192,-4.544 1.49332,-1.34399 2.39999,-2.26133 2.72,-2.752 0.72532,-1.02399 1.39732,-1.56799 2.016,-1.632 0.44799,-0.0427 1.81332,-0.54399 4.096,-1.504 1.02398,-0.42666 1.72798,-0.63999 2.112,-0.64 0.89598,10e-6 1.40798,0.78934 1.536,2.368 0.0213,0.29867 0.0426,0.94934 0.064,1.952 0.93864,-0.49066 2.65598,-1.35466 5.152,-2.592 2.34664,-1.15199 4.06397,-1.72799 5.152,-1.728 0.83197,10e-6 1.13063,0.55468 0.896,1.664"
       id="path24145"
       style="font-size:32px;font-style:italic;font-variant:normal;font-weight:normal;font-stretch:normal;line-height:125%;letter-spacing:0px;word-spacing:0px;fill:#000000;fill-opacity:1;stroke:none;font-family:Handwriting -Dakota;-inkscape-font-specification:Handwriting -Dakota Italic" />
    <path
       d="m 162.28499,407.9245 c -0.76802,0.704 -2.38935,1.23733 -4.864,1.6 -1.72801,0.256 -3.46668,0.384 -5.216,0.384 -3.60534,0 -5.20534,-1.03467 -4.8,-3.104 0.51199,-2.53866 2.82666,-4.71466 6.944,-6.528 1.42932,-0.63999 2.89065,-1.16266 4.384,-1.568 1.30131,0.32001 2.15465,0.55468 2.56,0.704 0.89598,0.32001 1.21598,1.12001 0.96,2.4 -0.21335,1.13067 -1.10935,2.02667 -2.688,2.688 -1.34402,0.55467 -2.64535,0.832 -3.904,0.832 -1.96268,0 -3.30668,-0.29866 -4.032,-0.896 -1.17334,0.512 -1.83467,1.17334 -1.984,1.984 -0.29867,1.42933 0.85332,2.144 3.456,2.144 0.95999,0 2.09065,-0.064 3.392,-0.192 3.07198,-0.29867 5.00265,-0.448 5.792,-0.448 m -2.048,-6.144 c -0.51202,-0.68266 -1.22668,-1.02399 -2.144,-1.024 -0.66135,10e-6 -1.29068,0.13867 -1.888,0.416 -0.0214,0.0213 -0.61868,0.32001 -1.792,0.896 0.42665,1.02401 1.19465,1.53601 2.304,1.536 1.25865,1e-5 2.43198,-0.60799 3.52,-1.824"
       id="path24147"
       style="font-size:32px;font-style:italic;font-variant:normal;font-weight:normal;font-stretch:normal;line-height:125%;letter-spacing:0px;word-spacing:0px;fill:#000000;fill-opacity:1;stroke:none;font-family:Handwriting -Dakota;-inkscape-font-specification:Handwriting -Dakota Italic" />
    <path
       d="m 184.78999,394.7085 c -0.40536,1.00268 -1.34403,1.70668 -2.816,2.112 -0.87469,0.21335 -2.43202,0.58668 -4.672,1.12 -1.94135,0.46934 -3.41335,1.13068 -4.416,1.984 2.55998,0.66134 4.14931,1.12001 4.768,1.376 2.15464,0.87467 3.12531,1.88801 2.912,3.04 -0.34136,1.664 -2.05869,3.22133 -5.152,4.672 -2.70935,1.25867 -4.98135,1.888 -6.816,1.888 -1.51468,0 -2.78401,-0.58667 -3.808,-1.76 -1.10934,-1.28 -1.47201,-2.64533 -1.088,-4.096 l 0.128,-0.48 c 0.55466,0.21334 1.23733,1.10934 2.048,2.688 0.78932,1.472 1.58932,2.208 2.4,2.208 1.38665,0 3.26399,-0.46933 5.632,-1.408 2.77331,-1.088 4.27731,-2.21866 4.512,-3.392 0.14931,-0.83199 -0.46935,-1.47199 -1.856,-1.92 -0.064,10e-6 -1.57868,-0.40533 -4.544,-1.216 -1.64268,-0.44799 -2.66668,-0.97066 -3.072,-1.568 0.78932,-0.70399 2.20799,-1.45066 4.256,-2.24 1.32265,-0.51199 3.26398,-1.13065 5.824,-1.856 2.75198,-0.78932 4.38397,-1.26932 4.896,-1.44 0.23464,0.14935 0.52264,0.24535 0.864,0.288"
       id="path24149"
       style="font-size:32px;font-style:italic;font-variant:normal;font-weight:normal;font-stretch:normal;line-height:125%;letter-spacing:0px;word-spacing:0px;fill:#000000;fill-opacity:1;stroke:none;font-family:Handwriting -Dakota;-inkscape-font-specification:Handwriting -Dakota Italic" />
    <path
       d="m 113.77149,423.4605 c -0.36271,0.91735 -1.13071,2.33602 -2.304,4.256 -0.38404,0.64001 -1.5467,2.46401 -3.488,5.472 -0.59737,0.89601 -1.52537,2.37867 -2.784,4.448 -0.3627,0.72534 -0.92803,1.824 -1.696,3.296 -0.96003,1.81333 -1.63203,2.79467 -2.016,2.944 -0.36269,0.14933 -0.99203,0.288 -1.888005,0.416 l 0.128,-0.992 c 0.213312,-1.088 0.991975,-2.67733 2.336005,-4.768 l 3.936,-6.048 c 1.32263,-2.04799 2.11197,-3.71199 2.368,-4.992 -0.59737,0.27735 -2.04803,1.34401 -4.352,3.2 l -5.760005,4.704 c -1.984018,1.62134 -3.328016,2.43201 -4.032,2.432 -0.896015,10e-6 -1.130681,-1.64266 -0.704,-4.928 0.255985,-2.04799 0.373318,-3.24265 0.352,-3.584 -1.066681,1.19468 -2.453346,3.14668 -4.16,5.856 -1.706676,2.68801 -3.104008,4.64 -4.192,5.856 -1.813338,2.00533 -3.43467,3.008 -4.864,3.008 l 2.496,-3.84 c 0.831995,-1.25866 2.421326,-3.67999 4.768,-7.264 1.706656,-2.58132 2.655988,-3.97865 2.848,-4.192 0.426654,-0.51199 1.30132,-1.07732 2.624,-1.696 0.127985,-0.14932 0.394652,-0.63998 0.8,-1.472 0.255984,-0.49065 0.703984,-0.98131 1.344,-1.472 0.682649,0.74668 1.066649,1.89868 1.152,3.456 0.02132,0.40535 -0.160018,2.74135 -0.544,7.008 l 0.288,0 c 0.703982,10e-6 2.282647,-1.06666 4.736005,-3.2 l 6.912,-6.016 c 2.49596,-2.15465 4.06396,-3.23198 4.704,-3.232 0.25596,0.14935 0.51196,0.29869 0.768,0.448 l 0.224,0.896"
       id="path24157"
       style="font-size:32px;font-style:italic;font-variant:normal;font-weight:normal;font-stretch:normal;line-height:125%;letter-spacing:0px;word-spacing:0px;fill:#000000;fill-opacity:1;stroke:none;font-family:Handwriting -Dakota;-inkscape-font-specification:Handwriting -Dakota Italic" />
    <path
       d="m 128.12449,438.0525 c -0.38403,2.00534 -2.14402,3.57333 -5.28,4.704 -2.36802,0.85333 -4.76802,1.28 -7.2,1.28 -5.09867,0 -7.39201,-1.25867 -6.88,-3.776 0.34133,-1.792 2.34666,-3.53066 6.016,-5.216 3.26398,-1.49332 5.90931,-2.23999 7.936,-2.24 1.79198,10e-6 3.18931,0.41601 4.192,1.248 1.17331,0.93867 1.57864,2.27201 1.216,4 m -1.696,-0.192 c 0.19198,-1.04533 -0.19202,-1.83466 -1.152,-2.368 -0.76802,-0.42666 -1.72802,-0.63999 -2.88,-0.64 -1.92002,10e-6 -4.02135,0.53334 -6.304,1.6 -2.38934,1.08801 -4.21334,2.42134 -5.472,4 1.17332,1.472 2.77332,2.208 4.8,2.208 1.94132,0 3.99998,-0.352 6.176,-1.056 2.90131,-0.93866 4.51198,-2.18666 4.832,-3.744"
       id="path24159"
       style="font-size:32px;font-style:italic;font-variant:normal;font-weight:normal;font-stretch:normal;line-height:125%;letter-spacing:0px;word-spacing:0px;fill:#000000;fill-opacity:1;stroke:none;font-family:Handwriting -Dakota;-inkscape-font-specification:Handwriting -Dakota Italic" />
    <path
       d="m 142.39949,436.7085 -4.704,-1.632 c -1.23735,10e-6 -2.49601,0.84267 -3.776,2.528 -0.44801,0.576 -1.29068,1.94134 -2.528,4.096 -1.21601,2.13333 -2.70934,3.2 -4.48,3.2 0.27733,-0.87467 1.06666,-2.08 2.368,-3.616 1.42932,-1.664 2.32532,-2.89066 2.688,-3.68 0.29866,-0.66133 0.63999,-1.74933 1.024,-3.264 0.14932,-0.63999 0.42666,-1.30132 0.832,-1.984 0.57599,-0.95999 1.10932,-1.46132 1.6,-1.504 l 0.608,0.032 -0.096,2.176 c 0.0213,0.55468 0.45865,0.83201 1.312,0.832 l 1.088,0 c 0.21332,-0.0213 0.37332,-0.032 0.48,-0.032 2.45331,-0.0427 3.64798,0.90667 3.584,2.848"
       id="path24161"
       style="font-size:32px;font-style:italic;font-variant:normal;font-weight:normal;font-stretch:normal;line-height:125%;letter-spacing:0px;word-spacing:0px;fill:#000000;fill-opacity:1;stroke:none;font-family:Handwriting -Dakota;-inkscape-font-specification:Handwriting -Dakota Italic" />
    <path
       d="m 156.97249,441.9245 c -0.76802,0.704 -2.38935,1.23733 -4.864,1.6 -1.72801,0.256 -3.46668,0.384 -5.216,0.384 -3.60534,0 -5.20534,-1.03467 -4.8,-3.104 0.51199,-2.53866 2.82666,-4.71466 6.944,-6.528 1.42932,-0.63999 2.89065,-1.16266 4.384,-1.568 1.30131,0.32001 2.15465,0.55468 2.56,0.704 0.89598,0.32001 1.21598,1.12001 0.96,2.4 -0.21335,1.13067 -1.10935,2.02667 -2.688,2.688 -1.34402,0.55467 -2.64535,0.832 -3.904,0.832 -1.96268,0 -3.30668,-0.29866 -4.032,-0.896 -1.17334,0.512 -1.83467,1.17334 -1.984,1.984 -0.29867,1.42933 0.85332,2.144 3.456,2.144 0.95999,0 2.09065,-0.064 3.392,-0.192 3.07198,-0.29867 5.00265,-0.448 5.792,-0.448 m -2.048,-6.144 c -0.51202,-0.68266 -1.22668,-1.02399 -2.144,-1.024 -0.66135,10e-6 -1.29068,0.13867 -1.888,0.416 -0.0214,0.0213 -0.61868,0.32001 -1.792,0.896 0.42665,1.02401 1.19465,1.53601 2.304,1.536 1.25865,1e-5 2.43198,-0.60799 3.52,-1.824"
       id="path24163"
       style="font-size:32px;font-style:italic;font-variant:normal;font-weight:normal;font-stretch:normal;line-height:125%;letter-spacing:0px;word-spacing:0px;fill:#000000;fill-opacity:1;stroke:none;font-family:Handwriting -Dakota;-inkscape-font-specification:Handwriting -Dakota Italic" />
    <path
       d="m 186.41599,435.0765 c -0.0854,0.46934 -0.46935,1.28001 -1.152,2.432 -0.32002,0.55467 -0.51202,0.992 -0.576,1.312 -0.66135,3.24267 -1.40802,5.94133 -2.24,8.096 -2.66668,6.91199 -6.79468,10.36799 -12.384,10.368 -1.00267,-10e-6 -2.24,-0.30935 -3.712,-0.928 -1.77067,-0.72535 -2.57066,-1.50401 -2.4,-2.336 0.0213,-0.19201 0.192,-0.57601 0.512,-1.152 l 0.32,0 c 0.42667,0.61866 1.23733,1.23732 2.432,1.856 1.19466,0.61865 2.18666,0.92799 2.976,0.928 2.58133,-10e-6 4.99199,-1.23734 7.232,-3.712 1.96265,-2.21867 3.22132,-4.69334 3.776,-7.424 0.12798,-0.66133 0.10665,-1.216 -0.064,-1.664 -0.38402,-0.17067 -0.69335,-0.256 -0.928,-0.256 -0.12801,0 -0.36268,0.0427 -0.704,0.128 -0.34135,0.0853 -0.59735,0.128 -0.768,0.128 -2.06934,0 -3.55201,-0.11733 -4.448,-0.352 -1.83467,-0.46933 -2.60267,-1.42933 -2.304,-2.88 0.40533,-2.04799 1.94132,-3.87199 4.608,-5.472 2.45332,-1.47199 4.73598,-2.20799 6.848,-2.208 2.41065,1e-5 3.40265,1.04534 2.976,3.136 m -1.984,-0.384 c 0.14931,-0.70399 -0.42669,-1.05599 -1.728,-1.056 -1.36535,10e-6 -3.00801,0.57601 -4.928,1.728 -2.11201,1.25867 -3.29601,2.53867 -3.552,3.84 -0.27734,1.42934 0.98132,2.144 3.776,2.144 0.72532,0 1.46132,-0.10666 2.208,-0.32 1.06665,-0.29866 1.65332,-0.72533 1.76,-1.28 0.0213,-0.14933 0.0107,-0.36266 -0.032,-0.64 -0.0427,-0.27733 -0.0427,-0.48 0,-0.608 0.0427,-0.256 0.58665,-1.03466 1.632,-2.336 0.51198,-0.61866 0.79998,-1.10933 0.864,-1.472"
       id="path24165"
       style="font-size:32px;font-style:italic;font-variant:normal;font-weight:normal;font-stretch:normal;line-height:125%;letter-spacing:0px;word-spacing:0px;fill:#000000;fill-opacity:1;stroke:none;font-family:Handwriting -Dakota;-inkscape-font-specification:Handwriting -Dakota Italic" />
    <path
       d="m 201.04549,444.2925 c -0.66135,1.024 -1.31202,1.536 -1.952,1.536 -0.72535,0 -1.41868,-0.53334 -2.08,-1.6 -0.53335,-0.81067 -0.91735,-1.68533 -1.152,-2.624 -1.96268,0.85333 -3.28535,1.408 -3.968,1.664 -1.70668,0.61867 -3.04001,0.928 -4,0.928 -1.68534,0 -2.35734,-0.85333 -2.016,-2.56 0.55466,-2.752 2.53866,-5.20533 5.952,-7.36 1.13065,-0.70399 2.60265,-1.46132 4.416,-2.272 2.17598,-0.95999 3.67998,-1.43999 4.512,-1.44 0.57598,10e-6 1.05598,0.30935 1.44,0.928 0.40531,0.61868 0.54398,1.22668 0.416,1.824 -0.23469,1.17334 -1.01335,2.72001 -2.336,4.64 -1.30135,1.89867 -1.98402,2.99734 -2.048,3.296 -0.19202,1.024 -0.17068,1.728 0.064,2.112 0.19198,0.32 1.10931,0.62933 2.752,0.928 m 1.024,-10.816 c 0.14931,-0.76799 -0.43736,-1.15199 -1.76,-1.152 -1.94135,10e-6 -3.63735,0.43734 -5.088,1.312 -1.36535,0.81068 -2.81601,1.89867 -4.352,3.264 -1.98401,1.728 -3.07201,3.09334 -3.264,4.096 -0.12801,0.59733 0.032,1.056 0.48,1.376 0.40532,0.27733 0.92799,0.416 1.568,0.416 1.85599,0 3.57332,-0.65067 5.152,-1.952 0.38398,-0.32 1.53598,-1.54666 3.456,-3.68 1.17331,-1.32266 2.18665,-1.98399 3.04,-1.984 0.40531,-0.59732 0.66131,-1.16266 0.768,-1.696 m -1.248,11.456 0.032,-0.096 0.064,0 0.032,-0.096 -0.064,0 0.032,-0.192 0.128,0 -0.032,0.064 -0.064,0 0,0.064 0.064,0 -0.064,0.256 -0.128,0"
       id="path24167"
       style="font-size:32px;font-style:italic;font-variant:normal;font-weight:normal;font-stretch:normal;line-height:125%;letter-spacing:0px;word-spacing:0px;fill:#000000;fill-opacity:1;stroke:none;font-family:Handwriting -Dakota;-inkscape-font-specification:Handwriting -Dakota Italic" />
    <path
       d="m 228.42349,434.0525 c -0.21337,1.08801 -0.83203,2.24001 -1.856,3.456 -0.53336,0.61867 -1.33336,1.55734 -2.4,2.816 -1.30136,1.57867 -1.99469,2.592 -2.08,3.04 -0.0214,0.14933 -0.0427,0.512 -0.064,1.088 -3e-5,0.23467 -0.0214,0.45866 -0.064,0.672 -0.0854,0.46933 -0.44803,0.82133 -1.088,1.056 -0.87469,-0.23467 -1.18402,-0.98134 -0.928,-2.24 0.21331,-1.088 0.87464,-2.31467 1.984,-3.68 2.3893,-2.96533 3.6693,-4.86399 3.84,-5.696 -1.36536,0.38401 -3.24269,1.23734 -5.632,2.56 -1.15202,0.66134 -2.88002,1.64267 -5.184,2.944 -2.70935,1.49333 -4.37335,2.24 -4.992,2.24 l -0.48,-0.096 c 0.14932,-0.46933 1.29065,-1.568 3.424,-3.296 0.93865,-0.768 1.49331,-1.57866 1.664,-2.432 0.064,-0.31999 0.064,-0.65066 0,-0.992 -2e-5,-0.0427 -0.0854,-0.36266 -0.256,-0.96 -1.45068,0.66134 -3.20002,1.82401 -5.248,3.488 l -4.992,4.032 c -1.62134,1.32267 -2.85867,1.984 -3.712,1.984 l 0.128,-0.576 c 0.10666,-0.576 1.50399,-2.09066 4.192,-4.544 1.49332,-1.34399 2.39999,-2.26133 2.72,-2.752 0.72532,-1.02399 1.39732,-1.56799 2.016,-1.632 0.44799,-0.0427 1.81332,-0.54399 4.096,-1.504 1.02398,-0.42666 1.72798,-0.63999 2.112,-0.64 0.89598,10e-6 1.40798,0.78934 1.536,2.368 0.0213,0.29867 0.0426,0.94934 0.064,1.952 0.93864,-0.49066 2.65598,-1.35466 5.152,-2.592 2.34664,-1.15199 4.06397,-1.72799 5.152,-1.728 0.83197,10e-6 1.13063,0.55468 0.896,1.664"
       id="path24169"
       style="font-size:32px;font-style:italic;font-variant:normal;font-weight:normal;font-stretch:normal;line-height:125%;letter-spacing:0px;word-spacing:0px;fill:#000000;fill-opacity:1;stroke:none;font-family:Handwriting -Dakota;-inkscape-font-specification:Handwriting -Dakota Italic" />
    <path
       d="m 242.34749,441.9245 c -0.76802,0.704 -2.38935,1.23733 -4.864,1.6 -1.72801,0.256 -3.46668,0.384 -5.216,0.384 -3.60534,0 -5.20534,-1.03467 -4.8,-3.104 0.51199,-2.53866 2.82666,-4.71466 6.944,-6.528 1.42932,-0.63999 2.89065,-1.16266 4.384,-1.568 1.30131,0.32001 2.15465,0.55468 2.56,0.704 0.89598,0.32001 1.21598,1.12001 0.96,2.4 -0.21335,1.13067 -1.10935,2.02667 -2.688,2.688 -1.34402,0.55467 -2.64535,0.832 -3.904,0.832 -1.96268,0 -3.30668,-0.29866 -4.032,-0.896 -1.17334,0.512 -1.83467,1.17334 -1.984,1.984 -0.29867,1.42933 0.85332,2.144 3.456,2.144 0.95999,0 2.09065,-0.064 3.392,-0.192 3.07198,-0.29867 5.00265,-0.448 5.792,-0.448 m -2.048,-6.144 c -0.51202,-0.68266 -1.22668,-1.02399 -2.144,-1.024 -0.66135,10e-6 -1.29068,0.13867 -1.888,0.416 -0.0214,0.0213 -0.61868,0.32001 -1.792,0.896 0.42665,1.02401 1.19465,1.53601 2.304,1.536 1.25865,1e-5 2.43198,-0.60799 3.52,-1.824"
       id="path24171"
       style="font-size:32px;font-style:italic;font-variant:normal;font-weight:normal;font-stretch:normal;line-height:125%;letter-spacing:0px;word-spacing:0px;fill:#000000;fill-opacity:1;stroke:none;font-family:Handwriting -Dakota;-inkscape-font-specification:Handwriting -Dakota Italic" />
    <path
       d="m 264.85249,428.7085 c -0.40536,1.00268 -1.34403,1.70668 -2.816,2.112 -0.87469,0.21335 -2.43202,0.58668 -4.672,1.12 -1.94135,0.46934 -3.41335,1.13068 -4.416,1.984 2.55998,0.66134 4.14931,1.12001 4.768,1.376 2.15464,0.87467 3.12531,1.88801 2.912,3.04 -0.34136,1.664 -2.05869,3.22133 -5.152,4.672 -2.70935,1.25867 -4.98135,1.888 -6.816,1.888 -1.51468,0 -2.78401,-0.58667 -3.808,-1.76 -1.10934,-1.28 -1.47201,-2.64533 -1.088,-4.096 l 0.128,-0.48 c 0.55466,0.21334 1.23733,1.10934 2.048,2.688 0.78932,1.472 1.58932,2.208 2.4,2.208 1.38665,0 3.26399,-0.46933 5.632,-1.408 2.77331,-1.088 4.27731,-2.21866 4.512,-3.392 0.14931,-0.83199 -0.46935,-1.47199 -1.856,-1.92 -0.064,10e-6 -1.57868,-0.40533 -4.544,-1.216 -1.64268,-0.44799 -2.66668,-0.97066 -3.072,-1.568 0.78932,-0.70399 2.20799,-1.45066 4.256,-2.24 1.32265,-0.51199 3.26398,-1.13065 5.824,-1.856 2.75198,-0.78932 4.38397,-1.26932 4.896,-1.44 0.23464,0.14935 0.52264,0.24535 0.864,0.288"
       id="path24173"
       style="font-size:32px;font-style:italic;font-variant:normal;font-weight:normal;font-stretch:normal;line-height:125%;letter-spacing:0px;word-spacing:0px;fill:#000000;fill-opacity:1;stroke:none;font-family:Handwriting -Dakota;-inkscape-font-specification:Handwriting -Dakota Italic" />
  </g>
  <g
     transform="translate(-3419.7187,-887.91815)"
     id="g4420">
    <g
       transform="matrix(0.76176295,0,0,0.76176295,3114.2756,1190.6924)"
       id="g4309">
      <path
         d="m 417.65625,530.0625 c -9.23959,0 -16.6875,7.44791 -16.6875,16.6875 l 0,751.1875 c 0,9.2396 7.44791,16.6875 16.6875,16.6875 l 52.21875,0 0,-3.0938 622.5312,0 0,3.0938 60.2813,0 c 9.2396,0 16.6875,-7.4479 16.6875,-16.6875 l 0,-720.5 -47.375,-47.375 -37.0312,0 0,6.21875 -64.2188,0 -10.8438,10.84375 -0.031,0 -22.46875,0 0,-15.5 -467.40625,0 -7.9375,7.9375 0,0.125 -0.125,0 -0.0312,0.0312 -0.0312,-0.0312 -36.125,0 0,-9.625 -58.09375,0 z m 0.15625,701.1875 39.5,0 0,31.5938 -39.5,0 0,-31.5938 z"
         id="path4312"
         style="fill:#000000;fill-opacity:1;stroke:none" />
    </g>
    <path
       d="m 3561.5733,1592.5938 0,67.2017 0,44.8488 0,80.3184 c 0,6.0624 4.8641,10.9265 10.9265,10.9265 l 284.0424,0 c 6.0624,0 10.9265,-4.8641 10.9265,-10.9265 l 0,-80.3184 0,-44.8488 0,-67.2017 -305.8954,0 z m 180.1331,28.3518 80.8421,0 0,159.3513 -80.8421,0 0,-159.3513 z"
       id="path4322"
       style="fill:#969696;fill-opacity:1;stroke:none" />
    <path
       d="m 3492.7634,1872.0472 c -8.1063,0 -14.6188,6.1336 -14.6188,13.7683 l 0,115.8495 0,16.8039 c 0,0.2386 -0.013,0.4799 0,0.7155 l 0,171.5518 458.6183,0 0,-172.2673 0,-16.8039 0,-115.8495 c 0,-7.6347 -6.5126,-13.7683 -14.619,-13.7683 l -429.3805,0 z"
       id="path4344"
       style="fill:#ffffff;fill-opacity:1;stroke:none;stroke-width:0;marker-start:url(#TriangleOutL)" />
    <path
       d="m 3492.75,1843.9375 c -8.1063,0 -14.5938,6.6604 -14.5938,14.9687 l 0,28.4688 458.5938,0 0,-28.4688 c 0,-8.3078 -6.4873,-14.9687 -14.5938,-14.9687 l -429.4062,0 z m -14.5938,319.9375 0,26.875 458.5938,0 0,-26.875 -458.5938,0 z"
       id="path4346"
       style="fill:#256291;fill-opacity:1;stroke:none;stroke-width:0;marker-start:url(#TriangleOutL)" />
    <rect
       width="114.0625"
       height="26.5625"
       x="3489.0625"
       y="1929.9375"
       id="rect4416"
       style="fill:#b3b3b3;fill-opacity:1;stroke-width:0;stroke-miterlimit:4;stroke-dasharray:none" />
    <rect
       width="201.5625"
       height="26.5625"
       x="3489.0625"
       y="1963.9375"
       id="rect4418"
       style="fill:#b3b3b3;fill-opacity:1;stroke-width:0;stroke-miterlimit:4;stroke-dasharray:none" />
  </g>
  <text
     x="5.9999623"
     y="30.390625"
     id="text23961"
     xml:space="preserve"
     style="font-size:10px;font-style:normal;font-weight:normal;line-height:125%;letter-spacing:0px;word-spacing:0px;fill:#000000;fill-opacity:1;stroke:none;font-family:Sans"><tspan
       x="5.9999623"
       y="30.390625"
       id="tspan23963"
       style="font-size:40px">high detail</tspan></text>
  <text
     x="7.414176"
     y="690.82837"
     id="text23965"
     xml:space="preserve"
     style="font-size:10px;font-style:normal;font-weight:normal;line-height:125%;letter-spacing:0px;word-spacing:0px;fill:#000000;fill-opacity:1;stroke:none;font-family:Sans"><tspan
       x="7.414176"
       y="690.82837"
       id="tspan23967"
       style="font-size:40px">low detail</tspan></text>
</svg>
