<?xml version="1.0" encoding="UTF-8" standalone="no"?>
<!-- Created with Inkscape (http://www.inkscape.org/) -->

<svg
   xmlns:dc="http://purl.org/dc/elements/1.1/"
   xmlns:cc="http://creativecommons.org/ns#"
   xmlns:rdf="http://www.w3.org/1999/02/22-rdf-syntax-ns#"
   xmlns:svg="http://www.w3.org/2000/svg"
   xmlns="http://www.w3.org/2000/svg"
   xmlns:sodipodi="http://sodipodi.sourceforge.net/DTD/sodipodi-0.dtd"
   xmlns:inkscape="http://www.inkscape.org/namespaces/inkscape"
   version="1.1"
   width="618.82642"
   height="212"
   id="svg2"
   inkscape:version="0.48.2 r9819"
   sodipodi:docname="MSX2Logo.svg">
  <title
     id="title14448">MSX2 Logo</title>
  <sodipodi:namedview
     pagecolor="#ffffff"
     bordercolor="#666666"
     borderopacity="1"
     objecttolerance="10"
     gridtolerance="10"
     guidetolerance="10"
     inkscape:pageopacity="0"
     inkscape:pageshadow="2"
     inkscape:window-width="1055"
     inkscape:window-height="856"
     id="namedview14444"
     showgrid="false"
     inkscape:zoom="0.56881864"
     inkscape:cx="571.35962"
     inkscape:cy="69.081379"
     inkscape:window-x="0"
     inkscape:window-y="0"
     inkscape:window-maximized="0"
     inkscape:current-layer="svg2" />
  <defs
     id="defs4" />
  <metadata
     id="metadata7">
    <rdf:RDF>
      <cc:Work
         rdf:about="">
        <dc:format>image/svg+xml</dc:format>
        <dc:type
           rdf:resource="http://purl.org/dc/dcmitype/StillImage" />
        <dc:title>MSX2 Logo</dc:title>
        <cc:license
           rdf:resource="http://creativecommons.org/licenses/by-sa/3.0/" />
        <dc:creator>
          <cc:Agent>
            <dc:title>Akop Karapetyan</dc:title>
          </cc:Agent>
        </dc:creator>
        <dc:source>http://www.cocoamsx.com/</dc:source>
        <dc:subject>
          <rdf:Bag>
            <rdf:li>msx</rdf:li>
            <rdf:li>msx2</rdf:li>
            <rdf:li>cocoamsx</rdf:li>
          </rdf:Bag>
        </dc:subject>
      </cc:Work>
      <cc:License
         rdf:about="http://creativecommons.org/licenses/by-sa/3.0/">
        <cc:permits
           rdf:resource="http://creativecommons.org/ns#Reproduction" />
        <cc:permits
           rdf:resource="http://creativecommons.org/ns#Distribution" />
        <cc:requires
           rdf:resource="http://creativecommons.org/ns#Notice" />
        <cc:requires
           rdf:resource="http://creativecommons.org/ns#Attribution" />
        <cc:permits
           rdf:resource="http://creativecommons.org/ns#DerivativeWorks" />
        <cc:requires
           rdf:resource="http://creativecommons.org/ns#ShareAlike" />
      </cc:License>
    </rdf:RDF>
  </metadata>
  <path
     inkscape:connector-curvature="0"
     style="fill:#00000f;fill-opacity:0.94117647;stroke:none"
     id="rect3604"
     d="M 0,0 0,212 512,212 512,0 0,0 z m 72.46875,28.875 36.0625,0 18.75,66.8125 19.4375,-66.8125 33.9375,0 L 212.5,141.6562 290.125,141.5 c 8.14964,-0.079 8.65934,-16.9107 -0.59375,-16.9063 l -45.21875,-0.625 C 224.89759,124.1565 204.40931,103.1616 205.40625,75.1875 205.6134,49.5284 228.00214,29.3367 256.625,29.3437 l 115.3125,-0.125 29.34375,39.9688 28.65625,-40.3125 47.71875,0.3437 -52.3125,73.5625 56.5625,79.7188 -47.5,-0.1563 -32.90625,-45.75 -31.3125,45.75 -48.4375,-0.031 55.15625,-78.8438 -24.0625,-35 -100.25,0.1563 c -10.94025,0.1002 -10.53115,17.2916 0.0937,16.9687 l 42.25,0.6563 c 17.85089,0.1156 42.96913,18.6644 42.34375,47.625 0.27297,33.6688 -30.02539,49.039 -44.625,48.2187 l -110.5625,0.1563 -18.40625,-68.875 -18.375,68.7187 -34.90625,0 -19.1875,-68.375 -16.875,68.5 -40.75,-0.25 38.875,-153.0937 z" />
  <path
     inkscape:connector-curvature="0"
     style="font-size:56px;font-style:normal;font-variant:normal;font-weight:600;font-stretch:normal;line-height:125%;letter-spacing:0px;word-spacing:0px;fill:#000000;fill-opacity:1;stroke:none;font-family:Apple SD Gothic Neo;-inkscape-font-specification:Apple SD Gothic Neo Semi-Bold"
     id="path3025"
     d="m 618.82641,189.8288 -62.25707,0 c 18.1044,-27.5228 61.33337,-32.3011 61.33337,-72.6297 0,-28.6696 -19.76711,-41.4754 -43.9679,-41.4754 -33.80721,0 -47.2932,22.9358 -46.55424,53.7078 l 23.83134,0 c 0,-15.8639 5.17273,-30.1987 21.98395,-30.1987 12.19278,0 20.50603,6.4985 20.50603,19.3042 0,14.9082 -12.74699,23.5091 -28.63455,34.2125 -21.98392,15.8638 -40.82733,28.6696 -40.64259,59.2505 l 94.40166,0 0,-22.1712" />
</svg>
