<?xml version="1.0" encoding="UTF-8" standalone="no"?>
<!-- Created with Inkscape (http://www.inkscape.org/) -->

<svg
   xmlns:dc="http://purl.org/dc/elements/1.1/"
   xmlns:cc="http://creativecommons.org/ns#"
   xmlns:rdf="http://www.w3.org/1999/02/22-rdf-syntax-ns#"
   xmlns:svg="http://www.w3.org/2000/svg"
   xmlns="http://www.w3.org/2000/svg"
   xmlns:sodipodi="http://sodipodi.sourceforge.net/DTD/sodipodi-0.dtd"
   xmlns:inkscape="http://www.inkscape.org/namespaces/inkscape"
   version="1.1"
   width="512"
   height="212"
   id="svg2"
   inkscape:version="0.48.2 r9819"
   sodipodi:docname="MSXLogo.svg">
  <title
     id="title14409">MSX Logo</title>
  <sodipodi:namedview
     pagecolor="#ffffff"
     bordercolor="#666666"
     borderopacity="1"
     objecttolerance="10"
     gridtolerance="10"
     guidetolerance="10"
     inkscape:pageopacity="0"
     inkscape:pageshadow="2"
     inkscape:window-width="943"
     inkscape:window-height="699"
     id="namedview14407"
     showgrid="false"
     inkscape:zoom="0.6875"
     inkscape:cx="256"
     inkscape:cy="106"
     inkscape:window-x="483"
     inkscape:window-y="385"
     inkscape:window-maximized="0"
     inkscape:current-layer="svg2" />
  <defs
     id="defs4" />
  <metadata
     id="metadata7">
    <rdf:RDF>
      <cc:Work
         rdf:about="">
        <dc:format>image/svg+xml</dc:format>
        <dc:type
           rdf:resource="http://purl.org/dc/dcmitype/StillImage" />
        <dc:title>MSX Logo</dc:title>
        <cc:license
           rdf:resource="http://creativecommons.org/licenses/by-sa/3.0/" />
        <dc:creator>
          <cc:Agent>
            <dc:title>Akop Karapetyan</dc:title>
          </cc:Agent>
        </dc:creator>
        <dc:source>http://www.cocoamsx.com/</dc:source>
        <dc:subject>
          <rdf:Bag>
            <rdf:li>msx</rdf:li>
            <rdf:li>cocoamsx</rdf:li>
          </rdf:Bag>
        </dc:subject>
      </cc:Work>
      <cc:License
         rdf:about="http://creativecommons.org/licenses/by-sa/3.0/">
        <cc:permits
           rdf:resource="http://creativecommons.org/ns#Reproduction" />
        <cc:permits
           rdf:resource="http://creativecommons.org/ns#Distribution" />
        <cc:requires
           rdf:resource="http://creativecommons.org/ns#Notice" />
        <cc:requires
           rdf:resource="http://creativecommons.org/ns#Attribution" />
        <cc:permits
           rdf:resource="http://creativecommons.org/ns#DerivativeWorks" />
        <cc:requires
           rdf:resource="http://creativecommons.org/ns#ShareAlike" />
      </cc:License>
    </rdf:RDF>
  </metadata>
  <g
     transform="translate(26.870058,-1284.3622)"
     id="layer1">
    <path
       d="m -26.870058,1284.3622 0,212 511.999998,0 0,-212 -511.999998,0 z m 72.46875,28.875 36.0625,0 18.749998,66.8125 19.4375,-66.8125 33.9375,0 31.84375,112.7812 77.625,-0.1562 c 8.14964,-0.079 8.65934,-16.9107 -0.59375,-16.9063 l -45.21875,-0.625 c -19.41491,0.1878 -39.90319,-20.8071 -38.90625,-48.7812 0.20715,-25.6591 22.59589,-45.8508 51.21875,-45.8438 l 115.3125,-0.125 29.34375,39.9688 28.65625,-40.3125 47.71875,0.3437 -52.3125,73.5625 56.5625,79.7188 -47.5,-0.1563 -32.90625,-45.75 -31.3125,45.75 -48.4375,-0.031 55.15625,-78.8438 -24.0625,-35 -100.25,0.1563 c -10.94025,0.1002 -10.53115,17.2916 0.0937,16.9687 l 42.25,0.6563 c 17.85089,0.1156 42.96913,18.6644 42.34375,47.625 0.27297,33.6688 -30.02539,49.039 -44.625,48.2187 l -110.5625,0.1563 -18.40625,-68.875 -18.375,68.7187 -34.906248,0 -19.1875,-68.375 -16.875,68.5 -40.75,-0.25 38.875,-153.0937 z"
       id="rect3604"
       style="fill:#00000f;fill-opacity:0.94117647;stroke:none" />
  </g>
</svg>
