<?xml version="1.0" encoding="UTF-8" standalone="no"?>
<!-- Created with Inkscape (http://www.inkscape.org/) -->

<svg
   xmlns:dc="http://purl.org/dc/elements/1.1/"
   xmlns:cc="http://creativecommons.org/ns#"
   xmlns:rdf="http://www.w3.org/1999/02/22-rdf-syntax-ns#"
   xmlns:svg="http://www.w3.org/2000/svg"
   xmlns="http://www.w3.org/2000/svg"
   xmlns:sodipodi="http://sodipodi.sourceforge.net/DTD/sodipodi-0.dtd"
   xmlns:inkscape="http://www.inkscape.org/namespaces/inkscape"
   version="1.1"
   width="512.34375"
   height="184.125"
   id="svg2"
   inkscape:version="0.48.2 r9819"
   sodipodi:docname="MSXTurboRLogo.svg">
  <title
     id="title14539">MSX TurboR Logo</title>
  <sodipodi:namedview
     pagecolor="#ffffff"
     bordercolor="#666666"
     borderopacity="1"
     objecttolerance="10"
     gridtolerance="10"
     guidetolerance="10"
     inkscape:pageopacity="0"
     inkscape:pageshadow="2"
     inkscape:window-width="928"
     inkscape:window-height="814"
     id="namedview14537"
     showgrid="false"
     inkscape:zoom="0.68703873"
     inkscape:cx="256.17188"
     inkscape:cy="92.0625"
     inkscape:window-x="651"
     inkscape:window-y="330"
     inkscape:window-maximized="0"
     inkscape:current-layer="svg2" />
  <defs
     id="defs4" />
  <metadata
     id="metadata7">
    <rdf:RDF>
      <cc:Work
         rdf:about="">
        <dc:format>image/svg+xml</dc:format>
        <dc:type
           rdf:resource="http://purl.org/dc/dcmitype/StillImage" />
        <dc:title>MSX TurboR Logo</dc:title>
        <cc:license
           rdf:resource="http://creativecommons.org/licenses/by-sa/3.0/" />
        <dc:creator>
          <cc:Agent>
            <dc:title>Akop Karapetyan</dc:title>
          </cc:Agent>
        </dc:creator>
        <dc:source>http://www.cocoamsx.com/</dc:source>
        <dc:subject>
          <rdf:Bag>
            <rdf:li>msx</rdf:li>
            <rdf:li>turbo-r</rdf:li>
            <rdf:li>cocoamsx</rdf:li>
          </rdf:Bag>
        </dc:subject>
      </cc:Work>
      <cc:License
         rdf:about="http://creativecommons.org/licenses/by-sa/3.0/">
        <cc:permits
           rdf:resource="http://creativecommons.org/ns#Reproduction" />
        <cc:permits
           rdf:resource="http://creativecommons.org/ns#Distribution" />
        <cc:requires
           rdf:resource="http://creativecommons.org/ns#Notice" />
        <cc:requires
           rdf:resource="http://creativecommons.org/ns#Attribution" />
        <cc:permits
           rdf:resource="http://creativecommons.org/ns#DerivativeWorks" />
        <cc:requires
           rdf:resource="http://creativecommons.org/ns#ShareAlike" />
      </cc:License>
    </rdf:RDF>
  </metadata>
  <g
     transform="translate(26.875,-2085.8622)"
     id="layer1">
    <path
       d="m -26.875,1245.5 0,184.125 512.34375,0 0,-184.125 -512.34375,0 z m 314.03125,7.375 188.1875,0 0,168.2188 -188.1875,0 0,-168.2188 z m -263.3125,16.1562 19.125,0 9.9375,35.4376 10.3125,-35.4376 18,0 16.90625,59.8126 41.15625,-0.094 c 4.32299,-0.042 4.5958,-8.9709 -0.3125,-8.9688 L 115,1319.4688 c -10.29866,0.1 -21.185084,-11.0361 -20.65625,-25.875 0.109878,-13.6116 12.00448,-24.3474 27.1875,-24.3438 l 61.15625,-0.031 15.5625,21.1874 15.1875,-21.375 25.34375,0.1876 -27.78125,39 30.03125,42.2812 -25.1875,-0.062 -17.46875,-24.2813 -16.625,24.2813 -25.6875,-0.031 29.25,-41.8124 -12.75,-18.5626 -53.1875,0.063 c -5.80327,0.053 -5.57358,9.2025 0.0625,9.0312 l 22.40625,0.3125 c 9.46903,0.061 22.80048,9.9187 22.46875,25.2813 0.14479,17.8589 -15.94312,26.0289 -23.6875,25.5937 l -58.65625,0.062 -9.75,-36.5312 -9.75,36.4687 -18.5,0 -10.1875,-36.2813 -8.9375,36.3126 -21.625,-0.125 20.625,-81.1876 z m 304.875,0.2188 0,137.9688 31.125,0.4687 0,-54.3437 45.46875,0 0,54.0937 32.71875,0 0,-55.4687 -33.40625,-25.4376 25.21875,0 0,-34.3437 -30.4375,-22.9375 -70.6875,0 z m 31.125,29.0938 37.96875,0 0,25.4687 -37.96875,-0.25 0,-25.2187 z m -348.03125,65.0624 16.21875,0 0,11.25 15.09375,0 0,7.4063 -15.25,0 0,18.8125 15.25,0 0,6.9062 -23.84375,0 c 0,0 -3.028613,0.2193 -5.40625,-1.2812 -2.377637,-1.5005 -2.0625,-5.4687 -2.0625,-5.4688 l 0,-18.9687 -11.28125,0 0,-7.4063 11.28125,0 0,-11.25 z m 135.3125,1.0313 13.71875,0 0,11.7813 17.125,0 c 5.64425,-5e-4 10.5,4.5432 10.5,10.1874 l 0,10.7188 c 0,5.6442 -4.85575,10.2188 -10.5,10.2188 l -17.125,0 -3.53125,0 -10.1875,0 0,-10.2188 0,-10.7188 0,-21.9687 z m -24.46875,10.25 c 2.62082,-0.052 4.59375,0.031 4.59375,0.031 l 10.8125,0 0,7.4062 -15.125,0 0,25.6562 -15.5625,-0.062 0,-22.5 c 0,0 -0.35446,-4.8645 2.78125,-8 1.95981,-1.9602 8.13197,-2.4449 12.5,-2.5313 z m -69.3125,0.062 15.59375,0 c 0,14.0571 -0.15625,3.8828 -0.15625,26.125 l 10.3125,0 0,-26.125 15.9375,0 0,33.0312 -34.5,0 c 0,0 -2.872812,0.2192 -5.15625,-1.2812 -2.28342,-1.5006 -2.03125,-5.4688 -2.03125,-5.4688 l 0,-26.2812 z m 156.9375,1.4688 18.84375,0 c 5.64425,0 10.1875,4.5432 10.1875,10.1874 l 0,10.7188 c 0,5.6442 -4.54325,10.2188 -10.1875,10.2188 l -18.84375,0 c -5.64425,0 -10.1875,-4.5746 -10.1875,-10.2188 l 0,-10.7188 c 0,-5.644 4.54325,-10.1874 10.1875,-10.1874 z m -49.4375,5.4062 0,19.9062 12.6875,0 0,-19.9062 -12.6875,0 z m 52.96875,0 0,19.9062 11.78125,0 0,-19.9062 -11.78125,0 z"
       transform="translate(0,840.36218)"
       id="rect3090"
       style="fill:#00000f;fill-opacity:0.94117647;stroke:none" />
  </g>
</svg>
