<?xml version="1.0" encoding="UTF-8" standalone="no"?>
<!-- Created with Inkscape (http://www.inkscape.org/) -->

<svg
   xmlns:dc="http://purl.org/dc/elements/1.1/"
   xmlns:cc="http://creativecommons.org/ns#"
   xmlns:rdf="http://www.w3.org/1999/02/22-rdf-syntax-ns#"
   xmlns:svg="http://www.w3.org/2000/svg"
   xmlns="http://www.w3.org/2000/svg"
   xmlns:sodipodi="http://sodipodi.sourceforge.net/DTD/sodipodi-0.dtd"
   xmlns:inkscape="http://www.inkscape.org/namespaces/inkscape"
   width="210mm"
   height="297mm"
   viewBox="0 0 744.09448819 1052.3622047"
   id="svg2"
   version="1.1"
   inkscape:version="0.91 r13725"
   sodipodi:docname="SCCLogo.svg">
  <defs
     id="defs4" />
  <sodipodi:namedview
     id="base"
     pagecolor="#ffffff"
     bordercolor="#666666"
     borderopacity="1.0"
     inkscape:pageopacity="0.0"
     inkscape:pageshadow="2"
     inkscape:zoom="5.6"
     inkscape:cx="1055.0866"
     inkscape:cy="-18.349449"
     inkscape:document-units="px"
     inkscape:current-layer="layer1"
     showgrid="false"
     inkscape:window-width="1856"
     inkscape:window-height="1233"
     inkscape:window-x="0"
     inkscape:window-y="1"
     inkscape:window-maximized="0" />
  <metadata
     id="metadata7">
    <rdf:RDF>
      <cc:Work
         rdf:about="">
        <dc:format>image/svg+xml</dc:format>
        <dc:type
           rdf:resource="http://purl.org/dc/dcmitype/StillImage" />
        <dc:title></dc:title>
      </cc:Work>
    </rdf:RDF>
  </metadata>
  <g
     inkscape:label="Layer 1"
     inkscape:groupmode="layer"
     id="layer1">
    <rect
       style="opacity:1;fill:#000000;fill-opacity:1;stroke:none;stroke-width:2;stroke-linecap:butt;stroke-linejoin:round;stroke-miterlimit:4;stroke-dasharray:none;stroke-opacity:1"
       id="rect4313"
       width="79.01786"
       height="32.410713"
       x="1014.375"
       y="1074.505"
       ry="0"
       rx="0" />
    <text
       xml:space="preserve"
       style="font-style:normal;font-weight:normal;font-size:35.80702591px;line-height:125%;font-family:Sans;letter-spacing:0px;word-spacing:0px;opacity:1;fill:#ffffff;fill-opacity:1;stroke:none;stroke-width:1px;stroke-linecap:butt;stroke-linejoin:miter;stroke-opacity:1"
       x="1025.8448"
       y="1063.1603"
       id="text4217"
       sodipodi:linespacing="125%"><tspan
         sodipodi:role="line"
         id="tspan4219"
         x="1025.8448"
         y="1063.1603"
         style="font-style:normal;font-variant:normal;font-weight:bold;font-stretch:condensed;font-family:'DIN Condensed';-inkscape-font-specification:'DIN Condensed, Bold Condensed';fill:#ffffff">S</tspan></text>
    <text
       xml:space="preserve"
       style="font-style:normal;font-weight:normal;font-size:40px;line-height:125%;font-family:Sans;letter-spacing:0px;word-spacing:0px;fill:#000000;fill-opacity:1;stroke:none;stroke-width:1px;stroke-linecap:butt;stroke-linejoin:miter;stroke-opacity:1"
       x="1052.0739"
       y="1094.031"
       id="text4221"
       sodipodi:linespacing="125%"><tspan
         sodipodi:role="line"
         id="tspan4223"
         x="1052.0739"
         y="1094.031" /></text>
    <g
       style="font-style:normal;font-weight:normal;font-size:35.80702591px;line-height:125%;font-family:Sans;letter-spacing:0px;word-spacing:0px;opacity:1;fill:#ffffff;fill-opacity:1;stroke:none;stroke-width:1px;stroke-linecap:butt;stroke-linejoin:miter;stroke-opacity:1"
       id="text4225">
      <path
         d="m 1059.972,1097.467 c 0,0.7877 -0.1552,1.5397 -0.4655,2.2558 -0.2865,0.7161 -0.6923,1.3487 -1.2175,1.8978 -0.5251,0.5251 -1.1458,0.9548 -1.8619,1.289 -0.6923,0.3103 -1.4442,0.4655 -2.2559,0.4655 -0.6923,0 -2.1281,-0.095 -2.8442,-0.2864 -0.7161,-0.191 -1.3607,-0.5133 -1.9336,-0.9668 -0.5729,-0.4775 -1.0503,-1.0981 -1.4322,-1.862 -0.3581,-0.7639 -0.5371,-1.7307 -0.5371,-2.9004 l 0,-14.0363 c 0,-0.8355 0.1432,-1.6114 0.4296,-2.3275 0.2865,-0.7161 0.6923,-1.3368 1.2175,-1.8619 0.5251,-0.5252 1.1458,-0.931 1.8619,-1.2175 0.7401,-0.3103 2.2833,-0.4655 3.1665,-0.4655 0.8355,0 1.6114,0.1552 2.3275,0.4655 0.7161,0.2865 1.3368,0.7042 1.8619,1.2533 0.5252,0.5251 0.931,1.1697 1.2175,1.9336 0.3103,0.74 0.6496,1.571 0.4655,2.4348 l 0,3.1242 -3.6523,0 0,-2.9093 c 0,-0.7161 -0.2029,-1.3368 -0.6088,-1.862 -0.4058,-0.5251 -0.9548,-0.7877 -1.6471,-0.7877 -0.9071,0 -1.8475,0.2864 -2.1578,0.8593 -0.2865,0.5491 -0.4297,1.2533 -0.4297,2.1126 l 0,12.9802 c 0,0.74 0.1552,1.3607 0.4655,1.862 0.3342,0.5013 1.2507,0.7519 2.0862,0.7519 0.2387,0 0.4894,-0.036 0.752,-0.1074 0.2864,-0.095 0.537,-0.2387 0.7519,-0.4297 0.2387,-0.191 0.4297,-0.4536 0.5729,-0.7878 0.1433,-0.3342 0.2149,-0.7519 0.2149,-1.2532 l 0,-3.1996 3.6523,0 z"
         style="font-style:normal;font-variant:normal;font-weight:bold;font-stretch:condensed;font-family:'DIN Condensed';-inkscape-font-specification:'DIN Condensed, Bold Condensed';fill:#ffffff"
         id="path4261"
         inkscape:connector-curvature="0"
         sodipodi:nodetypes="scccscccsscccscccsccscscsscscccsccs" />
    </g>
    <g
       id="g4263"
       style="font-style:normal;font-weight:normal;font-size:35.80702591px;line-height:125%;font-family:Sans;letter-spacing:0px;word-spacing:0px;opacity:1;fill:#ffffff;fill-opacity:1;stroke:none;stroke-width:1px;stroke-linecap:butt;stroke-linejoin:miter;stroke-opacity:1"
       transform="translate(20.803571,0)">
      <path
         sodipodi:nodetypes="scccscccsscccsccccccscscsscscccsccs"
         inkscape:connector-curvature="0"
         id="path4265"
         style="font-style:normal;font-variant:normal;font-weight:bold;font-stretch:condensed;font-family:'DIN Condensed';-inkscape-font-specification:'DIN Condensed, Bold Condensed';fill:#ffffff"
         d="m 1059.972,1097.467 c 0,0.7877 -0.1552,1.5397 -0.4655,2.2558 -0.2865,0.7161 -0.6923,1.3487 -1.2175,1.8978 -0.5251,0.5251 -1.1458,0.9548 -1.8619,1.289 -0.6923,0.3103 -1.4442,0.4655 -2.2559,0.4655 -0.6923,0 -2.1281,-0.095 -2.8442,-0.2864 -0.7161,-0.191 -1.3607,-0.5133 -1.9336,-0.9668 -0.5729,-0.4775 -1.0503,-1.0981 -1.4322,-1.862 -0.3581,-0.7639 -0.5371,-1.7307 -0.5371,-2.9004 l 0,-14.0363 c 0,-0.8355 0.1432,-1.6114 0.4296,-2.3275 0.2865,-0.7161 0.6923,-1.3368 1.2175,-1.8619 0.5251,-0.5252 1.1458,-0.931 1.8619,-1.2175 0.7401,-0.3103 2.2833,-0.4655 3.1665,-0.4655 0.8355,0 1.6114,0.1552 2.3275,0.4655 0.7161,0.2865 1.3368,0.7042 1.8619,1.2533 0.5252,0.5251 0.931,1.1697 1.2175,1.9336 0.3103,0.74 0.4655,1.6341 0.4655,2.4348 l 0,3.1242 -3.6523,0 0,-2.9093 c 0,-0.7161 -0.2029,-1.3368 -0.6088,-1.862 -0.4058,-0.5251 -0.9548,-0.7877 -1.6471,-0.7877 -0.9071,0 -1.8475,0.2864 -2.1578,0.8593 -0.2865,0.5491 -0.4297,1.2533 -0.4297,2.1126 l 0,12.9802 c 0,0.74 0.1552,1.3607 0.4655,1.862 0.3342,0.5013 1.2507,0.7519 2.0862,0.7519 0.2387,0 0.4894,-0.036 0.752,-0.1074 0.2864,-0.095 0.537,-0.2387 0.7519,-0.4297 0.2387,-0.191 0.4297,-0.4536 0.5729,-0.7878 0.1433,-0.3342 0.2149,-0.7519 0.2149,-1.2532 l 0,-3.1996 3.6523,0 z" />
    </g>
    <path
       style="opacity:1;fill:#ffffff;fill-opacity:1;stroke:none;stroke-width:2;stroke-linecap:butt;stroke-linejoin:round;stroke-miterlimit:4;stroke-dasharray:none;stroke-opacity:1"
       d="m 1062.9464,1089.3415 2.1429,0 0,2.1429 -2.1429,0 z"
       id="rect4267"
       inkscape:connector-curvature="0" />
    <path
       id="path4270"
       d="m 1042.9464,1089.3415 2.1429,0 0,2.1429 -2.1429,0 z"
       style="opacity:1;fill:#ffffff;fill-opacity:1;stroke:none;stroke-width:2;stroke-linecap:butt;stroke-linejoin:round;stroke-miterlimit:4;stroke-dasharray:none;stroke-opacity:1"
       inkscape:connector-curvature="0" />
    <path
       inkscape:connector-curvature="0"
       id="path4272"
       d="m 1085.4821,1089.3415 2.1429,0 0,2.1429 -2.1429,0 z"
       style="opacity:1;fill:#ffffff;fill-opacity:1;stroke:none;stroke-width:2;stroke-linecap:butt;stroke-linejoin:round;stroke-miterlimit:4;stroke-dasharray:none;stroke-opacity:1" />
    <path
       inkscape:connector-curvature="0"
       style="opacity:1;fill:#ffffff;fill-opacity:1;stroke:none;stroke-width:2;stroke-linecap:butt;stroke-linejoin:round;stroke-miterlimit:4;stroke-dasharray:none;stroke-opacity:1"
       d="m 1020.9464,1089.3415 2.1429,0 0,2.1429 -2.1429,0 z"
       id="path4274" />
    <g
       id="g4295"
       style="font-style:normal;font-weight:normal;font-size:35.80702591px;line-height:125%;font-family:Sans;letter-spacing:0px;word-spacing:0px;opacity:1;fill:#ffffff;fill-opacity:1;stroke:none;stroke-width:1px;stroke-linecap:butt;stroke-linejoin:miter;stroke-opacity:1"
       transform="translate(-20.8241,0)">
      <path
         id="path4297"
         style="font-style:normal;font-variant:normal;font-weight:bold;font-stretch:condensed;font-family:'DIN Condensed';-inkscape-font-specification:'DIN Condensed, Bold Condensed';fill:#ffffff"
         d="m 1047.4241,1083.3232 c 0,-0.8355 0.1432,-1.6114 0.4296,-2.3275 0.2865,-0.7161 0.6923,-1.3368 1.2175,-1.8619 0.5251,-0.5252 1.1458,-0.931 1.8619,-1.2175 0.7401,-0.3103 2.2833,-0.4655 3.1665,-0.4655 0.8355,0 1.6114,0.1552 2.3275,0.4655 0.7161,0.2865 1.3368,0.7042 1.8619,1.2533 0.5252,0.5251 0.931,1.1697 1.2175,1.9336 0.3103,0.74 0.6496,2.3952 0.4655,3.259 l -3.6523,0.3 0,-0.9093 c 0,-0.7161 -0.2029,-1.3368 -0.6088,-1.862 -0.4058,-0.5251 -0.9548,-0.7877 -1.6471,-0.7877 -0.9071,0 -1.8475,0.2864 -2.1578,0.8593 -0.2865,0.5491 -0.4297,1.2533 -0.4297,2.1126 0,2.1427 2.8286,4.2082 4.6943,6.0739 2.1194,2.1194 3.8014,4.2012 3.8014,5.7425 0.1077,1.322 -0.1124,2.7274 -0.4655,3.8313 -0.2865,0.7161 -0.6923,1.3487 -1.2175,1.8978 -0.5251,0.5251 -1.1458,0.9548 -1.8619,1.289 -0.6923,0.3103 -1.4442,0.4655 -2.2559,0.4655 -0.6923,0 -2.1281,-0.095 -2.8442,-0.2864 -0.7161,-0.191 -1.3607,-0.5133 -1.9336,-0.9668 -0.5729,-0.4775 -1.0503,-1.0981 -1.4322,-1.862 -0.3581,-0.7639 -0.5371,-2.4759 -0.5371,-3.6456 l 4.0522,-0.3042 c 0,0.74 0.1552,2.1059 0.4655,2.6072 0.3342,0.5013 1.2507,0.7519 2.0862,0.7519 0.2387,0 0.4894,-0.036 0.752,-0.1074 0.2864,-0.095 0.537,-0.2387 0.7519,-0.4297 0.2387,-0.191 0.4297,-0.4536 0.5729,-0.7878 0.1433,-0.3342 0.2569,-0.7537 0.2149,-1.2532 0,-1.123 -1.6184,-2.5137 -4.4292,-5.3245 -2.2059,-2.2059 -4.624,-3.7383 -4.4664,-8.4434 z"
         inkscape:connector-curvature="0"
         sodipodi:nodetypes="ccccscccccscsccsccccsccccccsccccsc" />
    </g>
  </g>
</svg>
